<?xml version="1.0" standalone="no"?>
<!DOCTYPE svg PUBLIC "-//W3C//DTD SVG 1.1//EN" "http://www.w3.org/Graphics/SVG/1.1/DTD/svg11.dtd" >
<svg>
<metadata>
Created by FontForge 20090914 at Thu Jun 27 16:49:00 2013
 By www-data
Copyright (c) 2012, Julia Petretta (www.juliapetretta.com julia.petretta@googlemail.com), with Reserved Font Name 'Lily'
</metadata>
<defs>
<font id="LilyScriptOne-Regular" horiz-adv-x="600" >
  <font-face 
    font-family="Lily Script One"
    font-weight="400"
    font-stretch="normal"
    units-per-em="1000"
    panose-1="2 0 5 0 0 0 0 0 0 0"
    ascent="800"
    descent="-200"
    x-height="481"
    cap-height="762.001"
    bbox="-90 -359 1336 1017"
    underline-thickness="50"
    underline-position="-50"
    unicode-range="U+0020-U+FB02"
  />
<missing-glyph horiz-adv-x="500" 
d="M500 700v-700h-500v700h500zM80 650l170 -255l170 255h-340zM220 350l-170 255v-510zM450 605l-170 -255l170 -255v510zM250 305l-170 -255h340z" />
    <glyph glyph-name=".notdef" horiz-adv-x="500" 
d="M500 700v-700h-500v700h500zM80 650l170 -255l170 255h-340zM220 350l-170 255v-510zM450 605l-170 -255l170 -255v510zM250 305l-170 -255h340z" />
    <glyph glyph-name="space" unicode=" " horiz-adv-x="220" 
 />
    <glyph glyph-name="exclam" unicode="!" horiz-adv-x="344" 
d="M156 831c13.333 6.66699 36.667 10 70 10c65.333 0 98 -15.333 98 -46c0 -2.66699 -0.333008 -5.66699 -1 -9l-124 -524h-107zM120.001 144c22.667 0 42 -8 58 -24s24 -35.333 24 -58s-8 -41.834 -24 -57.501s-35.333 -23.5 -58 -23.5s-41.834 7.83301 -57.501 23.5
s-23.5 34.834 -23.5 57.501s7.83301 42 23.5 58s34.834 24 57.501 24z" />
    <glyph glyph-name="quotedbl" unicode="&#x22;" horiz-adv-x="432" 
d="M69.5 767c15.667 16 35.1689 24 58.502 24s43.5 -7.33301 60.5 -22s25.5 -36.5 25.5 -65.5s-14.667 -62.667 -44 -101s-58 -68.833 -86 -91.5c-1.33301 -0.666992 -4 -1 -8 -1s-12 2 -24 6s-19.333 7.33301 -22 10c31.333 36 58.666 70.667 81.999 104
c-18.667 3.33301 -34.334 12.5 -47.001 27.5s-19 33 -19 54s7.83301 39.5 23.5 55.5zM257.502 767c15.667 16 35.1689 24 58.502 24s43.5 -7.33301 60.5 -22s25.5 -36.5 25.5 -65.5s-14.667 -62.667 -44 -101s-58 -68.833 -86 -91.5c-1.33301 -0.666992 -4 -1 -8 -1
s-12 2 -24 6s-19.333 7.33301 -22 10c31.333 36 58.666 70.667 81.999 104c-18.667 3.33301 -34.334 12.5 -47.001 27.5s-19 33 -19 54s7.83301 39.5 23.5 55.5z" />
    <glyph glyph-name="numbersign" unicode="#" horiz-adv-x="643" 
d="M533 283l-11 -76h-137l-87 -215h-76l87 215h-116l-87 -215h-76l87 215h-102l9 76h124l59 144h-112l9 76h134l80 198h76l-80 -198h116l80 198h76l-80 -198h117l-11 -76h-137l-59 -144h117zM224 283h116l59 144h-116z" />
    <glyph glyph-name="dollar" unicode="$" horiz-adv-x="488" 
d="M461 725c39.333 -29.333 58.999 -71 58.999 -125c0 -31.333 -8 -63.333 -24 -96h-75c16 26.667 24 54.334 24 83.001v7c0 18 -6.33301 34.333 -19 49l-84 -198c6 -10.667 16.167 -27.834 30.5 -51.501s24.5 -41.334 30.5 -53.001l22 -44.5c16.667 -36 25 -72.667 25 -110
c0 -56 -20.167 -101.667 -60.5 -137s-89.166 -53 -146.499 -53c-31.333 0 -59.666 5.33301 -84.999 16l-18 -42h-65l32 75c-40 36.667 -60 83.667 -60 141c0 30.667 10.333 59.667 31 87l89 -2c-21.333 -27.333 -32 -52 -32 -74s4 -41.333 12 -58l91 215
c-2.66699 5.33301 -8.5 15.833 -17.5 31.5l-18 31.5c-3 5.33301 -8 14.833 -15 28.5s-12 23.834 -15 30.501l-12 27c-5 11.333 -8.5 21 -10.5 29c-6 24 -9 43.667 -9 59c0 48 18.167 88.167 54.5 120.5s86.166 48.5 149.499 48.5c21.333 0 42 -2.66699 62 -8l4 9h65z
M355.999 673c-22.667 0 -41 -7.5 -55 -22.5s-21 -35 -21 -60s8 -52.167 24 -81.5l69 163c-3.33301 0.666992 -9 1 -17 1zM227.999 84c24.667 0 45.499 7.66699 62.499 23s24.833 34.333 23.5 57c-1.33301 33.333 -14.666 74 -39.999 122l-82 -193c12 -6 24 -9 36 -9z" />
    <glyph glyph-name="percent" unicode="%" horiz-adv-x="858" 
d="M20 506l1 23.999c7.33301 72.667 28.5 129.334 63.5 170.001s81.167 61 138.5 61c46 0 83.167 -17 111.5 -51s42.5 -83.667 42.5 -149l-1 -33c-8 -65.333 -29.167 -118.5 -63.5 -159.5s-76.5 -61.5 -126.5 -61.5c-55.333 0 -96.833 18.667 -124.5 56s-41.5 85 -41.5 143z
M640 760.999h83l-558 -861h-83zM113 515.999c-0.666992 -4 -0.999023 -12 -0.999023 -24s0.666992 -24.5 2 -37.5s4 -27.167 8 -42.5c7.33301 -32.667 28 -49 62 -49c25.333 0 47.166 15.5 65.499 46.5s29.833 76.833 34.5 137.5c1.33301 9.33301 2 16.666 2 21.999
c0 90 -22 135.333 -66 136c-28.667 0 -52.667 -16.667 -72 -50s-31 -79.666 -35 -138.999zM473.001 199.999l1 22.998c8 72.667 29.5 129.334 64.5 170.001s81.5 61 139.5 61c46 0 82.833 -17 110.5 -51s41.5 -83.333 41.5 -148l-1 -34
c-6.66699 -65.333 -27.167 -118.666 -61.5 -159.999s-76.166 -62 -125.499 -62c-4.66699 0 -9.33398 0.333008 -14.001 1c-49.333 2.66699 -87.5 22 -114.5 58s-40.5 83.333 -40.5 142zM565.001 192.997c0 -90 22 -136 66 -138h5c26 0 48.333 15.667 67 47s30 77 34 137
c2 14 3 21.667 3 23c0 89.333 -22.333 134.333 -67 135c-28.667 0 -52.5 -16.5 -71.5 -49.5s-30.833 -79.167 -35.5 -138.5c-0.666992 -4.66699 -1 -10 -1 -16z" />
    <glyph glyph-name="ampersand" unicode="&#x26;" horiz-adv-x="657" 
d="M450 -13c0 16 -4 37.9971 -12 65.9971c-59.333 -41.333 -121.833 -62 -187.5 -62s-117.167 18.5 -154.5 55.5s-56 80.833 -56 131.5c0 54.667 17.667 102.667 53 144c26.667 30.667 70.334 64 131.001 100c-31.333 60.667 -47 115 -47 163s18 89.833 54 125.5
s86 53.5 150 53.5c44.667 0 81.167 -11.667 109.5 -35s42.5 -52.666 42.5 -87.999c0 -67.333 -48 -140 -144 -218c6.66699 -10.667 24.667 -37 54 -79s51.333 -75 66 -99c13.333 27.333 20 52.333 20 75c0 46 -15.333 69.667 -46 71c0 4.66699 1.66699 12.334 5 23.001
s7.33301 19.334 12 26.001s12 12.667 22 18s21.333 8 34 8c24 0 43.833 -9.16699 59.5 -27.5s23.5 -41.5 23.5 -69.5c0 -10 -1 -20.333 -3 -31c-11.333 -55.333 -39 -113 -83 -173c25.333 -56 38 -104.167 38 -144.5s-6.33301 -73.166 -19 -98.499
c-22 -42.667 -60.667 -71.334 -116 -86.001c-18.667 -4.66699 -37.334 -7 -56.001 -7h-12v61c41.333 20.667 62 53 62 97zM331.5 657.497c-13 -12.333 -20.167 -30.167 -21.5 -53.5c0 -29.333 12.333 -67 37 -113c27.333 21.333 49.666 41.333 66.999 60
c20 22.667 30 43.5 30 62.5s-5 33.833 -15 44.5c-11.333 12 -27.166 18 -47.499 18s-37 -6.16699 -50 -18.5zM181 199.996l-0.998047 -12c0 -28 9.33301 -52.833 28 -74.5s47.167 -32.5 85.5 -32.5s76.166 14.333 113.499 43c-19.333 36.667 -42 74.667 -68 114l-52 79
l-11 18c-35.333 -27.333 -59.333 -51 -72 -71s-20.334 -41.333 -23.001 -64z" />
    <glyph glyph-name="quotesingle" unicode="'" 
d="M231 795c0 4 3 6.00098 9 6.00098h110c5.33301 0 8 -1.33301 8 -4s-0.333008 -6.66699 -1 -12l-29 -266c-0.666992 -5.33301 -4 -8 -10 -8h-66c-2 0 -3.66699 8.16699 -5 24.5s-4.33301 60.166 -9 131.499z" />
    <glyph glyph-name="parenleft" unicode="(" horiz-adv-x="446" 
d="M156 243c0 -66.667 11.333 -125.665 34 -176.998c31.333 -72 78 -118.333 140 -139l-12 -85c-104.667 30.667 -183 89.667 -235 177c-41.333 69.333 -62 149.666 -62 240.999c0 155.333 46.333 279.666 139 372.999c77.333 77.333 166 120.333 266 129l-9 -84
c-144.667 -24.667 -230 -141.667 -256 -351c-3.33301 -29.333 -5 -57.333 -5 -84z" />
    <glyph glyph-name="parenright" unicode=")" horiz-adv-x="446" 
d="M425 344c0 -155.333 -46.333 -279.668 -139 -373.001c-77.333 -77.333 -166 -120.333 -266 -129l9 84c144.667 24.667 230 141.667 256 351c3.33301 29.333 5 57.333 5 84c0 66.667 -11.333 125.667 -34 177c-31.333 72 -78 118.333 -140 139l12 85
c104.667 -30.667 183 -89.667 235 -177c41.333 -69.333 62 -149.666 62 -240.999z" />
    <glyph glyph-name="asterisk" unicode="*" horiz-adv-x="389" 
d="M138 698c-6 7.33301 -9 14 -9 20c0 20.667 8.66699 34.667 26 42c6.66699 2 13.167 3 19.5 3s13.833 -2.66699 22.5 -8s12.667 -16 12 -32l-5 -108zM325 719c7.33301 -8 10.999 -15.333 10.999 -22c0 -21.333 -8.66699 -36 -26 -44l-102 -38l52 96
c8.66699 13.333 19.834 20 33.501 20s24.167 -4 31.5 -12zM97.999 578c-5.33301 -1.33301 -11.168 -2 -17.501 -2s-13.666 3.5 -21.999 10.5s-12.833 17.833 -13.5 32.5c1.33301 14 7 23.833 17 29.5s18.333 8.5 25 8.5s12.667 -1 18 -3l95 -42zM341.997 570
c2 -5.33301 3 -11.001 3 -17.001s-2.33301 -12.333 -7 -19c-8 -13.333 -18.667 -20 -32 -20s-24.333 4.66699 -33 14l-66 83l105 -19c14 -1.33301 24 -8.66602 30 -21.999zM207.997 503.999c0 -14.667 -4.83301 -25.334 -14.5 -32.001s-17.667 -10 -24 -10
s-11.5 0.333008 -15.5 1c-18.667 6.66699 -28 19 -28 37c0 8.66699 3.33301 17.334 10 26.001l68 84z" />
    <glyph glyph-name="plus" unicode="+" horiz-adv-x="442" 
d="M243 119h-92l25 213h-190l10 86h190l24 210h91l-24 -210h191l-10 -86h-191z" />
    <glyph glyph-name="comma" unicode="," horiz-adv-x="384" 
d="M139.5 130c15.667 16 35.1689 24 58.502 24s43.5 -7.33301 60.5 -22s25.5 -36.5 25.5 -65.5s-14.667 -62.667 -44 -101s-58 -68.833 -86 -91.5c-1.33301 -0.666992 -4 -1 -8 -1s-12 2 -24 6s-19.333 7.33301 -22 10c31.333 36 58.666 70.667 81.999 104
c-18.667 3.33301 -34.334 12.5 -47.001 27.5s-19 33 -19 54s7.83301 39.5 23.5 55.5z" />
    <glyph glyph-name="hyphen" unicode="-" horiz-adv-x="458" 
d="M42 417h382l-9 -86h-382z" />
    <glyph glyph-name="period" unicode="." horiz-adv-x="363" 
d="M181 144c22.667 0 42 -8 58 -24s24 -35.333 24 -58s-8 -41.834 -24 -57.501s-35.333 -23.5 -58 -23.5s-41.834 7.83301 -57.501 23.5s-23.5 34.834 -23.5 57.501s7.83301 42 23.5 58s34.834 24 57.501 24z" />
    <glyph glyph-name="slash" unicode="/" horiz-adv-x="381" 
d="M278 761h83l-258 -861h-83z" />
    <glyph glyph-name="zero" unicode="0" horiz-adv-x="673" 
d="M309 0c-89.333 0 -155.332 30.667 -197.999 92s-64.667 142.333 -66 243c0 16.667 0.666992 30.334 2 41.001c10 120.667 42.667 215 98 283s129.666 102 222.999 102h3c76 -1.33301 137.333 -30.333 184 -87s71 -139.334 73 -248.001c0 -90 -17.333 -171.333 -52 -244
c-28 -56.667 -65.5 -101.167 -112.5 -133.5s-98.5 -48.5 -154.5 -48.5zM469.001 454c0 140.667 -35.335 211 -106.002 211c-48 0 -85.167 -28 -111.5 -84s-43.166 -141.333 -50.499 -256c2.66699 -86.667 11.667 -145.334 27 -176.001c6.66699 -14 17 -26.333 31 -37
c14.667 -12 32.334 -18 53.001 -18c40.667 0 75.167 25.833 103.5 77.5s45.833 128.167 52.5 229.5c0.666992 18.667 1 36.334 1 53.001z" />
    <glyph glyph-name="one" unicode="1" horiz-adv-x="509" 
d="M475 0l-463 0.000976562l14 108h160l62 456l-184 -11l11 90c122.667 31.333 195.667 70.666 219 117.999h122l-85 -653h156z" />
    <glyph glyph-name="two" unicode="2" horiz-adv-x="616" 
d="M570 226c4 -16.667 6.00391 -30.001 6.00391 -40.001c0 -71.333 -15.167 -121 -45.5 -149s-71.166 -42 -122.499 -42c-36.667 0 -80 6.16699 -130 18.5s-85 18.5 -105 18.5h-3c-40.667 0 -76.334 -10.667 -107.001 -32l-37 88h-1c16 20.667 48 52.5 96 95.5l87.5 79
c10.333 9.66699 24.833 22.334 43.5 38.001s33.5 28.5 44.5 38.5s24.5 23.833 40.5 41.5s28.667 34.167 38 49.5c28 45.333 42 86.666 42 123.999s-9.66699 65.333 -29 84s-41.333 28.334 -66 29.001c-32.667 -1.33301 -57.334 -11 -74.001 -29s-25.334 -37 -26.001 -57
s0.666016 -35 3.99902 -45h-136c-6 56 7.33301 103.333 40 142c45.333 55.333 111 83 197 83c72 0 130.667 -18 176 -54s68 -87.333 68 -154c0 -63.333 -27.667 -126.333 -83 -189c-18.667 -20.667 -32.334 -35 -41.001 -43c-65.333 -60.667 -134.333 -117.667 -207 -171
c12.667 -2 40.667 -7.33301 84 -16c46.667 -8.66699 76.334 -13 89.001 -13c27.333 0 48.166 9 62.499 27s25.833 44 34.5 78h60z" />
    <glyph glyph-name="three" unicode="3" horiz-adv-x="658" 
d="M108 567c0 33.333 7.33398 63.001 22.001 89.001s34.334 46.333 59.001 61c49.333 29.333 101 44 155 44c72 0 131.167 -16.833 177.5 -50.5s69.166 -81.834 68.499 -144.501c-2 -82.667 -43.667 -141 -125 -175c44 -8.66699 79.667 -28 107 -58s41 -66.333 41 -109
c0 -74.667 -28.667 -130.667 -86 -168s-123.333 -56 -198 -56c-128.667 0 -226.667 46 -294 138l97 90c15.333 -34 42 -64 80 -90c39.333 -26.667 77.833 -40 115.5 -40s68.167 11.5 91.5 34.5s35 51.5 35 85.5c0 21.333 -5.66699 40 -17 56
c-28.667 38.667 -85.334 58 -170.001 58h-12h-61l8 91c48.667 0 89.5 1.66699 122.5 5s61.5 15.333 85.5 36c26 23.333 39 55 39 95c0 28 -9.83301 52.833 -29.5 74.5s-48.167 32.834 -85.5 33.501c-31.333 -1.33301 -54.5 -10.833 -69.5 -28.5s-22.5 -36.167 -22.5 -55.5
s2 -35 6 -47h-138c-1.33301 13.333 -2 23.666 -2 30.999z" />
    <glyph glyph-name="four" unicode="4" horiz-adv-x="608" 
d="M110 723c31.333 30 67.9961 45 109.996 45c28.667 0 50.834 -7.5 66.501 -22.5s23.5 -34.5 23.5 -58.5s-6.5 -49.5 -19.5 -76.5l-29 -60.5c-6.33301 -13.333 -15.666 -30.666 -27.999 -51.999l-27.5 -47c-7.33301 -14 -24.333 -43 -51 -87h167l58 349
c14 5.33301 32.333 8 55 8s40.834 -4.33301 54.501 -13s20.5 -25 20.5 -49c0 -8.66699 -0.5 -16.5 -1.5 -23.5s-18.167 -100.833 -51.5 -281.5c84 -20 126 -72 126 -156c0 -10.667 -0.666992 -21.667 -2 -33c-6.66699 -58.667 -25.167 -100.834 -55.5 -126.501
s-66.333 -38.5 -108 -38.5s-74.167 11.5 -97.5 34.5s-35 52.833 -35 89.5c0 12.667 0.666992 22.334 2 29.001l16 96l-250 -3l-27 58c-9.33301 22 -14 35 -14 39s0.333008 6.33301 1 7c94.667 123.333 145.334 224.666 152.001 303.999v6c0 29.333 -18.333 50.333 -55 63z
M502.996 184c0 41.333 -21.332 64 -63.999 68c-11.333 -62.667 -17 -98.667 -17 -108c0 -28 9.33301 -42 28 -42c13.333 0 24.666 5.33301 33.999 16c12.667 16.667 19 38.667 19 66z" />
    <glyph glyph-name="five" unicode="5" horiz-adv-x="606" 
d="M416 639l-135.002 8.00195l-24 -156c17.333 4 36.666 6 57.999 6s45.166 -3.83301 71.499 -11.5s52.5 -19.334 78.5 -35.001s47.333 -38.667 64 -69s25 -65.5 25 -105.5c0 -88.667 -27.167 -156.834 -81.5 -204.501s-128 -71.5 -221 -71.5s-170.167 32.333 -231.5 97
l67 107c38.667 -68.667 93.667 -103 165 -103c42 0 76.5 15.167 103.5 45.5s40.5 69.166 40.5 116.499s-15.167 83.5 -45.5 108.5s-68.666 37.5 -114.999 37.5s-89.166 -10.333 -128.499 -31l63 382h43h61c162.667 0 261.334 7.33301 296.001 22
c0.666992 -11.333 1 -23.666 1 -36.999s-1.83301 -27.833 -5.5 -43.5s-12.5 -28.5 -26.5 -38.5s-30.167 -16.5 -48.5 -19.5s-43.166 -4.5 -74.499 -4.5z" />
    <glyph glyph-name="six" unicode="6" horiz-adv-x="623" 
d="M362 495c70.667 0 125.169 -23.668 163.502 -71.001s57.5 -101.333 57.5 -162c0 -80 -26.5 -143.667 -79.5 -191s-113.833 -71 -182.5 -71c-47.333 0 -88.833 8.16699 -124.5 24.5s-64.167 37.5 -85.5 63.5c-54 64.667 -81 145.334 -81 242.001
c0 14.667 0.666992 29.667 2 45c9.33301 122 46.166 216.833 110.499 284.5s148.5 101.5 252.5 101.5c72.667 0 132 -19 178 -57l-46 -82c-38 30 -82 45 -132 45c-47.333 0 -86.5 -15.667 -117.5 -47s-53.5 -69.333 -67.5 -114c-17.333 -58 -26 -119 -26 -183
c0 -43.333 5.66699 -83.333 17 -120c22.667 -72.667 61.667 -109 117 -109c26.667 0 51.167 14.167 73.5 42.5s34.166 65.833 35.499 112.5v15c0 95.333 -44.667 143 -134 143c-11.333 0 -27.5 -2.66699 -48.5 -8s-33.167 -10 -36.5 -14l7 76
c40.667 22.667 89.667 34 147 34z" />
    <glyph glyph-name="seven" unicode="7" horiz-adv-x="596" 
d="M348 30c-29.333 -28.667 -62.332 -42.999 -98.999 -42.999c-20 0 -40.167 6.33301 -60.5 19s-33.833 34.667 -40.5 66c-2 9.33301 -3 18.666 -3 27.999s0.666992 17.333 2 24s3.66602 14.667 6.99902 24s6.33301 16.666 9 21.999l11.5 23.5
c5 10.333 8.83301 17.833 11.5 22.5l62 129h-144l10 86h175l103 217h-132c-2 -29.333 -14.167 -55.5 -36.5 -78.5s-50.333 -34.667 -84 -35s-61.167 9.16699 -82.5 28.5s-32 45.166 -32 77.499s12.5 60.5 37.5 84.5s63.5 36 115.5 36h398c4 -11.333 6 -24.166 6 -38.499
s-5.66699 -29.166 -17 -44.499l-121 -247h91l-11 -86h-123l-66 -135c-19.333 -38.667 -29 -73.667 -29 -105s14 -56.333 42 -75zM114.001 628.001c0 -9.33301 7.33301 -14 22 -14c24.667 0 41.667 11.333 51 34h-49c-16 0 -24 -6.66699 -24 -20z" />
    <glyph glyph-name="eight" unicode="8" horiz-adv-x="611" 
d="M503.5 350c14.333 -12.667 27.832 -30.667 40.499 -54s19 -49.5 19 -78.5s-5.33301 -56.5 -16 -82.5c-26 -60 -73.667 -100.333 -143 -121c-31.333 -10 -66.666 -15 -105.999 -15c-87.333 0 -151 20.667 -191 62c-41.333 42.667 -62 89.334 -62 140.001
c0 89.333 47.667 158.333 143 207c-55.333 50.667 -83 101.334 -83 152.001c0 61.333 23.667 110.166 71 146.499s102.833 54.5 166.5 54.5s116.667 -15.667 159 -47s63.833 -75 64.5 -131c2 -70.667 -40.333 -131.667 -127 -183
c28.667 -20.667 50.167 -37.334 64.5 -50.001zM419.999 644c-22 15.333 -46 23.001 -72 23.001s-49.167 -8.16699 -69.5 -24.5s-30.5 -36.5 -30.5 -60.5c0 -25.333 14 -49.333 42 -72c11.333 -9.33301 33.333 -26 66 -50c39.333 19.333 65.5 38.666 78.5 57.999
s19.333 41.333 19 66s-11.5 44.667 -33.5 60zM375.999 121.001c24 18 36.002 40.334 36.002 67.001c0 15.333 -2 28.333 -6 39s-11.667 21.5 -23 32.5s-20.333 19.167 -27 24.5s-20.334 14.833 -41.001 28.5l-43 28.5c-36.667 -16 -64.834 -35.667 -84.501 -59
s-29.5 -47 -29.5 -71c0 -36.667 12.333 -65.334 37 -86.001c26 -20.667 56.667 -31 92 -31s65 9 89 27z" />
    <glyph glyph-name="nine" unicode="9" horiz-adv-x="671" 
d="M313 273c-78 0 -136.334 24.999 -175.001 74.999c-33.333 44.667 -50 96.334 -50 155.001c0 6 0.666992 15.667 2 29c8.66699 73.333 36.5 130.5 83.5 171.5s106.833 61.5 179.5 61.5c40 0 75.833 -6.33301 107.5 -19s57.667 -29.334 78 -50.001s37.166 -45 50.499 -73
c24.667 -52 37 -110.667 37 -176c0 -20 -1 -39 -3 -57c-12 -122.667 -47.833 -218.167 -107.5 -286.5s-143.167 -103.166 -250.5 -104.499c-37.333 0 -71.333 4.5 -102 13.5s-53.5 18.167 -68.5 27.5s-31.5 22 -49.5 38l73 93c20 -25.333 42 -44 66 -56s54 -18 90 -18
c114.667 0 180.334 105.667 197.001 317c2 36 3 56.333 3 61c0 130.667 -37.333 196 -112 196c-35.333 0 -63.666 -13.667 -84.999 -41c-24.667 -32.667 -37 -74.667 -37 -126c0 -34 10.5 -65.667 31.5 -95s54.5 -44 100.5 -44c11.333 0 26.833 2.66699 46.5 8
s31.167 10 34.5 14l-8 -73c-36.667 -27.333 -80.667 -41 -132 -41z" />
    <glyph glyph-name="colon" unicode=":" horiz-adv-x="291" 
d="M171 494c22.667 0 42 -8 58 -24s24 -35.333 24 -58s-8 -41.834 -24 -57.501s-35.333 -23.5 -58 -23.5s-41.834 7.83301 -57.501 23.5s-23.5 34.834 -23.5 57.501s7.83301 42 23.5 58s34.834 24 57.501 24zM130 144c22.667 0 42 -8 58 -24s24 -35.333 24 -58
s-8 -41.834 -24 -57.501s-35.333 -23.5 -58 -23.5s-41.834 7.83301 -57.501 23.5s-23.5 34.834 -23.5 57.501s7.83301 42 23.5 58s34.834 24 57.501 24z" />
    <glyph glyph-name="semicolon" unicode=";" horiz-adv-x="361" 
d="M214 484c22.667 0 42 -8 58 -24s24 -35.333 24 -58s-8 -41.834 -24 -57.501s-35.333 -23.5 -58 -23.5s-41.834 7.83301 -57.501 23.5s-23.5 34.834 -23.5 57.501s7.83301 42 23.5 58s34.834 24 57.501 24zM104.5 130c15.667 16 35.1689 24 58.502 24
s43.5 -7.33301 60.5 -22s25.5 -36.5 25.5 -65.5s-14.667 -62.667 -44 -101s-58 -68.833 -86 -91.5c-1.33301 -0.666992 -4 -1 -8 -1s-12 2 -24 6s-19.333 7.33301 -22 10c31.333 36 58.666 70.667 81.999 104c-18.667 3.33301 -34.334 12.5 -47.001 27.5s-19 33 -19 54
s7.83301 39.5 23.5 55.5z" />
    <glyph glyph-name="less" unicode="&#x3c;" horiz-adv-x="687" 
d="M619 157l-12 -96l-579 305l639 226l-13 -99l-417 -143z" />
    <glyph glyph-name="equal" unicode="=" horiz-adv-x="524" 
d="M31 395l12 86h471l-11 -86h-472zM482 215h-473l13 86h471z" />
    <glyph glyph-name="greater" unicode="&#x3e;" horiz-adv-x="687" 
d="M41 190l417 143l-382 193l12 96l579 -305l-639 -226z" />
    <glyph glyph-name="question" unicode="?" horiz-adv-x="523" 
d="M147.5 757.5c43 35.667 95.666 53.499 157.999 53.499s112.666 -16.5 150.999 -49.5s57.5 -75.833 57.5 -128.5v-5c-3.33301 -85.333 -44.333 -158 -123 -218c-12.667 -10 -31 -23.167 -55 -39.5s-42.333 -29.166 -55 -38.499s-25 -21.333 -37 -36
c-15.333 -20.667 -22.666 -40 -21.999 -58c0.666992 -6.66699 1.33398 -10.667 2.00098 -12h-97c-6 6 -10.333 16.667 -13 32s-4 25.666 -4 30.999c0 32 9.83301 60.833 29.5 86.5s41.667 47.167 66 64.5l72.5 52.5c24 17.667 44.667 38.834 62 63.501
c18 27.333 27 54.5 27 81.5s-7.33301 48.667 -22 65s-37 24.5 -67 24.5s-54.333 -11 -73 -33c-19.333 -22.667 -29 -49.5 -29 -80.5s6.33301 -55.5 19 -73.5h-97c-12 29.333 -18 57.333 -18 84c2 53.333 24.5 97.833 67.5 133.5zM163.999 131.999
c22.667 0 42 -8.16699 58 -24.5s24 -35.833 24 -58.5s-8 -41.834 -24 -57.501s-35.333 -23.5 -58 -23.5s-42 7.83301 -58 23.5s-24 34.834 -24 57.501s8 42.167 24 58.5s35.333 24.5 58 24.5z" />
    <glyph glyph-name="at" unicode="@" horiz-adv-x="746" 
d="M273 545c41.333 14.667 82.6689 22.002 124.002 22.002s80.166 -5.5 116.499 -16.5s70.333 -27.333 102 -49s57.167 -51.334 76.5 -89.001s29 -80.834 29 -129.501c0 -68.667 -15.167 -125 -45.5 -169s-68.833 -66 -115.5 -66c-55.333 0 -87.333 29.667 -96 89
c-12.667 -27.333 -30.334 -49.5 -53.001 -66.5s-49 -25.5 -79 -25.5c-46 0 -82.167 14.833 -108.5 44.5s-39.5 69.5 -39.5 119.5s15.667 98.333 47 145c15.333 23.333 37.5 42.333 66.5 57s61 22 96 22s68.167 -5 99.5 -15c11.333 4 24.166 6 38.499 6
s27.166 -3.33301 38.499 -10c-21.333 -142.667 -32 -230.334 -32 -263.001c0 -24.667 11.667 -37 35 -37c20.667 0 38 14.833 52 44.5s21 68.834 21 117.501c0 70 -21.833 124.333 -65.5 163s-104.667 58 -183 58s-143.833 -24.333 -196.5 -73s-79 -118 -79 -208
c0 -65.333 22.667 -119.5 68 -162.5s101 -64.5 167 -64.5c30.667 0 52.5 2 65.5 6l31.5 10l15 5c2.66699 -1.33301 5.33398 -8 8.00098 -20s4 -21.5 4 -28.5s-0.666992 -11.833 -2 -14.5c-42 -15.333 -84.333 -23 -127 -23c-82.667 0 -154.5 25 -215.5 75
s-91.5 120 -91.5 210c0 59.333 10.333 112.5 31 159.5s48.334 84.5 83.001 112.5s72.667 49.333 114 64zM413.003 364.002c-40 0 -72.502 -13.833 -97.502 -41.5s-37.5 -63.5 -37.5 -107.5c0 -30.667 7 -53.5 21 -68.5s31.833 -22.5 53.5 -22.5s40.834 8.5 57.501 25.5
s28.334 42.167 35.001 75.5l18 133c-21.333 4 -38 6 -50 6z" />
    <glyph glyph-name="A" unicode="A" horiz-adv-x="714" 
d="M608 -2c-37.333 0 -65.5029 12.166 -84.5029 36.499s-31.833 69.833 -38.5 136.5c-4 34.667 -8 79.667 -12 135l-141 -44l-34 -94l-14 -38.5c-2.66699 -7.66699 -7.5 -19.167 -14.5 -34.5s-13 -26.5 -18 -33.5s-12 -15.833 -21 -26.5s-18.167 -18.334 -27.5 -23.001
c-24 -12 -49.667 -18 -77 -18s-49.5 9.83301 -66.5 29.5s-25.5 43.834 -25.5 72.501c0 8 0.666992 16.333 2 25c8.66699 64 74.334 122.333 197.001 175l173 448c21.333 12 48.333 18 81 18h21h24.5c9.66699 0 21.834 -2 36.501 -6
c0.666992 -31.333 16 -225.666 46 -582.999c2.66699 -30 6.33398 -49.5 11.001 -58.5s12.667 -13.5 24 -13.5c18.667 0 43.5 12.667 74.5 38s58.833 57 83.5 95l28 -68l-24 -32c-70 -90.667 -138 -136 -204 -136zM448.997 587.999l-87 -243l104 35zM104.997 116.999
c0 -21.333 8 -32.001 24 -32.001c12 0 21.667 8.66699 29 26c8.66699 18.667 22 51.334 40 98.001c-62 -31.333 -93 -62 -93 -92z" />
    <glyph glyph-name="B" unicode="B" horiz-adv-x="707" 
d="M42 541c0 63.333 27.9971 115.833 83.9971 157.5s130 62.5 222 62.5c48.667 0 92.334 -4.83301 131.001 -14.5s69.334 -21.834 92.001 -36.501s41.667 -31.667 57 -51c25.333 -33.333 37.833 -70.5 37.5 -111.5s-16.5 -77.5 -48.5 -109.5s-70.667 -48.667 -116 -50
c56.667 -4 105.834 -22.667 147.501 -56s62.5 -75.333 62.5 -126c0 -66.667 -25.667 -118.667 -77 -156s-113.833 -56 -187.5 -56s-123.834 9.66699 -150.501 29l31 84c29.333 -15.333 63.5 -23 102.5 -23s70.833 11.5 95.5 34.5s37 53.5 37 91.5s-16.833 70 -50.5 96
s-79.5 39 -137.5 39l9 74c40 0 73.833 9.5 101.5 28.5s42 47.5 43 85.5s-16.167 70 -51.5 96c-38 27.333 -90 41 -156 41c-43.333 0 -85.666 -11.167 -126.999 -33.5s-62 -52.166 -62 -89.499c0 -18 7.33301 -33.167 22 -45.5s34 -19.833 58 -22.5l-11 -74
c-50.667 2 -89.667 16.333 -117 43s-41 57.667 -41 93zM265.997 40.5c-30.667 -29.667 -66.666 -44.498 -107.999 -44.498s-72.666 10.667 -93.999 32s-32 48.666 -32 81.999c0 78.667 59.667 145.667 179 201c3.33301 28 8.16602 65.833 14.499 113.5l15 115.5
c3.66699 29.333 6.16699 48.666 7.5 57.999c27.333 17.333 59 26 95 26c16.667 0 32.667 -1.66699 48 -5l-63 -427c-10.667 -71.333 -31.334 -121.833 -62.001 -151.5zM105.998 123.002c0 -24 11.334 -36.001 34.001 -36.001c9.33301 0 19.166 6.16699 29.499 18.5
s17.5 31.833 21.5 58.5l9 62c-62.667 -35.333 -94 -69.666 -94 -102.999z" />
    <glyph glyph-name="C" unicode="C" horiz-adv-x="575" 
d="M330 -6c-103.333 0 -179.17 26.3359 -227.503 79.0029s-72.5 122.167 -72.5 208.5s14.833 165 44.5 236s73.834 129.333 132.501 175s122.167 68.5 190.5 68.5s122 -16.5 161 -49.5s58.5 -77.333 58.5 -133s-17.167 -101.834 -51.5 -138.501s-74.5 -55 -120.5 -55
s-81.667 10.167 -107 30.5s-38 42 -38 65s9.16699 41 27.5 54s45.166 19.5 80.499 19.5c-8.66699 -8.66699 -13 -20.167 -13 -34.5s4.33301 -26.833 13 -37.5s22 -16 40 -16s36 9.5 54 28.5s27 44.167 27 75.5s-9.5 56.333 -28.5 75s-45.833 28 -80.5 28
c-45.333 0 -86.5 -18.333 -123.5 -55s-65.167 -83.334 -84.5 -140.001s-29 -116.334 -29 -179.001c0 -54 11.667 -101.667 35 -143c12 -21.333 29.833 -38.333 53.5 -51s51.5 -19 83.5 -19c54.667 0 107.334 17.5 158.001 52.5s93.334 80.167 128.001 135.5l34 -61
c-39.333 -64 -88.666 -116.5 -147.999 -157.5s-125 -61.5 -197 -61.5z" />
    <glyph glyph-name="D" unicode="D" horiz-adv-x="744" 
d="M45 536c0 71.333 31 127.335 93 168.002s133.333 61 214 61c103.333 0 194 -29.667 272 -89c38.667 -30 68.667 -69.833 90 -119.5s32 -104.5 32 -164.5c0 -118 -33.667 -214 -101 -288c-70 -75.333 -157.667 -113 -263 -113c-23.333 0 -48 3 -74 9s-46.667 14 -62 24
c-24.667 -18.667 -56.167 -28 -94.5 -28s-68.166 10.667 -89.499 32s-32 48.666 -32 81.999c0 78.667 59.667 145.667 179 201c3.33301 28 8.16602 65.833 14.499 113.5l15 115.5c3.66699 29.333 6.16699 48.666 7.5 57.999c27.333 17.333 59 26 95 26
c16.667 0 32.667 -1.66699 48 -5l-63 -427c-6 -38 -14.333 -69.667 -25 -95c20.667 -5.33301 37.334 -8 50.001 -8c76.667 0 136 29 178 87c43.333 60.667 65 134 65 220c0 110 -39.667 189 -119 237c-44 26.667 -92.333 40 -145 40
c-67.333 0 -120.666 -18.333 -159.999 -55c-22.667 -20.667 -34 -45.667 -34 -75c0 -15.333 4.66699 -29.833 14 -43.5s25.666 -21.5 48.999 -23.5l-10 -65c-48.667 2.66699 -84.834 16.167 -108.501 40.5s-35.5 52.5 -35.5 84.5zM104 123.002
c0 -24 11.334 -36.001 34.001 -36.001c9.33301 0 19.166 6.16699 29.499 18.5s17.5 31.833 21.5 58.5l9 62c-62.667 -35.333 -94 -69.666 -94 -102.999z" />
    <glyph glyph-name="E" unicode="E" horiz-adv-x="481" 
d="M234 349c-38.667 -27.333 -58.002 -67.9971 -58.002 -121.997c0 -34 12.167 -66 36.5 -96s65.5 -45 123.5 -45s113 19.667 165 59s91.333 82.333 118 129l34 -61c-86 -146 -205.667 -219 -359 -219c-76 0 -140.333 20.5 -193 61.5s-79 89.167 -79 144.5
c0 96.667 43 166.667 129 210c-28.667 35.333 -43 76.666 -43 123.999c0 62 26.833 115.333 80.5 160s115.834 67 186.501 67s125.167 -18 163.5 -54s57.5 -83.333 57.5 -142h-95c0.666992 36 -8.83301 63.167 -28.5 81.5s-47 27.5 -82 27.5s-66.5 -12.667 -94.5 -38
c-31.333 -27.333 -47 -59.333 -47 -96s10 -68.334 30 -95.001c66.667 8 117.334 3.66699 152.001 -13c21.333 -10 32 -25.833 32 -47.5s-12.167 -36.834 -36.5 -45.501s-53.5 -13 -87.5 -13s-69 7.66699 -105 23z" />
    <glyph glyph-name="F" unicode="F" horiz-adv-x="556" 
d="M457 589c-26.667 0 -63.666 4.33301 -110.999 13c-66.667 -50.667 -128.334 -76 -185.001 -76h-6c-40.667 0.666992 -72.5 11.5 -95.5 32.5s-34.5 49 -34.5 84s11.5 63.5 34.5 85.5s57.167 33 102.5 33c30 0 78 -10 144 -30c69.333 -20.667 121 -31 155 -31
c56 0 93 20 111 60l39 -27c-14.667 -96 -66 -144 -154 -144zM124.001 612c0 -16.667 14.332 -25 42.999 -25s63.667 10.667 105 32c-58.667 14.667 -99 22 -121 22c-7.33301 0 -13.666 -2.83301 -18.999 -8.5s-8 -12.5 -8 -20.5zM397 538l-15.999 -107.001h149
c6 -14 9 -27.667 9 -41s-6.33301 -24.5 -19 -33.5s-28.667 -13.5 -48 -13.5h-105l-1 -9c84 -40 126 -99.333 126 -178c0 -59.333 -15.667 -101.166 -47 -125.499s-68.333 -36.5 -111 -36.5s-75.667 10.833 -99 32.5s-35 50.5 -35 86.5c0 6 0.666992 13.667 2 23l27 207h-94
c4 38 7.33301 67.333 10 88h96l11 88c34.667 16.667 63.667 25 87 25s42.666 -2 57.999 -6zM365.001 84.999c16 0 30 5.83203 42 17.499s18 30.167 18 55.5c0 50 -22.667 88.333 -68 115c-10.667 -74 -16.167 -120.167 -16.5 -138.5s2 -31.166 7 -38.499
s10.833 -11 17.5 -11z" />
    <glyph glyph-name="G" unicode="G" horiz-adv-x="630" 
d="M331 -275c-37.333 0 -69.1699 11.5049 -95.5029 34.5049s-39.5 58.167 -39.5 105.5s22.667 91.666 68 132.999c-80.667 11.333 -140 42.5 -178 93.5s-57 117 -57 198s14.833 157 44.5 228s73.834 129.333 132.501 175s122.167 68.5 190.5 68.5s122 -16.5 161 -49.5
s58.5 -78.167 58.5 -135.5s-17 -103.5 -51 -138.5s-74.167 -52.5 -120.5 -52.5s-82.166 10.167 -107.499 30.5s-38 42 -38 65s9.16699 41 27.5 54s45.166 19.5 80.499 19.5c-8.66699 -8.66699 -13 -20.167 -13 -34.5s4.33301 -26.833 13 -37.5s21.834 -16 39.501 -16
s34.334 9.33301 50.001 28s23.5 44.167 23.5 76.5s-8.33301 57.5 -25 75.5s-42 27 -76 27c-45.333 0 -86.5 -18.333 -123.5 -55s-65.167 -83.334 -84.5 -140.001s-29 -116.334 -29 -179.001c0 -54 11.667 -101.667 35 -143c12 -21.333 29.833 -38.333 53.5 -51
s47 -19 70 -19s41.5 1 55.5 3l25 218h140l-22 -163c72 38 119.333 79.333 142 124l39 -55c-43.333 -66.667 -107.333 -117.334 -192 -152.001l-13 -108c-5.33301 -48.667 -15 -89.334 -29 -122.001s-30.5 -56.167 -49.5 -70.5s-36.5 -23.833 -52.5 -28.5s-33.667 -7 -53 -7z
M284.996 -131.995c0 -12 3.66699 -22.333 11 -31s15.833 -13 25.5 -13s17.167 1.66699 22.5 5s11 12 17 26s10.667 33.667 14 59l10 82c-66.667 -41.333 -100 -84 -100 -128z" />
    <glyph glyph-name="H" unicode="H" horiz-adv-x="725" 
d="M597.5 753.5c21.667 5 42.166 7.5 61.499 7.5s35.333 -2.66699 48 -8l-98 -753h-136l39 338l-13 -4c-61.333 -18 -117 -35.667 -167 -53l-14 -110c-16 -118 -71.333 -177 -166 -177c-34 0 -60.333 10.167 -79 30.5s-28 46.5 -28 78.5
c0 71.333 50.333 135.666 151 192.999l51 434c12.667 8.66699 29.334 16 50.001 22s40.667 9 60 9s32 -0.333008 38 -1l-52 -398c40.667 14.667 92 30.334 154 47.001l24 6l38 323c4 5.33301 16.833 10.5 38.5 15.5zM114.999 118
c0 -21.333 9.66504 -31.9971 28.998 -31.9971c10.667 0 17.667 3.16699 21 9.5s5.83301 11.666 7.5 15.999s3.16699 10.166 4.5 17.499s2.33301 13.833 3 19.5s1.33398 13.167 2.00098 22.5s1.33398 16.666 2.00098 21.999l2 15c-47.333 -32.667 -71 -62.667 -71 -90z" />
    <glyph glyph-name="I" unicode="I" horiz-adv-x="483" 
d="M556 648c-10.667 4.66699 -21.166 7 -31.499 7s-20.333 -6.33301 -30 -19s-16.167 -31 -19.5 -55l-52 -371c-9.33301 -67.333 -32.5 -120.333 -69.5 -159s-83.167 -58 -138.5 -58s-98.166 15.5 -128.499 46.5s-45.5 68 -45.5 111s14.833 79.5 44.5 109.5
s67.167 45 112.5 45c28 0 50 -2 66 -6l-5 -61c-11.333 2.66699 -28.833 4 -52.5 4s-44.667 -8 -63 -24s-27.5 -36 -27.5 -60s6.66699 -42.5 20 -55.5s29.333 -19.5 48 -19.5c56 0 88.667 41.333 98 124c18 165.333 31 277 39 335c-40 -14 -75.333 -21 -106 -21
c-48.667 0 -85.834 11.333 -111.501 34s-38.5 52.334 -38.5 89.001s13.167 65.5 39.5 86.5s59.5 31.5 99.5 31.5c24.667 0 60.167 -7.66699 106.5 -23s82.166 -23 107.499 -23c45.333 0 83.333 11.667 114 35c16.667 -23.333 25 -51 25 -83
c0 -6.66699 -0.333008 -13.334 -1 -20.001zM164.001 617c0 -10 5.49902 -18.667 16.499 -26s27.667 -11 50 -11s51.5 10 87.5 30c-26 6 -52.667 12.833 -80 20.5s-43.666 11.5 -48.999 11.5c-16.667 0 -25 -8.33301 -25 -25z" />
    <glyph glyph-name="J" unicode="J" horiz-adv-x="418" 
d="M512 646c-10.667 4.66699 -20.998 6.99902 -30.998 6.99902s-20 -6.33301 -30 -19s-16.667 -31 -20 -55l-50 -350c84 36.667 137.667 64 161 82l38 -66c-20 -15.333 -44 -29 -72 -41l-81 -33.5l-58 -23.5l-33 -234c-8.66699 -64 -31.5 -111.167 -68.5 -141.5
s-77.667 -45.5 -122 -45.5s-79.5 16.167 -105.5 48.5s-39 68.5 -39 108.5c0 104.667 76.667 197.667 230 279l10 81c12.667 114.667 25.667 214.334 39 299.001c-38 -15.333 -77.833 -23 -119.5 -23s-75.334 11.333 -101.001 34s-38.5 52.334 -38.5 89.001
s13.167 65.5 39.5 86.5s59.5 31.5 99.5 31.5c24.667 0 60.167 -7.66699 106.5 -23s82.166 -23 107.499 -23c45.333 0 83.333 11.667 114 35c16.667 -23.333 25 -51 25 -83c0 -6.66699 -0.333008 -13.334 -1 -20.001zM120.002 614.999c0 -10 5.49902 -18.667 16.499 -26
s27.667 -11 50 -11s51.5 10 87.5 30c-26 6 -52.667 12.833 -80 20.5s-43.666 11.5 -48.999 11.5c-16.667 0 -25 -8.33301 -25 -25zM220.001 74.999c-95.333 -57.333 -143 -118 -143 -182c0 -18 4.66699 -33.333 14 -46c10.667 -14.667 24.167 -22 40.5 -22s30.5 5 42.5 15
s19.333 26 22 48z" />
    <glyph glyph-name="K" unicode="K" horiz-adv-x="682" 
d="M745 215l31.998 -49.001c-10 -36 -23.667 -66.333 -41 -91s-35.666 -42.334 -54.999 -53.001c-34 -18.667 -66.333 -28 -97 -28c-53.333 0 -92.833 15.5 -118.5 46.5s-39.167 72.5 -40.5 124.5c-2 84 -7 136.333 -15 157s-26.333 32.334 -55 35.001l7 75
c12 2 21.333 4.66699 28 8s15.334 10 26.001 20c22.667 20 39.334 67 50.001 141c8.66699 56 26.5 96.667 53.5 122s56.167 38 87.5 38s59 -9.16699 83 -27.5s36 -47.833 36 -88.5c0 -54 -19.5 -100.667 -58.5 -140s-93.167 -75 -162.5 -107
c24 -11.333 41.667 -30.333 53 -57s17.666 -54.667 18.999 -84s2.33301 -57.666 3 -84.999c2.66699 -64 21.667 -96 57 -96c41.333 0 77.333 46.333 108 139zM121.998 -6.00098c-35.333 0 -63.667 10.668 -85 32.001s-32 48.666 -32 81.999c0 78 59 145 177 201l20 167
c16.667 148 26.667 234 30 258c27.333 17.333 55.833 26 85.5 26s52.167 -1.66699 67.5 -5l-74 -565c-20 -130.667 -83 -196 -189 -196zM647.497 645c-5.66699 5.33301 -11.168 8 -16.501 8s-9.5 -0.666992 -12.5 -2s-5.66699 -3.5 -8 -6.5s-4.16602 -6 -5.49902 -9
s-2.83301 -7.5 -4.5 -13.5s-3 -11.167 -4 -15.5s-2.5 -10.5 -4.5 -18.5l-8 -32.5c-3.33301 -13.667 -7.33301 -27.5 -12 -41.5c56 36 84 72 84 108c0 10 -2.83301 17.667 -8.5 23zM78.9961 121c0 -24 11.334 -36 34.001 -36c9.33301 0 19.166 6.16699 29.499 18.5
s17.5 31.833 21.5 58.5l8 62c-62 -36 -93 -70.333 -93 -103z" />
    <glyph glyph-name="L" unicode="L" horiz-adv-x="464" 
d="M387 87c7.33301 -2.66699 15.501 -4 24.501 -4s17.667 1 26 3s16 6.83301 23 14.5l16.5 18.5c4 4.66699 9 15 15 31c7.33301 18.667 16.333 45 27 79c28 -26 44.667 -45.667 50 -59c-32 -117.333 -88.333 -176 -169 -176c-38 0 -86.333 24.667 -145 74
c-30.667 -49.333 -78.334 -74 -143.001 -74c-28.667 0 -54.5 9.66699 -77.5 29s-34.5 47 -34.5 83s12 65.5 36 88.5s55 34.5 93 34.5c7.33301 0 17.666 -0.666992 30.999 -2l14 127c-29.333 -9.33301 -74.666 -21.333 -135.999 -36v75c50 11.333 98 24 144 38l20 163
c14 111.333 70.667 167 170 167c39.333 0 70.833 -10.833 94.5 -32.5s35.5 -52.167 35.5 -91.5c0 -94.667 -61 -171 -183 -229l-30 -236l-1 -10c49.333 -44 82.333 -69 99 -75zM427.001 629c0 28 -11.667 42 -35 42c-28 0 -45.667 -33 -53 -99l-10 -79
c65.333 38.667 98 84 98 136zM76.001 113c0 -20 11.333 -30 34 -30c22 0 35.667 19.667 41 59c-12.667 5.33301 -24.5 8 -35.5 8s-20.333 -3.66699 -28 -11s-11.5 -16 -11.5 -26z" />
    <glyph glyph-name="M" unicode="M" horiz-adv-x="810" 
d="M660 754c14 5.33301 33.668 7.99805 59.001 7.99805s48 -1.66699 68 -5c-20.667 -153.333 -36.834 -292.166 -48.501 -416.499s-18 -189.833 -19 -196.5s-1.5 -12.667 -1.5 -18c0.666992 -17.333 9 -26 25 -26c40 0 95.667 46 167 138c12.667 -35.333 20 -59 22 -71
c-32 -50.667 -70.5 -92.167 -115.5 -124.5s-87.5 -48.5 -127.5 -48.5s-67.667 10.333 -83 31s-23 43.667 -23 69c0 6 0.833008 17.667 2.5 35s14.834 125.333 39.501 324l-164 -379h-85l-49 373l-70 -310c-11.333 -49.333 -29.833 -85.666 -55.5 -108.999
s-53.834 -35 -84.501 -35s-55.667 9 -75 27c-20.667 19.333 -31 46.666 -31 81.999c0 70.667 54.667 131 164 181c59.333 284.667 91.333 442.334 96 473.001c16 4 37.5 6 64.5 6s45.5 -0.666992 55.5 -2h7l62 -465l200 454v5zM82.001 118.998
c0 -21.333 8.33398 -32 25.001 -32c11.333 0 20.666 9 27.999 27c9.33301 22 17 51 23 87c-50.667 -28.667 -76 -56 -76 -82z" />
    <glyph glyph-name="N" unicode="N" horiz-adv-x="730" 
d="M636 727c22 22.667 50.9971 34.001 86.9971 34.001s62.5 -10.5 79.5 -31.5s25.5 -42.167 25.5 -63.5c0 -6.66699 -0.666992 -13.334 -2 -20.001c-14.667 -74 -63.667 -131.667 -147 -173l-70 -473h-168l-119 527l-55 -390c-7.33301 -49.333 -22.5 -85.666 -45.5 -108.999
s-49.833 -35 -80.5 -35s-56.167 9 -76.5 27s-32.833 43.667 -37.5 77c-0.666992 5.33301 -1 10.666 -1 15.999c0 66 49.667 122.667 149 170l43 322c16.667 7.33301 31.167 11 43.5 11s22.833 -1 31.5 -3c-15.333 24 -39.666 36 -72.999 36s-62.666 -17.333 -87.999 -52
l-19 86c12.667 17.333 34.834 34.833 66.501 52.5s66.667 26.5 105 26.5s70.833 -11.5 97.5 -34.5s46 -61.5 58 -115.5l94 -396l58 400c7.33301 51.333 22 88.333 44 111zM691.997 559.001c41.333 29.333 62.001 56.667 62.001 82c0 4.66699 -1.66699 10 -5 16
s-8.33301 9 -15 9c-12.667 0 -21.334 -7 -26.001 -21c-6.66699 -19.333 -12 -48 -16 -86zM95.998 124.002c0 -24.667 9 -37.001 27 -37.001c12 0 20.667 7.83301 26 23.5s10.333 43.834 15 84.501l1 5c-46 -26 -69 -51.333 -69 -76z" />
    <glyph glyph-name="O" unicode="O" horiz-adv-x="747" 
d="M925 402c-15.333 -16.667 -40.6709 -31.498 -76.0039 -44.498s-63.5 -19.5 -84.5 -19.5s-36.5 0.666992 -46.5 2c-16.667 -98.667 -59.167 -181 -127.5 -247s-147.666 -99 -237.999 -99s-158.333 28 -204 84s-68.5 129 -68.5 219c0 58.667 9 115.834 27 171.501
s42.833 105.167 74.5 148.5s71.5 78.166 119.5 104.499s98.167 39.5 150.5 39.5s95.333 -11.833 129 -35.5s50.5 -56.5 50.5 -98.5c0 -32 -11.167 -60.5 -33.5 -85.5s-53.166 -37.5 -92.499 -37.5c-20.667 0 -39 5.16699 -55 15.5s-24 26.833 -24 49.5
c0 10.667 2.66699 20 8 28s10.666 13 15.999 15l9 4c0 -26.667 10.667 -40 32 -40c10 0 18.667 3.5 26 10.5s11.333 14.833 12 23.5s0.333984 15.5 -0.999023 20.5s-4 10.833 -8 17.5c-9.33301 16.667 -29 25 -59 25c-39.333 0 -76.666 -18.667 -111.999 -56
s-63.5 -85.333 -84.5 -144s-31.5 -118.667 -31.5 -180c0 -51.333 8.33301 -97 25 -137c9.33301 -21.333 23 -38.166 41 -50.499s39.667 -18.5 65 -18.5c42 0 79.5 17.667 112.5 53s57.333 78 73 128s23.5 100.667 23.5 152v12c-2 7.33301 -3 14.333 -3 21
c0 32 11.333 56.333 34 73c14.667 10.667 33 16 55 16c6 0 15.667 -1 29 -3s22.666 -5 27.999 -9c-14 -0.666992 -24.833 -5.33398 -32.5 -14.001s-11.5 -20.334 -11.5 -35.001s6.66699 -28.334 20 -41.001c18.667 -18 47.834 -27 87.501 -27s80.834 16.333 123.501 49z" />
    <glyph glyph-name="P" unicode="P" horiz-adv-x="619" 
d="M19 545c0 64 28.3291 116 84.9961 156s132.334 60 227.001 60c56.667 0 106.334 -6.5 149.001 -19.5s75.334 -30.833 98.001 -53.5c45.333 -44.667 68 -96 68 -154s-23.167 -106.5 -69.5 -145.5s-105.5 -58.5 -177.5 -58.5c-8 0 -20 0.666992 -36 2l9 73
c88.667 0 133 41.667 133 125c0 38.667 -16.333 71.334 -49 98.001c-34 28 -84.667 42 -152 42s-120.666 -17.333 -159.999 -52c-23.333 -20 -35 -41.667 -35 -65c0 -44 26.333 -69 79 -75l-12 -74c-46 2 -83.667 16.667 -113 44s-44 59.666 -44 96.999zM370.996 618
l-44 -286.001c84.667 -40.667 127 -100.667 127 -180c0 -58 -15.167 -98.833 -45.5 -122.5s-66.833 -35.5 -109.5 -35.5s-76 11 -100 33s-36 51.667 -36 89c0 8.66699 0.333008 15.334 1 20.001l60 463c34.667 16.667 64 25 88 25s43.667 -2 59 -6zM327.996 84.999
c16 0 29.833 5.66797 41.5 17.001s17.5 30.333 17.5 57c0 47.333 -22.667 84.666 -68 111.999c-10.667 -78 -16 -124.833 -16 -140.5s2.5 -27.167 7.5 -34.5s10.833 -11 17.5 -11z" />
    <glyph glyph-name="Q" unicode="Q" horiz-adv-x="729" 
d="M543 425c0 18 -2.33594 32.666 -7.00293 43.999c6.66699 10 17.167 18.167 31.5 24.5s28 9.5 41 9.5s24.5 -2 34.5 -6c34 -16.667 51 -46.667 51 -90c0 -115.333 -39.667 -215 -119 -299c19.333 -20.667 37.333 -31 54 -31c28 0 42 13.667 42 41c0 7.33301 -1 15 -3 23
c31.333 -14.667 47 -36.5 47 -65.5s-9.33301 -50.5 -28 -64.5s-41 -21 -67 -21c-38.667 0 -75.667 21 -111 63c-60.667 -39.333 -125 -59 -193 -59c-86 0 -151.833 28 -197.5 84s-68.5 129 -68.5 219c0 58.667 9 115.834 27 171.501s42.833 105.167 74.5 148.5
s71.5 78.166 119.5 104.499s98.167 39.5 150.5 39.5s95.333 -11.833 129 -35.5s50.5 -56.5 50.5 -98.5c0 -32 -11.167 -60.5 -33.5 -85.5s-53.166 -37.5 -92.499 -37.5c-20.667 0 -39 5.16699 -55 15.5s-24 26.833 -24 49.5c0 10.667 2.66699 20 8 28s10.666 13 15.999 15
l9 4c0 -26.667 10.667 -40 32 -40c10 0 18.667 3.5 26 10.5s11.333 14.833 12 23.5s0.333984 15.5 -0.999023 20.5s-4 10.833 -8 17.5c-9.33301 16.667 -29 25 -59 25c-39.333 0 -76.666 -18.667 -111.999 -56s-63.5 -85.333 -84.5 -144s-31.5 -118.667 -31.5 -180
c0 -51.333 8.33301 -97 25 -137c9.33301 -21.333 23 -38.166 41 -50.499s39.667 -18.5 65 -18.5c42 0 79.333 18 112 54c-35.333 54 -65.333 81 -90 81c-3.33301 0 -12 -2.33301 -26 -7l15 53c13.333 11.333 29 17 47 17c32.667 0 67.334 -23.333 104.001 -70
c31.333 64 47 134 47 210z" />
    <glyph glyph-name="R" unicode="R" horiz-adv-x="669" 
d="M747 215l31.9961 -49.0059c-32.667 -114.667 -100.334 -172 -203.001 -172c-23.333 0 -43.5 4.33301 -60.5 13s-29.833 19 -38.5 31s-15.667 27.333 -21 46c-7.33301 28 -11.166 65 -11.499 111s-6 77.667 -17 95s-31.833 27 -62.5 29l11 85h3c38.667 0 70.667 11 96 33
c27.333 24.667 41 56.334 41 95.001s-18.167 71.334 -54.5 98.001s-83.166 40 -140.499 40c-74 0 -131 -18.333 -171 -55c-21.333 -20 -32 -44 -32 -72c0 -35.333 27 -56.666 81 -63.999l-14 -75c-40.667 2 -76.667 15.667 -108 41s-47 58 -47 98
c0 70 29.333 123.833 88 161.5s133 56.5 223 56.5c58 0 109 -7 153 -21c75.333 -25.333 125.333 -69.333 150 -132c8 -22 12 -39.833 12 -53.5v-27.5c-2.66699 -36.667 -16.167 -72.667 -40.5 -108s-60.833 -59.666 -109.5 -72.999c29.333 -6 49.333 -18.667 60 -38
s16.334 -48.666 17.001 -87.999c0.666992 -67.333 3.83398 -108.166 9.50098 -122.499s17.5 -21.5 35.5 -21.5c48.667 0 88.334 46.333 119.001 139zM133.996 -6.00586c-35.333 0 -63.668 10.667 -85.001 32s-32 47.666 -32 78.999c0 81.333 59.667 149.333 179 204
c24 186.667 36.333 282.334 37 287.001c28 18 59.667 27 95 27c14.667 0 31.334 -2 50.001 -6l-63 -427c-20 -130.667 -80.333 -196 -181 -196zM90.9941 116.994c0 -21.333 11.333 -32 34 -32c26.667 0 43.667 24 51 72l9 68c-62.667 -36.667 -94 -72.667 -94 -108z" />
    <glyph glyph-name="S" unicode="S" horiz-adv-x="488" 
d="M418 504c20 30 29.9971 58.002 29.9971 84.002s-7.33301 46.667 -22 62s-34 23 -58 23s-43.333 -5.83301 -58 -17.5s-22 -30 -22 -55s17.333 -69.833 52 -134.5s56.667 -106.334 66 -125.001c25.333 -50.667 38 -99.667 38 -147c0 -59.333 -21.5 -107.5 -64.5 -144.5
s-93.667 -55.5 -152 -55.5s-104.166 18.167 -137.499 54.5s-50 78.833 -50 127.5c0 90 55.667 164.333 167 223c-45.333 89.333 -68 151.666 -68 186.999c0 49.333 19.833 91.166 59.5 125.499s88.334 51.5 146.001 51.5s101.834 -14.667 132.501 -44
s46 -66.666 46 -111.999c0 -30 -10 -64.333 -30 -103h-75zM221.497 85.002c25.667 0 45.666 7.5 59.999 22.5s21.5 37.167 21.5 66.5c0 26.667 -10.333 59.334 -31 98.001l-15 29.5c-7.33301 14.333 -12.666 24.5 -15.999 30.5c-74.667 -38.667 -112 -87.334 -112 -146.001
c0 -30 9 -54 27 -72c18 -19.333 39.833 -29 65.5 -29z" />
    <glyph glyph-name="T" unicode="T" horiz-adv-x="404" 
d="M198 566c-27.333 -20 -57 -30.002 -89 -30.002s-58.167 9.33301 -78.5 28s-30.5 46.334 -30.5 83.001s16.333 64.834 49 84.501s71 29.5 115 29.5h397c2 -9.33301 3 -18.333 3 -27c0 -22.667 -7.33301 -43.667 -22 -63s-37 -29 -67 -29h-3h-212
c-14 -30.667 -34.667 -56 -62 -76zM130 641.998c-24.667 0 -37 -8.66699 -37 -26c0 -14 10.667 -21 32 -21c10 0 21.833 4.33301 35.5 13s25.167 20 34.5 34h-65zM160 -4.00195c-36 0 -64.833 11 -86.5 33s-32.5 49.667 -32.5 83c0 78 59.333 144.667 178 200l35 266
c27.333 17.333 59 26 95 26c16.667 0 32.667 -1.66699 48 -5l-60 -407c-16.667 -130.667 -75.667 -196 -177 -196zM115 122.998c0 -24 11.666 -36 34.999 -36c26.667 0 43.334 25.667 50.001 77l8 63c-62 -36 -93 -70.667 -93 -104z" />
    <glyph glyph-name="U" unicode="U" horiz-adv-x="602" 
d="M479.5 753.5c21.667 5 42.1689 7.49805 61.502 7.49805s35.333 -2.66699 48 -8c-48.667 -389.333 -73 -590.666 -73 -603.999s4.16699 -25.166 12.5 -35.499s20.5 -15.5 36.5 -15.5c44 0 83.333 60.333 118 181c0 1.33301 0.333008 3 1 5s1 3.33301 1 4
c29.333 -18.667 48.333 -30.334 57 -35.001c-22 -84 -49.333 -148.167 -82 -192.5s-74.667 -66.5 -126 -66.5s-86 24.333 -104 73h-3c-20.667 -26 -43.667 -44.667 -69 -56s-57 -17 -95 -17c-62.667 0 -110.834 16.333 -144.501 49s-50.5 79.334 -50.5 140.001
c0 12.667 1 26.667 3 42l28 234c-66 46.667 -99 101.667 -99 165c0 42 12.667 75.333 38 100s57.666 37 96.999 37c82 0 123 -43.333 123 -130c0 -14 -1 -29.667 -3 -47l-51 -391c-0.666992 -4.66699 -1 -11.667 -1 -21c0 -26 6 -47 18 -63s30.333 -24 55 -24
c59.333 0 94.333 46 105 138l60 515c4 5.33301 16.833 10.5 38.5 15.5zM98.002 668.998c-22.667 0 -34 -13.833 -34 -41.5s15.333 -54.834 46 -81.501l3 26c4 34.667 6.33301 56.334 7 65.001c0 21.333 -7.33301 32 -22 32z" />
    <glyph glyph-name="V" unicode="V" horiz-adv-x="673" 
d="M700 761c31.333 0 56.168 -9.16602 74.501 -27.499s27.5 -41.5 27.5 -69.5c0 -50.667 -18 -92 -54 -124s-83.667 -62 -143 -90l-172 -450h-166c-22.667 317.333 -36.167 501.833 -40.5 553.5s-9 82.167 -14 91.5s-14.5 14 -28.5 14
c-35.333 0 -71.666 -62.333 -108.999 -187c-32 15.333 -54.333 26.666 -67 33.999c34 110 72.667 183.667 116 221c29.333 25.333 64.333 38 105 38c36.667 0 65 -12 85 -36s33.333 -70.667 40 -140c3.33301 -36.667 8.16602 -108.5 14.499 -215.5
s10.833 -177.833 13.5 -212.5h6l153 425c22 62 40.667 103 56 123c25.333 34.667 59.666 52 102.999 52zM734.002 635.001c0 8.66699 -2.66797 15.667 -8.00098 21s-12.5 8 -21.5 8s-16.667 -7 -23 -21s-20.166 -48 -41.499 -102c62.667 32.667 94 64 94 94z" />
    <glyph glyph-name="W" unicode="W" horiz-adv-x="827" 
d="M558 693l-1 -12.999c-25.333 -194.667 -42 -314.667 -50 -360c-13.333 -74.667 -20 -131.5 -20 -170.5s16.667 -58.5 50 -58.5c28 0 53 20.167 75 60.5s38.667 90.5 50 150.5c23.333 125.333 35 233.666 35 324.999c0 42.667 -3.66699 79.667 -11 111
c26.667 16 58.667 24 96 24s56 -22 56 -66c0 -68.667 -10.667 -173 -32 -313c-17.333 -116.667 -41.333 -202.334 -72 -257.001c-14 -23.333 -30 -45.666 -48 -66.999c-37.333 -43.333 -89.5 -65 -156.5 -65s-114.833 28.667 -143.5 86
c-36.667 -57.333 -92.334 -86 -167.001 -86c-48 0 -85.167 13.833 -111.5 41.5s-39.5 64.5 -39.5 110.5c0 6 0.666992 15 2 27l37 282c-71.333 51.333 -107 109 -107 173c0 40.667 14 73 42 97s62 36 102 36c87.333 0 131 -43.333 131 -130c0 -1.33301 -0.166992 -3 -0.5 -5
s-0.666016 -5.16699 -0.999023 -9.5s-1 -9.33301 -2 -15s-2.33301 -14.167 -4 -25.5l-5.5 -37.5l-8 -54.5l-10.5 -73.5l-13.5 -96.5l-14 -97c-4 -26.667 -6 -46 -6 -58c0 -44.667 17.333 -67 52 -67c48 0 77.667 43.667 89 131l64 505c22 10 48.333 15 79 15
c42.667 0 64 -16.667 64 -50zM105 681.001c-12.667 0 -22 -4.66699 -28 -14s-9 -20 -9 -32c0 -30 16.667 -61 50 -93l5 40c2.66699 22 4.16699 44 4.5 66s-7.16699 33 -22.5 33z" />
    <glyph glyph-name="X" unicode="X" horiz-adv-x="736" 
d="M83 697c33.333 51.333 81 77 143 77c26 0 52.167 -8.66699 78.5 -26s47.5 -50.666 63.5 -99.999l49 -154l69 118c26.667 45.333 49 78 67 98c32.667 35.333 65.334 53 98.001 53s59.5 -9.66699 80.5 -29s31.5 -42.666 31.5 -69.999
c0 -48.667 -19.667 -89.334 -59 -122.001c-34.667 -30 -103.334 -54.667 -206.001 -74l-48 -77l63 -191.5c14 -41.667 26.833 -71.167 38.5 -88.5s24.667 -26 39 -26s26.833 2.33301 37.5 7s19 9.5 25 14.5s12.833 11 20.5 18s12.5 11.167 14.5 12.5l13 -74
c-8.66699 -12.667 -27 -27.334 -55 -44.001s-56.667 -25 -86 -25c-50 0 -89.833 12.167 -119.5 36.5s-56.167 75.166 -79.5 152.499l-21 70l-60 -102c-34 -58.667 -59.333 -96.667 -76 -114c-26.667 -28.667 -54.667 -43 -84 -43s-55 9.33301 -77 28s-33 43 -33 73
s6.5 56 19.5 78s31.833 40.333 56.5 55c44 24.667 101.667 44 173 58c17.333 28 33.333 52.667 48 74l-67 224c-2.66699 7.33301 -6.16699 18.333 -10.5 33s-7.83301 25.334 -10.5 32.001s-6.33398 14 -11.001 22c-8.66699 14.667 -22.167 20 -40.5 16
s-42.166 -24.667 -71.499 -62zM687 632c0 18 -12 27 -36 27c-16 0 -30.167 -7.16699 -42.5 -21.5s-24 -30.833 -35 -49.5s-17 -28.667 -18 -30s-2 -3 -3 -5s-2.16699 -4 -3.5 -6c92 22 138 50.333 138 85zM122 98c12.667 0 25 8.00098 37 24.001
c15.333 21.333 33.333 49.666 54 84.999c-84.667 -20.667 -127 -48 -127 -82c0 -18 12 -27 36 -27z" />
    <glyph glyph-name="Y" unicode="Y" horiz-adv-x="644" 
d="M313 643l-1 -17.0039c-2 -31.333 -11.333 -108.666 -28 -231.999c-20.667 -148 -31 -225.333 -31 -232c0 -20 6.33301 -36.833 19 -50.5s29.5 -20.5 50.5 -20.5s40.333 7.16699 58 21.5s31.167 31.5 40.5 51.5l56 511c3.33301 30.667 15.833 52.834 37.5 66.501
s44.5 20.5 68.5 20.5c16 0 32.667 -3.33301 50 -10l-67 -554c88 40.667 142.333 64.667 163 72l15 -70c-58.667 -24 -121 -51.667 -187 -83l-25 -204c-4 -36 -12.833 -66.833 -26.5 -92.5s-30.167 -45.167 -49.5 -58.5c-35.333 -24 -73.833 -36 -115.5 -36
s-76.334 15.167 -104.001 45.5s-41.5 66.833 -41.5 109.5s14 81.334 42 116.001c-35.333 6 -64.666 21.5 -87.999 46.5s-35 55.833 -35 92.5c0 4 0.666992 11.333 2 22l32 246c-82 52 -123 116 -123 192c0 70.667 25.667 119.334 77 146.001c24 13.333 51.5 20 82.5 20
s60.167 -9.83301 87.5 -29.5s41 -49.5 41 -89.5zM147 680.996c-16 0 -29.167 -7.66797 -39.5 -23.001s-15.5 -33.666 -15.5 -54.999c0 -46.667 22 -85 66 -115l19 144c0 27.333 -6.66699 43.333 -20 48c-2.66699 0.666992 -6 1 -10 1zM271 -106.005c0 -22 5.5 -39 16.5 -51
s24.167 -18 39.5 -18s29 5.5 41 16.5s19.333 26.5 22 46.5l18 157c-91.333 -50 -137 -100.333 -137 -151z" />
    <glyph glyph-name="Z" unicode="Z" horiz-adv-x="535" 
d="M553.5 210c24.333 -22 36.5 -49.6699 36.5 -83.0029s-12.667 -62.833 -38 -88.5s-63.666 -38.5 -114.999 -38.5h-408c-6.66699 16.667 -10 34.334 -10 53.001s7 37.334 21 56.001l347 533h-34c-18 -35.333 -43.667 -64.666 -77 -87.999s-70.5 -35.166 -111.5 -35.499
s-73.667 10.5 -98 32.5s-36.5 49.667 -36.5 83s12.667 62.833 38 88.5s63.666 38.5 114.999 38.5h398c3.33301 -11.333 5 -22.666 5 -33.999c0 -20.667 -6.33301 -39.667 -19 -57l-357 -551h57c18 35.333 43.667 64.666 77 87.999s70.5 35.166 111.5 35.499
s73.667 -10.5 98 -32.5zM182 641.997c-43.333 0 -65 -10.333 -65 -31s20.333 -31 61 -31s75.667 20.667 105 62h-101zM438 118.997c43.333 0 65 10.333 65 31s-20.333 31 -61 31s-75.667 -20.667 -105 -62h101z" />
    <glyph glyph-name="bracketleft" unicode="[" horiz-adv-x="446" 
d="M19 -125v2h-1l116 882v1h292l-11 -75h-209l-95 -735h211l-9 -75h-294z" />
    <glyph glyph-name="backslash" unicode="\" horiz-adv-x="520" 
d="M20 761h83l397 -861h-83z" />
    <glyph glyph-name="bracketright" unicode="]" horiz-adv-x="448" 
d="M425 761v-2h1l-116 -882v-1h-292l11 75h209l95 735h-211l9 75h294z" />
    <glyph glyph-name="asciicircum" unicode="^" 
d="M330 527l-173 -320h-97l292 513l218 -513h-97z" />
    <glyph glyph-name="underscore" unicode="_" horiz-adv-x="560" 
d="M10 -1h550l-11 -86h-549z" />
    <glyph glyph-name="grave" unicode="`" horiz-adv-x="238" 
d="M101 737l127 -187c-17.333 -20 -30 -32.333 -38 -37l-180 133c11.333 16 26 33.5 44 52.5s33.667 31.833 47 38.5z" />
    <glyph glyph-name="a" unicode="a" horiz-adv-x="548" 
d="M478 -5c-61.333 0 -102 21.332 -122 63.999c-34.667 -43.333 -79.167 -65 -133.5 -65s-100 18.333 -137 55s-55.5 85 -55.5 145c0 87.333 25.667 157 77 209s116.333 78 195 78h6c33.333 0 64 -5.66699 92 -17c18 11.333 39.833 17 65.5 17s44.167 -3.33301 55.5 -10
c-6 -49.333 -12.333 -97.833 -19 -145.5l-14 -101.5c-6 -45.333 -9 -78 -9 -98c0 -26.667 10.667 -40 32 -40c16.667 0 34.334 11.167 53.001 33.5s35 57.5 49 105.5c19.333 -17.333 32.666 -36.666 39.999 -57.999c-19.333 -63.333 -45.333 -107.833 -78 -133.5
s-65 -38.5 -97 -38.5zM317 402.999c-42.667 0 -76.501 -16.167 -101.501 -48.5s-39.833 -80.5 -44.5 -144.5c-0.666992 -6 -1 -11.667 -1 -17c0 -32.667 7.83301 -58.667 23.5 -78s35.834 -29 60.501 -29c42 0 73.667 29.667 95 89l24 216c-19.333 8 -38 12 -56 12z" />
    <glyph glyph-name="b" unicode="b" horiz-adv-x="512" 
d="M450 423c34.667 -39.333 51.998 -85.332 51.998 -137.999c0 -7.33301 -0.333008 -15 -1 -23c-7.33301 -87.333 -36.666 -153.833 -87.999 -199.5s-118.333 -68.5 -201 -68.5c-33.333 1.33301 -62.333 7.33301 -87 18s-43 24 -55 40c-22.667 29.333 -34 55.5 -34 78.5
s3.33301 60.167 10 111.5c14 105.333 34 275.666 60 510.999c14 5.33301 32.667 8 56 8c53.333 0 80 -15.333 80 -46l-34 -266c31.333 22 70.833 33 118.5 33s88.834 -19.667 123.501 -59zM188.498 98.501c11.667 -10.333 27.833 -15.5 48.5 -15.5c34 0 62 15.667 84 47
c26.667 38 40 87.333 40 148c0 29.333 -6.66699 55.333 -20 78s-34 34 -62 34c-38 0 -67 -22.667 -87 -68l-8 -60c-8.66699 -67.333 -13 -108.833 -13 -124.5s5.83301 -28.667 17.5 -39z" />
    <glyph glyph-name="c" unicode="c" horiz-adv-x="469" 
d="M346 339c0 43.333 -19.332 65 -57.999 65c-28.667 0 -54.334 -16.333 -77.001 -49c-24 -35.333 -36 -76.666 -36 -123.999s10.5 -83.833 31.5 -109.5s49.833 -38.5 86.5 -38.5c44 0 90.5 18 139.5 54s88.5 80.667 118.5 134c13.333 -10 26.333 -28.333 39 -55
c-19.333 -38.667 -55.333 -82 -108 -130c-27.333 -25.333 -61.333 -46.666 -102 -63.999c-44 -18.667 -88 -28 -132 -28c-59.333 0 -109.5 20.333 -150.5 61s-61.5 93.667 -61.5 159c0 79.333 26.667 143.666 80 192.999s113 74 179 74c51.333 0 92 -10.667 122 -32
s45 -49.333 45 -84c0 -22.667 -8 -42.334 -24 -59.001c-29.333 -29.333 -65 -44 -107 -44c10 33.333 15 59 15 77z" />
    <glyph glyph-name="d" unicode="d" horiz-adv-x="548" 
d="M446.5 749.5c16.333 7.66699 36 11.5 59 11.5s40.167 -3.33301 51.5 -10l-32 -245c-30.667 -232.667 -46 -360.834 -46 -384.501s10 -35.5 30 -35.5c17.333 0 35.333 10.833 54 32.5s35.667 57.167 51 106.5c18.667 -18 31.667 -37.667 39 -59
c-24 -79.333 -61.667 -130.666 -113 -153.999c-23.333 -11.333 -45.333 -17 -66 -17c-59.333 0 -99 21.333 -119 64c-34.667 -43.333 -79 -65 -133 -65s-99.5 18.333 -136.5 55s-55.5 85 -55.5 145c0 87.333 25.667 157 77 209s116.333 78 195 78h6c27.333 0 53 -4 77 -12
l30 252c4.66699 11.333 15.167 20.833 31.5 28.5zM317 403c-42.667 0 -76.501 -16.167 -101.501 -48.5s-39.833 -80.5 -44.5 -144.5c-0.666992 -6 -1 -11.667 -1 -17c0 -32.667 7.83301 -58.667 23.5 -78s35.834 -29 60.501 -29c42 0 73.667 29.667 95 89l26 215
c-22 8.66699 -41.333 13 -58 13z" />
    <glyph glyph-name="e" unicode="e" horiz-adv-x="466" 
d="M311.5 274c20.333 24.667 30.502 48.499 30.502 71.499s-6.16699 38.667 -18.5 47s-25.833 12.5 -40.5 12.5c-31.333 0 -58.833 -17.5 -82.5 -52.5s-35.5 -76.667 -35.5 -125s11.5 -84.333 34.5 -108s51.5 -35.5 85.5 -35.5c50 0 98 17.333 144 52s83.333 80 112 136
c14.667 -14 28 -31.333 40 -52c-22 -50 -61 -99 -117 -147c-28 -23.333 -61.167 -42.333 -99.5 -57s-77.833 -22 -118.5 -22c-66.667 0 -119.334 20.333 -158.001 61c-41.333 44 -62 100.333 -62 169s25.833 128.667 77.5 180s113.5 77 185.5 77
c51.333 0 93 -11.167 125 -33.5s48.333 -52.5 49 -90.5c0 -51.333 -20.5 -93 -61.5 -125s-97.167 -54.333 -168.5 -67l-14 59c41.333 8.66699 72.166 25.334 92.499 50.001z" />
    <glyph glyph-name="f" unicode="f" horiz-adv-x="403" 
d="M303 -1c36.667 -64.667 55.002 -118.171 55.002 -160.504s-12.833 -76.666 -38.5 -102.999s-59.167 -39.5 -100.5 -39.5s-75.166 11.5 -101.499 34.5s-39.5 54.833 -39.5 95.5c0 8 1.33301 24 4 48l31 270l-97 126c22.667 31.333 41.667 47 57 47
c7.33301 0 14.166 -3.66699 20.499 -11s17.166 -21 32.499 -41l38 336c5.33301 44 16 79.667 32 107c21.333 35.333 60.666 53 117.999 53c40.667 0 71.667 -11.167 93 -33.5s32 -53.166 32 -92.499c0 -52.667 -17.167 -104.667 -51.5 -156s-74.166 -96.333 -119.499 -135
l-25 -241c11.333 -12.667 27.333 -19 48 -19c41.333 0 75.833 17.5 103.5 52.5s51.834 84.5 72.501 148.5c9.33301 -5.33301 19.166 -12.166 29.499 -20.499s16.166 -14.166 17.499 -17.499c-15.333 -74 -42 -131.333 -80 -172s-81.667 -66 -131 -76zM350.002 673.996
c-3.33301 0.666992 -6.66797 1 -10.001 1c-18 0 -30 -11.667 -36 -35s-13.333 -77 -22 -161l-4 -38c28.667 29.333 51.834 60.5 69.501 93.5s26.5 63 26.5 90s-8 43.5 -24 49.5zM216 -152.004c-0.666992 -3.33301 -1 -10.499 -1 -21.499s3.33301 -20.167 10 -27.5
s15.5 -11 26.5 -11s20.833 4.5 29.5 13.5s13 22.833 13 41.5c0 35.333 -21 83.666 -63 144.999z" />
    <glyph glyph-name="g" unicode="g" horiz-adv-x="532" 
d="M302 481c36.667 0 70.333 -5.99805 101 -17.998c20.667 12.667 42.334 19 65.001 19s40.667 -3 54 -9l-36 -282c49.333 38 86.666 72.667 111.999 104l29 -61c-38 -40 -88.667 -82.667 -152 -128l-27 -209c-7.33301 -62.667 -27.833 -110.834 -61.5 -144.501
s-77.167 -50.5 -130.5 -50.5c-30.667 0 -60.667 10 -90 30c-30.667 21.333 -46 55.666 -46 102.999c0 58 27.667 111 83 159c-47.333 3.33301 -88 23 -122 59s-51 83 -51 141c0 87.333 25.667 157 77 209s116.333 78 195 78zM316.999 403.002
c-42.667 0 -76.501 -16.167 -101.501 -48.5s-39.833 -80.5 -44.5 -144.5c-0.666992 -6 -1 -11.667 -1 -17c0 -32.667 7.83301 -58.667 23.5 -78s35.834 -29 60.501 -29c42 0 73.667 29.333 95 88l25 217c-20.667 8 -39.667 12 -57 12zM196.998 -149.998
c0 -18 5.16797 -32.167 15.501 -42.5s22.166 -15.5 35.499 -15.5c37.333 0 59 23.667 65 71l17 150c-88.667 -52.667 -133 -107 -133 -163z" />
    <glyph glyph-name="h" unicode="h" horiz-adv-x="497" 
d="M306 114l23.999 221c0 18 -4.66699 33 -14 45s-24.333 18 -45 18s-38.167 -8.16699 -52.5 -24.5s-24.833 -37.833 -31.5 -64.5l-21 -166.5l-18 -142.5h-133c48 408.667 77 659.667 87 753c14 5.33301 33 8 57 8c52 0 78 -15.333 78 -46v-6
c-11.333 -104.667 -23.333 -196.667 -36 -276c35.333 32 75.333 48 120 48s80 -11.333 106 -34s39 -51.334 39 -86.001c0 -9.33301 -2 -26.666 -6 -51.999c-15.333 -100 -23 -158.667 -23 -176c0 -31.333 10.333 -47 31 -47c17.333 0 35.833 11.5 55.5 34.5
s35.5 58.5 47.5 106.5c22.667 -24 36.334 -43 41.001 -57c-34.667 -116 -96 -174 -184 -174c-41.333 0 -72 12.667 -92 38s-30 52 -30 80z" />
    <glyph glyph-name="i" unicode="i" horiz-adv-x="231" 
d="M165 760c22 0 40.833 -7.83301 56.5 -23.5s23.5 -34.5 23.5 -56.5s-7.83301 -40.667 -23.5 -56s-34.5 -23 -56.5 -23s-40.667 7.66699 -56 23s-23 34 -23 56s7.66699 40.833 23 56.5s34 23.5 56 23.5zM106 470.5c18.667 6.33301 37.167 9.5 55.5 9.5
s34.5 -2.33301 48.5 -7c-26 -200.667 -39 -302 -39 -304c-3.33301 -13.333 -5 -24.5 -5 -33.5s0.666992 -16.833 2 -23.5c2.66699 -17.333 14.834 -26 36.501 -26s41.667 14.167 60 42.5s32.166 60.5 41.499 96.5c4.66699 -2.66699 12 -10.667 22 -24s16 -23.333 18 -30
c-13.333 -53.333 -36 -96.333 -68 -129s-70.333 -49 -115 -49s-77.834 11 -99.501 33s-32.5 50.333 -32.5 85c0 7.33301 0.333008 15 1 23l36 309c6.66699 12 19.334 21.167 38.001 27.5z" />
    <glyph glyph-name="j" unicode="j" horiz-adv-x="305" 
d="M250 760c22 0 40.833 -7.83301 56.5 -23.5s23.5 -34.5 23.5 -56.5s-7.83301 -40.667 -23.5 -56s-34.5 -23 -56.5 -23s-40.667 7.66699 -56 23s-23 34 -23 56s7.66699 40.833 23 56.5s34 23.5 56 23.5zM55 -306c-31.333 0 -59.166 9.83301 -83.499 29.5
s-36.5 53.5 -36.5 101.5c0 96 58 181.667 174 257l42 361c20 24.667 51.333 37 94 37c24 0 40.333 -2.33301 49 -7l-78 -605c-6.66699 -58 -22.834 -101.5 -48.501 -130.5s-63.167 -43.5 -112.5 -43.5zM10 -206.5c7.33301 -9.66699 16.667 -14.5 28 -14.5
c21.333 0 35 22 41 66l21 160c-67.333 -53.333 -101 -110 -101 -170c0 -18 3.66699 -31.833 11 -41.5z" />
    <glyph glyph-name="k" unicode="k" horiz-adv-x="496" 
d="M486 360c0 -69.333 -41.3359 -122.334 -124.003 -159.001c2 -12 5 -26.333 9 -43c12 -49.333 32 -74.666 60 -75.999h6c53.333 0 93 47 119 141c14 -12.667 27.333 -31.667 40 -57c-9.33301 -36 -22.5 -66.333 -39.5 -91s-35.5 -42.334 -55.5 -53.001
c-35.333 -18.667 -68.666 -28 -99.999 -28c-73.333 0 -124.666 41 -153.999 123c-11.333 32.667 -19 66 -23 100c38 9.33301 68 24.833 90 46.5s33 44.834 33 69.501c0 42.667 -21.333 64 -64 64c-23.333 0 -43.333 -8.83301 -60 -26.5s-27.667 -38.834 -33 -63.501
l-19.5 -160.5c-9 -73 -14.833 -121.833 -17.5 -146.5h-133c48 408.667 77 659.667 87 753c14 5.33301 33 8 57 8c52 0 78 -15.333 78 -46v-6c-13.333 -120.667 -25.666 -213 -36.999 -277c36.667 34 82.667 51 138 51c41.333 0 75.5 -10.667 102.5 -32
s40.5 -51.666 40.5 -90.999z" />
    <glyph glyph-name="l" unicode="l" horiz-adv-x="306" 
d="M71 27.5c-23.333 23 -34.998 54.499 -34.998 94.499c0 10.667 18 169 54 475c9.33301 78.667 34.333 128.334 75 149.001c18.667 10 41 15 67 15c88 0 132 -40.667 132 -122c0 -6.66699 -0.333008 -13.667 -1 -21c-6.66699 -89.333 -62.667 -180.333 -168 -273
c-3.33301 -32.667 -7 -64.334 -11 -95.001c-8 -68.667 -12 -106.667 -12 -114c0 -34.667 15 -52 45 -52c32.667 0 63.167 18.833 91.5 56.5s50.166 85.834 65.499 144.501c6 -2 14.333 -7.5 25 -16.5s18 -16.833 22 -23.5c-10.667 -55.333 -34.667 -108.333 -72 -159
c-18.667 -26 -42.334 -47.333 -71.001 -64c-32.667 -19.333 -69.5 -29 -110.5 -29s-73.167 11.5 -96.5 34.5zM206.002 444.999c61.333 67.333 91.999 127.667 91.999 181c0 32 -12 48 -36 48c-15.333 -1.33301 -25.5 -11.333 -30.5 -30s-9.66699 -49 -14 -91
s-7.16602 -68 -8.49902 -78z" />
    <glyph glyph-name="m" unicode="m" horiz-adv-x="804" 
d="M315 0l37.9971 332c0 18.667 -4.5 34.167 -13.5 46.5s-24.833 18.5 -47.5 18.5s-41.334 -10.833 -56.001 -32.5s-24 -44.5 -28 -68.5c-23.333 -166 -36.333 -264.667 -39 -296h-134l55 470c28 7.33301 49.333 11 64 11c42 0 65 -14 69 -42
c32.667 28 68.334 42 107.001 42c77.333 0 126.666 -23 147.999 -69c32.667 46.667 79.334 70 140.001 70c44.667 0 80 -11.5 106 -34.5s39 -51.833 39 -86.5c0 -10 -2 -27.667 -6 -53c-15.333 -100 -23 -158.667 -23 -176c0 -31.333 10.333 -47 31 -47
c17.333 0 35.833 11.5 55.5 34.5s35.5 58.5 47.5 106.5c22.667 -24 36.334 -43 41.001 -57c-34.667 -116 -96 -174 -184 -174c-41.333 0 -72 12.667 -92 38s-30 52 -30 80l24 221c0 18 -4.66699 33 -14 45s-24.166 18 -44.499 18s-38.166 -7.66699 -53.499 -23
s-26 -35 -32 -59c-20 -169.333 -33 -274.333 -39 -315h-129z" />
    <glyph glyph-name="n" unicode="n" horiz-adv-x="519" 
d="M318 112l23.998 223.001c0 18 -4.66699 33 -14 45s-24.833 18 -46.5 18s-40 -9.5 -55 -28.5s-24.5 -42.833 -28.5 -71.5c-24 -182.667 -36.667 -282 -38 -298h-135l55 471c28 7.33301 49.333 11 64 11c44.667 0 68 -16.333 70 -49c32.667 32 71.834 48 117.501 48
s81.5 -11.333 107.5 -34s39 -51.334 39 -86.001c0 -9.33301 -2 -27 -6 -53c-15.333 -101.333 -23 -160.333 -23 -177c0 -30.667 10.333 -46 31 -46c45.333 0 79.666 47.333 102.999 142c22.667 -24 36.334 -43 41.001 -57c-35.333 -117.333 -96.666 -176 -183.999 -176
c-41.333 0 -72 12.667 -92 38s-30 52 -30 80z" />
    <glyph glyph-name="o" unicode="o" horiz-adv-x="520" 
d="M295 481c61.333 0 112.499 -19.667 153.499 -59s61.5 -87.333 61.5 -144c0 -86 -25.167 -154.833 -75.5 -206.5s-111.166 -77.5 -182.499 -77.5s-127.833 20.333 -169.5 61s-62.5 91 -62.5 151c0 84 25.667 150.667 77 200c52 50 118 75 198 75zM195.999 346
c-21.333 -36 -33 -81.332 -35 -135.999c0 -38.667 7.83301 -70.667 23.5 -96s39.5 -38 71.5 -38s58.833 17.667 80.5 53s32.5 75.666 32.5 120.999s-7.66699 81.333 -23 108c-15.333 28 -38.833 42 -70.5 42s-58.167 -18 -79.5 -54z" />
    <glyph glyph-name="p" unicode="p" horiz-adv-x="529" 
d="M143 482c43.333 0 68.666 -11 75.999 -33c31.333 22 71 33 119 33s89.333 -19.667 124 -59s52 -85.333 52 -138c0 -7.33301 -0.333008 -15 -1 -23c-7.33301 -87.333 -36.666 -153.833 -87.999 -199.5s-118.333 -68.5 -201 -68.5c-18.667 0 -39 2.33301 -61 7l-32 -275
h-131l86 748c14 5.33301 33 8 57 8zM373 278c0 29.333 -6.66504 55.333 -19.998 78s-34 34 -62 34c-38 0 -67 -24.667 -87 -74c-13.333 -98.667 -21 -156 -23 -172c-0.666992 -20 5.66602 -35 18.999 -45s29.666 -15 48.999 -15c34 0 62 15.333 84 46
c26.667 38 40 87.333 40 148z" />
    <glyph glyph-name="q" unicode="q" horiz-adv-x="573" 
d="M313 27c-30.667 -22 -68.6641 -33.001 -113.997 -33.001s-86.5 18.333 -123.5 55s-55.5 85 -55.5 145c0 87.333 25.667 157 77 209s116.333 78 195 78h6c32.667 0 63.334 -5.66699 92.001 -17c21.333 11.333 43.166 17 65.499 17s39.166 -3.33301 50.499 -10l-43 -345
l-5 -41c17.333 0 30.333 0.333008 39 1c27.333 2 53.666 15.167 78.999 39.5s45 60.833 59 109.5c21.333 -26.667 34 -46 38 -58c-16.667 -54.667 -40.834 -96.5 -72.501 -125.5s-65.5 -46.833 -101.5 -53.5c45.333 -53.333 68 -104 68 -152v-6
c0 -26 -4.5 -49.167 -13.5 -69.5s-21.167 -35.5 -36.5 -45.5c-29.333 -19.333 -58 -29 -86 -29c-49.333 0 -86.333 15.333 -111 46c-18.667 24.667 -28 56.334 -28 95.001c0 10.667 0.666992 21.667 2 33zM307.003 402.999c-42.667 0 -76.5 -16.167 -101.5 -48.5
s-39.833 -80.5 -44.5 -144.5c-0.666992 -6 -1 -11.667 -1 -17c0 -32.667 7.83301 -58.667 23.5 -78s35.834 -29 60.501 -29c37.333 0 66.666 23.667 87.999 71l27 236c-18 6.66699 -35.333 10 -52 10zM443.003 -23.001c-10.667 -84.667 -16 -133.5 -16 -146.5
s4 -23.333 12 -31s17.5 -11.5 28.5 -11.5s20.833 4.5 29.5 13.5s13 22.167 13 39.5c0 46 -22.333 91.333 -67 136z" />
    <glyph glyph-name="r" unicode="r" horiz-adv-x="412" 
d="M328 350c0 29.333 -13.5 44.002 -40.5 44.002s-48.5 -17.333 -64.5 -52c72 -56.667 108 -120.334 108 -191.001c0 -51.333 -14.333 -90.333 -43 -117s-64.667 -40 -108 -40s-75 13.5 -95 40.5s-30 61.167 -30 102.5c0 12.667 0.333008 22 1 28l35 305
c24 7.33301 48.333 11 73 11c40.667 0 61 -15 61 -45v-2c26.667 31.333 60.667 47 102 47c30 0 53.333 -6.83301 70 -20.5s25 -31.834 25 -54.501s-8.5 -41.167 -25.5 -55.5s-39.167 -21.5 -66.5 -21.5h-4c1.33301 7.33301 2 14.333 2 21zM206 272.002
c-12 -96 -18 -144.334 -18 -145.001c0 -28 11.333 -42 34 -42c29.333 0 44 23.667 44 71c0 38.667 -20 77.334 -60 116.001z" />
    <glyph glyph-name="s" unicode="s" horiz-adv-x="515" 
d="M450 306c52.667 -38.667 79.002 -84.334 79.002 -137.001s-20.667 -95 -62 -127s-93.333 -48 -156 -48c-40.667 0 -74.5 10.167 -101.5 30.5s-40.5 45.5 -40.5 75.5s10 53.833 30 71.5s45 28.5 75 32.5c-14 -20 -21 -39.167 -21 -57.5s6.33301 -33.166 19 -44.499
s28.667 -17 48 -17s35.333 7.16699 48 21.5s19 30.833 19 49.5c0 30.667 -14.333 58 -43 82c-17.333 14 -36 27.167 -56 39.5s-30.667 18.833 -32 19.5c-2.66699 2 -5.33398 3.66699 -8.00098 5c-12 -14 -29.333 -33.167 -52 -57.5l-54 -58.5
c-37.333 -40.667 -58.333 -74.667 -63 -102c-1.33301 -5.33301 -2 -15.5 -2 -30.5s4.5 -30.5 13.5 -46.5s19.833 -28 32.5 -36s25.167 -14.5 37.5 -19.5s23 -8.5 32 -10.5s13.5 -3.33301 13.5 -4c0 -4.66699 -7.33301 -10 -22 -16c-27.333 -10 -55.833 -15 -85.5 -15
s-58.5 10.667 -86.5 32c-38 29.333 -57 68.333 -57 117c0 30 7.66699 59.667 23 89c27.333 52 91.333 123.333 192 214c-24.667 24.667 -37 51 -37 79s10.5 51.667 31.5 71s45.833 29 74.5 29c26 0 48.667 -10.333 68 -31c12.667 -14 19 -31.667 19 -53s-7 -45.333 -21 -72
c71.333 -32 119.666 -57 144.999 -75zM233.002 419c16 16.667 24 28.667 24 36c0 16.667 -7.33301 25.667 -22 27c-16.667 0 -25 -9.33301 -25 -28c0 -11.333 7.66699 -23 23 -35z" />
    <glyph glyph-name="t" unicode="t" horiz-adv-x="344" 
d="M259 696c0 -4 -9 -75.667 -27 -215h147v-77h-157l-3 -25c78 -65.333 117 -136.666 117 -213.999c0 -60.667 -15.5 -104.334 -46.5 -131.001s-68.167 -40 -111.5 -40s-75 11.5 -95 34.5s-30 50.833 -30 83.5c0 7.33301 0.666992 15.333 2 24l31 266l-4 2h-81
c-0.666992 6.66699 -1 17.5 -1 32.5s3 29.833 9 44.5h86l32 272c14 5.33301 32.667 8 56 8c50.667 0 76 -21.667 76 -65zM269 166c0 46 -20 91.332 -60 135.999c-12 -99.333 -18 -156.666 -18 -171.999c0 -30 9.66699 -45 29 -45c14 0 25.667 6.5 35 19.5s14 33.5 14 61.5z
" />
    <glyph glyph-name="u" unicode="u" horiz-adv-x="507" 
d="M479 471c-27.333 -216 -41.001 -330.998 -41.001 -344.998c0 -26.667 9.66699 -40 29 -40c17.333 0 36.166 11.833 56.499 35.5s36.5 59.167 48.5 106.5c22 -24 35.333 -42.667 40 -56c-15.333 -64.667 -39.666 -110.334 -72.999 -137.001s-67.666 -40 -102.999 -40
c-58 0 -97 22.333 -117 67c-34.667 -44.667 -81 -67 -139 -67c-48 0 -85 12 -111 36s-39 55.333 -39 94c0 9.33301 1.66699 25.666 5 48.999c15.333 124 27 222.667 35 296c20.667 7.33301 39.667 11 57 11s30.333 -0.666992 39 -2s17 -6.33301 25 -15s12 -21 12 -37
l-33 -255c-1.33301 -8 -2 -15.333 -2 -22c0 -39.333 18 -59 54 -59c33.333 0 61 16.333 83 49c0 7.33301 0.666992 19 2 35l33 266c4.66699 11.333 14.667 20.833 30 28.5s34.5 11.5 57.5 11.5s40.167 -3.33301 51.5 -10z" />
    <glyph glyph-name="v" unicode="v" horiz-adv-x="454" 
d="M319.5 46.5c-39 -34.333 -83.499 -51.5039 -133.499 -51.5039s-87.5 16.5 -112.5 49.5s-37.5 70.833 -37.5 113.5c0 8.66699 0.333008 17.334 1 26.001l34 285c21.333 8 44 12 68 12c44 0 66 -16.333 66 -49c0 -1.33301 -5.5 -45.833 -16.5 -133.5
s-16.5 -138.5 -16.5 -152.5c0 -38 18.333 -57 55 -57c31.333 0 57.666 17.667 78.999 53c37.333 64 57 136.333 59 217h-9c-28 0 -49.333 6.33301 -64 19c-16.667 14.667 -25 32.334 -25 53.001s6.33301 37.334 19 50.001c15.333 13.333 33.666 20 54.999 20
c50.667 0 82.334 -26.333 95.001 -79c20 2.66699 34.333 5.33398 43 8.00098v-57l-37 -6v-17c-0.666992 -60 -11.5 -117 -32.5 -171s-51 -98.167 -90 -132.5zM324.001 430.996c0 -11.333 9.66699 -17 29 -17h6c-4.66699 18 -11.667 27 -21 27s-14 -3.33301 -14 -10z" />
    <glyph glyph-name="w" unicode="w" horiz-adv-x="719" 
d="M437 159c0 -48 20.333 -72.001 61 -72.001h3c18.667 0 35.334 10 50.001 30s25.667 45 33 75c16 61.333 24 117 24 167h-9c-28 0 -49.667 6.33301 -65 19c-16 14.667 -24 32.334 -24 53.001s6.33301 37.334 19 50.001c15.333 14 34.333 21 57 21
c49.333 0 82.666 -25.333 99.999 -76c46.667 11.333 96 27 148 47v-57c-49.333 -18.667 -95.333 -33 -138 -43c0.666992 -5.33301 1 -13 1 -23c-2.66699 -138 -35 -238 -97 -300c-36.667 -36.667 -84.167 -55 -142.5 -55s-101.833 24.667 -130.5 74
c-32.667 -50 -82.667 -75 -150 -75c-40 0 -72.833 14.167 -98.5 42.5s-38.5 61.833 -38.5 100.5c0 6.66699 0.333008 14.667 1 24c14 116 25.667 218.667 35 308c24 8 45 12 63 12c47.333 0 71 -16.333 71 -49c0 -12.667 -5 -56.334 -15 -131.001
c-12.667 -94 -19 -146.833 -19 -158.5s4.5 -23.167 13.5 -34.5s22 -17 39 -17s32.167 7.66699 45.5 23s23 34 29 56l35 299c21.333 8 44 12 68 12c43.333 0 65 -16.333 65 -49c0 -12 -4.66699 -51 -14 -117c-13.333 -93.333 -20 -145.333 -20 -156zM567 430.999
c0 -11.333 9.66699 -17 29 -17h6c-4.66699 18 -11.667 27 -21 27s-14 -3.33301 -14 -10z" />
    <glyph glyph-name="x" unicode="x" horiz-adv-x="510" 
d="M477 27.5c-23.333 -22.333 -50.835 -33.501 -82.502 -33.501s-56 6.33301 -73 19s-32.833 34 -47.5 64l-32 62l-49 -71c-32 -46 -65.333 -69 -100 -69c-26.667 0 -47.167 7.5 -61.5 22.5s-21.5 33.167 -21.5 54.5c0 36 14.167 64.167 42.5 84.5s58.5 30.5 90.5 30.5
c9.33301 0 19 -1 29 -3l24 36c-48 86.667 -74.333 133.667 -79 141c-8 11.333 -15.5 17 -22.5 17s-12.833 -2.5 -17.5 -7.5s-7 -11.833 -7 -20.5s1.33301 -18.334 4 -29.001l-25 -7c-6 8 -11 19.5 -15 34.5s-6 26.833 -6 35.5c0 32.667 10.333 58.167 31 76.5
s47.667 27.5 81 27.5c40.667 0 72.334 -22 95.001 -66l41 -79l55 86c16 24.667 30.667 41.167 44 49.5s30.5 12.5 51.5 12.5s39.167 -7.5 54.5 -22.5s23 -32.833 23 -53.5c0 -35.333 -12.667 -62.666 -38 -81.999s-53.333 -29 -84 -29c-6 0 -13.667 0.666992 -23 2l-36 -53
l75 -145c10 -18 22.667 -27 38 -27c20.667 0 37 18.333 49 55l4 12c0.666992 2 2.33398 8.66699 5.00098 20l34 -49c-10.667 -41.333 -27.667 -73.166 -51 -95.499zM441.998 417.999c-6.66699 0 -12.832 -3.5 -18.499 -10.5s-18.834 -26.833 -39.501 -59.5
c18 0 35 4.5 51 13.5s24.333 20.667 25 35s-5.33301 21.5 -18 21.5zM139 150.999c-18.667 0 -36.667 -4.66699 -54 -14s-26 -21 -26 -35s6 -21 18 -21c14 0 37.333 23.333 70 70h-8z" />
    <glyph glyph-name="y" unicode="y" horiz-adv-x="486" 
d="M205 -297c-38 0 -70.666 11.5 -97.999 34.5s-41 56.5 -41 100.5c0 54 27.333 106.667 82 158c-38.667 3.33301 -69.667 16 -93 38s-35 53 -35 93c0 18.667 2.33301 46.667 7 84l15 121l17 138c20.667 7.33301 39.667 11 57 11s30.333 -0.666992 39 -2s17 -6.33301 25 -15
s12 -21 12 -37l-33 -255c-1.33301 -10.667 -2 -18 -2 -22c0 -39.333 18 -59 54 -59c32.667 0 59.334 15.333 80.001 46c2 15.333 7 59.5 15 132.5s14.667 129.833 20 170.5c6 12.667 18.5 22.667 37.5 30s34.5 11 46.5 11c21.333 0 40.666 -2.66699 57.999 -8l-47 -369
c78 -14 124.667 -67.667 140 -161c-2.66699 -12.667 -15.334 -32.667 -38.001 -60c-13.333 83.333 -50 134 -110 152l-16 -125c-7.33301 -60 -26.333 -109.5 -57 -148.5s-75.667 -58.5 -135 -58.5zM160.001 -192c10.667 -10.667 24.834 -16 42.501 -16
s31.167 7.33301 40.5 22s16.666 44 21.999 88l13 110c-87.333 -45.333 -132 -97 -134 -155c0 -22 5.33301 -38.333 16 -49z" />
    <glyph glyph-name="z" unicode="z" horiz-adv-x="437" 
d="M311 -9l-278 6c-8.66699 0 -13 11.833 -13 35.5s5 42.167 15 55.5c10 26.667 37.667 65.667 83 117l82 90c40 43.333 66.333 73 79 89l-53 3c-10 -24 -24.5 -43.5 -43.5 -58.5s-40.167 -22.5 -63.5 -22.5c-26.667 0 -48.334 7.83301 -65.001 23.5s-25 37.5 -25 65.5
s9.66699 50.333 29 67s46 25 80 25l278 -6c8.66699 0 13 -11.333 13 -34c0 -23.333 -4.33301 -41.333 -13 -54c-8 -14.667 -19.5 -30.167 -34.5 -46.5s-36.833 -38 -65.5 -65l-60 -57.5c-44.667 -44.667 -78 -87.667 -100 -129l67 -4c10 24 24.5 43.5 43.5 58.5
s40.167 22.5 63.5 22.5c26.667 0 48.334 -7.83301 65.001 -23.5s25 -37.5 25 -65.5s-9.66699 -50.333 -29 -67s-46 -25 -80 -25zM130 394c-23.333 0 -35 -7.66699 -35 -23s8.66699 -23 26 -23c26 0 46.667 14 62 42l-41 3c-4 0.666992 -8 1 -12 1zM319 84
c23.333 0 35 7.66699 35 23s-8.66699 23 -26 23c-26 0 -46.667 -14 -62 -42l41 -3c4 -0.666992 8 -1 12 -1z" />
    <glyph glyph-name="braceleft" unicode="{" horiz-adv-x="379" 
d="M102 358c16 0 27 28.0039 33 84.0039c12 122.667 20 198.5 24 227.5s16.5 51.667 37.5 68s46.5 24.5 76.5 24.5c40.667 0 76 -12.333 106 -37l-11 -44c-8 5.33301 -15.667 8 -23 8c-26.667 0 -43.667 -5 -51 -15s-12 -24.833 -14 -44.5s-4.5 -42.167 -7.5 -67.5
s-6.83301 -56 -11.5 -92s-8.33398 -65.667 -11.001 -89c-5.33301 -46.667 -27.333 -75 -66 -85c28.667 -12 43 -35.333 43 -70l-33 -272v-15c0 -20 13 -31 39 -33c16.667 0 30.334 2.66699 41.001 8v-44c-40 -24 -75.833 -36 -107.5 -36s-56.667 8.33301 -75 25
s-27 38.167 -26 64.5s6.5 76.166 16.5 149.499c11.333 79.333 17 122.666 17 129.999c0 22.667 -5.33301 34 -16 34c-4.66699 0 -8.16699 -0.333008 -10.5 -1s-6.33301 -3.83398 -12 -9.50098s-11.5 -14.834 -17.5 -27.501l-23 11c8 20 20.5 38.167 37.5 54.5
s36.167 27.5 57.5 33.5c-38 14 -61 43 -69 87l25 11c6 -22.667 13 -35 21 -37c2 -0.666992 5.33301 -1 10 -1z" />
    <glyph glyph-name="bar" unicode="|" horiz-adv-x="253" 
d="M123 761h86l-102 -861h-82z" />
    <glyph glyph-name="braceright" unicode="}" horiz-adv-x="380" 
d="M277 242c-16 0 -26.999 -28.0039 -32.999 -84.0039c-12.667 -127.333 -21.167 -204.333 -25.5 -231s-16.666 -48.167 -36.999 -64.5s-45.5 -24.5 -75.5 -24.5c-40.667 0 -76 12.333 -106 37l11 44c8 -5.33301 15.667 -8 23 -8c26.667 0 43.834 5 51.501 15
s13 32.833 16 68.5s11.5 110.5 25.5 224.5c6 43.333 28.333 71.333 67 84c-30.667 11.333 -46 35 -46 71l33 272v15c0 20 -13 31 -39 33c-16.667 0 -30.334 -2.66699 -41.001 -8v44c40 24 75.833 36 107.5 36s56.667 -8.33301 75 -25s27 -38.167 26 -64.5
s-6.83301 -76.166 -17.5 -149.499c-10.667 -79.333 -16 -122.666 -16 -129.999c0 -22.667 5.33301 -34 16 -34c4.66699 0 8.16699 0.333008 10.5 1s6.33301 3.83398 12 9.50098s11.5 14.834 17.5 27.501l23 -11c-8 -20 -20.167 -38 -36.5 -54s-34.833 -27.333 -55.5 -34
c18.667 -6 34.167 -17 46.5 -33s20.166 -34 23.499 -54l-25 -11c-6 22.667 -12.667 35 -20 37c-2.66699 0.666992 -6.33398 1 -11.001 1z" />
    <glyph glyph-name="asciitilde" unicode="~" horiz-adv-x="425" 
d="M99 491c6 0 16.332 -1.33203 30.999 -3.99902s49 -16.334 103 -41.001s89.667 -37 107 -37c34.667 0 61.334 23.667 80.001 71h44c-6.66699 -58 -23.334 -100.667 -50.001 -128s-56.667 -41 -90 -41s-76.666 13 -129.999 39c-54.667 26 -90 39 -106 39
s-31.167 -4.16699 -45.5 -12.5s-22.5 -22.833 -24.5 -43.5h-44c2.66699 52.667 17 92.167 43 118.5s53.333 39.5 82 39.5z" />
    <glyph glyph-name="nbspace" unicode="&#xa0;" horiz-adv-x="220" 
 />
    <glyph glyph-name="exclamdown" unicode="&#xa1;" horiz-adv-x="264" 
d="M154 338c-22.667 0 -42 8 -58 24s-24 35.333 -24 58s8 41.834 24 57.501s35.333 23.5 58 23.5s41.834 -7.83301 57.501 -23.5s23.5 -34.834 23.5 -57.501s-7.83301 -42 -23.5 -58s-34.834 -24 -57.501 -24zM118 -349c-13.333 -6.66699 -36.667 -10 -70 -10
c-65.333 0 -98 15.333 -98 46c0 2.66699 0.333008 5.66699 1 9l124 524h107z" />
    <glyph glyph-name="cent" unicode="&#xa2;" horiz-adv-x="557" 
d="M20 214c0 70.667 22.5 129.669 67.5 177.002s97.833 76.333 158.5 87l32 283h76l-32 -282c41.333 -4.66699 73.833 -17.334 97.5 -38.001s35.5 -44.167 35.5 -70.5s-8.33301 -47.833 -25 -64.5c-29.333 -29.333 -65.333 -44 -108 -44c6.66699 23.333 10 47 10 71
s-6.66699 42.333 -20 55l-33 -292l10 -1h6c34.667 0 71 11.167 109 33.5s69 56.166 93 101.499l40 -44c-37.333 -86 -97.333 -143.667 -180 -173c-28 -10 -58 -16 -90 -18l-31 -279h-76l32 284c-48 11.333 -88.667 36.5 -122 75.5s-50 85.167 -50 138.5zM158 238.002
c0 -52.667 16 -91 48 -115l31 273c-22.667 -10 -41.5 -29 -56.5 -57s-22.5 -61.667 -22.5 -101z" />
    <glyph glyph-name="sterling" unicode="&#xa3;" horiz-adv-x="609" 
d="M408 89c7.33301 -2.66699 16.6641 -3.99805 27.9971 -3.99805s22.333 2.5 33 7.5s20.334 15.333 29.001 31s15.167 29.5 19.5 41.5s11.5 33.333 21.5 64c22 -20.667 38.667 -40.334 50 -59.001c-22 -117.333 -75 -176 -159 -176c-45.333 0 -96.666 23.667 -153.999 71
c-31.333 -47.333 -79.333 -71 -144 -71c-29.333 0 -55.833 9.66699 -79.5 29s-35.5 47 -35.5 83s12.5 65.833 37.5 89.5s56.5 35.5 94.5 35.5c11.333 0 22.666 -1 33.999 -3c6.66699 48 12.334 93 17.001 135h-118l12 80h116l19 151c14 111.333 80 167 198 167
c46 0 82.5 -13.833 109.5 -41.5s40.5 -64.167 40.5 -109.5c0 -14 -1 -28 -3 -42h-75c1.33301 13.333 2 23 2 29c0 23.333 -5 41.666 -15 54.999c-12 14.667 -29.333 22 -52 22s-39.667 -8.83301 -51 -26.5s-18.666 -42.5 -21.999 -74.5l-16 -130h182l-13 -80h-179l-23 -191
l-1 -11c48 -42 80.333 -66 97 -72zM124.998 83.002c23.333 0 38.333 19.999 45 59.999c-14 4.66699 -26 7 -36 7s-18.833 -3.66699 -26.5 -11s-11.5 -16.166 -11.5 -26.499s3 -17.833 9 -22.5s12.667 -7 20 -7z" />
    <glyph glyph-name="currency" unicode="&#xa4;" horiz-adv-x="678" 
d="M507 457c22.667 -32 34.001 -68.332 34.001 -108.999s-11 -77.334 -33 -110.001l109 -110l-53 -54l-110 113c-29.333 -18 -62.333 -27 -99 -27s-70 8.66699 -100 26l-111 -110l-54 53l111 108c-21.333 31.333 -32 67.5 -32 108.5s11.667 78.5 35 112.5l-113 110l54 53
l115 -113c28 16 59.667 24 95 24s67.666 -8.33301 96.999 -25l113 116l53 -54zM274.501 426.001c-21.667 -22 -32.5 -48.833 -32.5 -80.5s10.833 -58.334 32.5 -80.001s48.334 -32.5 80.001 -32.5s58.5 10.833 80.5 32.5s33 48.334 33 80.001s-11 58.5 -33 80.5
s-48.833 33 -80.5 33s-58.334 -11 -80.001 -33z" />
    <glyph glyph-name="yen" unicode="&#xa5;" horiz-adv-x="614" 
d="M178 757c44 0 66.002 -16.3379 66.002 -49.0049c0 -1.33301 -5.5 -45.833 -16.5 -133.5s-16.5 -138.5 -16.5 -152.5c0 -38 18.333 -57 55 -57c32 0 58.5 16.5 79.5 49.5s36 68 45 105s13.5 72.5 13.5 106.5s-10.667 54 -32 60
c0.666992 0.666992 0.5 3.33398 -0.5 8.00098s-0.333008 10.834 2 18.501s5.16602 15 8.49902 22s9.5 13.167 18.5 18.5s19.833 8 32.5 8c31.333 0 54.333 -14 69 -42c9.33301 -18.667 14 -37.667 14 -57s-1.33301 -36.666 -4 -51.999
c-10 -59.333 -27.333 -115.166 -52 -167.499s-55.334 -93.5 -92.001 -123.5h104l-11 -86h-133l-8 -54h134l-11 -86h-134l-13 -93h-136l10 93h-144l10 86h144l6 54h-144l10 86h61c-25.333 28.667 -38 66.334 -38 113.001c0 8.66699 0.333008 18 1 28l34 285
c21.333 8 44 12 68 12z" />
    <glyph glyph-name="brokenbar" unicode="&#xa6;" horiz-adv-x="220" 
d="M116 761h83l-41 -366h-83zM63 287h83l-44 -386h-83z" />
    <glyph glyph-name="section" unicode="&#xa7;" horiz-adv-x="621" 
d="M402 -2c26 -46 38.998 -90 38.998 -132c0 -59.333 -19.5 -107.666 -58.5 -144.999s-89.167 -56 -150.5 -56s-109.333 15.667 -144 47c-36.667 34 -55 78.333 -55 133c0 23.333 4 47.666 12 72.999h86c-7.33301 -14.667 -10.666 -34.334 -9.99902 -59.001
s9 -47.167 25 -67.5s37 -30.5 63 -30.5s46.833 6.33301 62.5 19s23.5 30 23.5 52s-5.5 41.5 -16.5 58.5s-44.167 60.5 -99.5 130.5c-68 84 -103 158.667 -105 224c-0.666992 48.667 13.666 90.834 42.999 126.501s68 59.167 116 70.5c-12 19.333 -20.333 33.333 -25 42
c-17.333 31.333 -26 65.333 -26 102c0 51.333 20.333 93.5 61 126.5s90.334 49.5 149.001 49.5s106 -13.667 142 -41c36.667 -28.667 55 -69 55 -121c0 -26 -7.33301 -54.667 -22 -86h-87c0.666992 2 3 6.83301 7 14.5l9 17.5c5.33301 12 7.83301 29.667 7.5 53
s-9.83301 42 -28.5 56s-40 21 -64 21s-44 -7.33301 -60 -22s-24 -32.667 -24 -54s6.16699 -41.166 18.5 -59.499s26.5 -36.5 42.5 -54.5l43 -48c12.667 -14 20.5 -22.833 23.5 -26.5l21 -24.5c11 -12.667 18.167 -21.667 21.5 -27s9.33301 -13.833 18 -25.5
s14.667 -20.834 18 -27.501s8 -15.5 14 -26.5s10.333 -20.5 13 -28.5c6.66699 -26 10 -48.333 10 -67c0 -50 -16.167 -91.5 -48.5 -124.5s-72.166 -53.833 -119.499 -62.5zM285.998 369c-20 -3.33301 -36.1641 -12 -48.4971 -26s-18.5 -32.167 -18.5 -54.5
s5.66699 -43.5 17 -63.5c15.333 -26.667 42.666 -60.334 81.999 -101.001c11.333 -12.667 19.666 -22.667 24.999 -30c21.333 0.666992 39.666 7.33398 54.999 20.001s23 28.167 23 46.5s-5 36.833 -15 55.5s-20 34.167 -30 46.5l-46.5 55c-21 24.333 -35.5 41.5 -43.5 51.5
z" />
    <glyph glyph-name="dieresis" unicode="&#xa8;" 
d="M147.5 655.5c13.667 14.333 30.5 21.5 50.5 21.5s37 -7.16699 51 -21.5s21 -31.5 21 -51.5s-7 -37 -21 -51s-31 -21 -51 -21s-36.833 7 -50.5 21s-20.5 31 -20.5 51s6.83301 37.167 20.5 51.5zM439 677c20 0 36.999 -7.16699 50.999 -21.5s21 -31.5 21 -51.5
s-6.83301 -37 -20.5 -51s-30.667 -21 -51 -21s-37.666 7 -51.999 21s-21.5 31 -21.5 51s7.16699 37.167 21.5 51.5s31.5 21.5 51.5 21.5z" />
    <glyph glyph-name="copyright" unicode="&#xa9;" horiz-adv-x="710" 
d="M120.5 576c60.333 63.333 138.332 94.998 233.999 94.998s173.834 -31.5 234.501 -94.5s91 -139.667 91 -230s-30.333 -167.166 -91 -230.499s-139 -95 -235 -95s-174 31.333 -234 94s-90 139.334 -90 230.001s30.167 167.667 90.5 231zM353.999 602.998
c-72 0 -132.667 -25 -182 -75s-74 -111 -74 -183s24.667 -132.667 74 -182s110 -74 182 -74s133 24.667 183 74s75 110 75 182s-25 133 -75 183s-111 75 -183 75zM376.999 237.998c54.667 0 104.666 23.334 149.999 70.001l22 -50
c-11.333 -23.333 -35.666 -46.666 -72.999 -69.999c-38 -24.667 -81.333 -37 -130 -37s-93.167 16.667 -133.5 50s-60.5 80.166 -60.5 140.499s19.833 110.166 59.5 149.499s86 59 139 59s94.167 -10.5 123.5 -31.5s44 -47.5 44 -79.5c0 -34 -14 -56.667 -42 -68
c-26.667 -10.667 -50.667 -16 -72 -16c9.33301 18.667 14 34.667 14 48c0 50 -22 75 -66 75c-27.333 0 -49.833 -11 -67.5 -33s-26.5 -52 -26.5 -90s12 -67 36 -87s51.667 -30 83 -30z" />
    <glyph glyph-name="ordfeminine" unicode="&#xaa;" horiz-adv-x="416" 
d="M280 472c-29.333 0 -48.6699 10.002 -58.0029 30.002c-16 -20 -36.667 -30 -62 -30s-46.666 8.66699 -63.999 26s-26 39.666 -26 66.999c0 41.333 12 74.166 36 98.499s54.667 36.5 92 36.5c16.667 0 31.667 -2.66699 45 -8c8.66699 5.33301 18.834 8 30.501 8
s20.834 -1.66699 27.501 -5c-13.333 -101.333 -20 -156.666 -20 -165.999s4.33301 -14 13 -14c20.667 0 36.667 22 48 66c10 -8.66699 16.333 -18.334 19 -29.001c-8.66699 -29.333 -20.667 -50 -36 -62s-30.333 -18 -45 -18zM203.996 663.002
c-44.667 0 -67 -33.667 -67 -101c0 -13.333 3.5 -24.5 10.5 -33.5s16.167 -13.5 27.5 -13.5c20.667 0 36 15.333 46 46l10 96c-10.667 4 -19.667 6 -27 6z" />
    <glyph glyph-name="guillemotleft" unicode="&#xab;" 
d="M293 -1l-191 239l211 245h66l-144 -245l125 -239h-67zM414 -1l-119 239l139 245h66l-97 -245l78 -239h-67z" />
    <glyph glyph-name="logicalnot" unicode="&#xac;" 
d="M471 164l22 181h-459l12 86h540l-32 -267h-83z" />
    <glyph glyph-name="softhyphen" unicode="&#xad;" horiz-adv-x="458" 
d="M424 417l-9 -86h-382l9 86h382z" />
    <glyph glyph-name="registered" unicode="&#xae;" horiz-adv-x="710" 
d="M120.5 576c60.333 63.333 138.332 94.998 233.999 94.998s173.834 -31.5 234.501 -94.5s91 -139.667 91 -230s-30.333 -167.166 -91 -230.499s-139 -95 -235 -95s-174 31.333 -234 94s-90 139.334 -90 230.001s30.167 167.667 90.5 231zM353.999 88.998
c72 0 133 24.667 183 74s75 110 75 182s-25 133 -75 183s-111 75 -183 75s-132.667 -25 -182 -75s-74 -111 -74 -183s24.667 -132.667 74 -182s110 -74 182 -74zM400.499 183.998c-12.333 18 -20.834 44.501 -25.501 79.501s-8.66699 56.833 -12 65.5l-23 -6l-6 -52
c-5.33301 -42 -17.333 -71.5 -36 -88.5s-38.834 -25.5 -60.501 -25.5s-38.167 7.33301 -49.5 22s-17 30 -17 46c0 42 31 77.667 93 107l14 123c12 8 26 12 42 12s28.667 -1.33301 38 -4l-13 -102l2 1c53.333 17.333 80 44.333 80 81c0 18.667 -8.16699 33.667 -24.5 45
s-40 17 -71 17s-56.5 -6.16699 -76.5 -18.5s-30 -28.166 -30 -47.499c0 -8.66699 4 -16.334 12 -23.001s15.667 -10.334 23 -11.001l-4 -28h-2c-54 0 -81 22 -81 66c0 32 16 59.333 48 82c34 24 74.833 36 122.5 36s88.834 -10.333 123.501 -31s52 -51 52 -91
c0 -19.333 -6.66699 -38 -20 -56s-31.333 -31.667 -54 -41c6 -12 10.5 -29.333 13.5 -52s6.5 -41 10.5 -55s11.333 -21 22 -21c20 0 37.667 23 53 69l25 -10c-9.33301 -40 -23.666 -69 -42.999 -87c-20 -19.333 -42.833 -29 -68.5 -29s-44.667 9 -57 27zM257.998 285.999
c-32 -20 -47.999 -36.167 -47.999 -48.5s5.66699 -18.5 17 -18.5c15.333 0 24.666 12.667 27.999 38z" />
    <glyph glyph-name="macron" unicode="&#xaf;" 
d="M120 700h420v-82h-420v82z" />
    <glyph glyph-name="degree" unicode="&#xb0;" 
d="M190 720.5c30 27 64.167 40.499 102.5 40.499s68.666 -12.333 90.999 -37s33.5 -52.667 33.5 -84c0 -6 -0.333008 -12 -1 -18c-3.33301 -38 -19.833 -70.667 -49.5 -98s-63.667 -41 -102 -41s-69.166 12.833 -92.499 38.5s-35 54.834 -35 87.501
c0 4 0.333008 8.33301 1 13c4.66699 38.667 22 71.5 52 98.5zM354 631.999c0 16.667 -5.99902 31.834 -17.999 45.501s-28.5 20.5 -49.5 20.5s-39.833 -7.33301 -56.5 -22c-19.333 -17.333 -29 -36.333 -29 -57s6.33301 -38 19 -52s29.5 -21 50.5 -21s39.667 7.5 56 22.5
s25.166 32.833 26.499 53.5c0.666992 3.33301 1 6.66602 1 9.99902z" />
    <glyph glyph-name="plusminus" unicode="&#xb1;" horiz-adv-x="494" 
d="M287 392l-24 -213h-92l25 213h-190l10 86h190l24 210h91l-24 -210h191l-10 -86h-191zM458 0h-472l10 86h472z" />
    <glyph glyph-name="twosuperior" unicode="&#xb2;" horiz-adv-x="357" 
d="M57 586l-0.00195312 13.9971c0.666992 34 13.334 59.167 38.001 75.5s54.334 24.5 89.001 24.5s64.334 -9.16699 89.001 -27.5s37 -45.166 37 -80.499c0 -28 -10 -54.667 -30 -80c-13.333 -16.667 -24.666 -29.667 -33.999 -39l-16 -16
c-24.667 -24.667 -51.334 -46.667 -80.001 -66c41.333 -8 69.166 -12 83.499 -12s25 4.33301 32 13s13.167 22.667 18.5 42h31c1.33301 -13.333 2 -22.666 2 -27.999c-4.66699 -64 -33.667 -96 -87 -96c-18.667 0 -42.667 3 -72 9s-51.5 9 -66.5 9s-30.5 -6 -46.5 -18
l-20 47c5.33301 7.33301 21 21.833 47 43.5s42.167 35.334 48.5 41.001l25 23l22 20.5c4.33301 4 10.833 10.833 19.5 20.5s15 18.167 19 25.5c12.667 24 19 45.5 19 64.5s-4.83301 33.167 -14.5 42.5s-21.167 14.333 -34.5 15c-32.667 -2 -49.667 -18 -51 -48
c0 -6 0.666992 -12.333 2 -19h-70z" />
    <glyph glyph-name="threesuperior" unicode="&#xb3;" horiz-adv-x="399" 
d="M250 422c0 38.667 -27.334 58 -82.001 58h-25l5 47c16.667 0 32.834 0.833008 48.501 2.5s28.167 7 37.5 16s15.333 24.167 18 45.5c0.666992 16.667 -2.83301 30.834 -10.5 42.501s-18.834 17.5 -33.501 17.5c-30.667 0 -48 -15.667 -52 -47
c-1.33301 -7.33301 -0.333008 -17.333 3 -30h-80c-1.33301 9.33301 -2 18 -2 26c0 22.667 8.66699 42 26 58c30 28 65.833 42 107.5 42s73.167 -9.33301 94.5 -28s32 -42.667 32 -72c0 -37.333 -17.667 -67 -53 -89c20 -7.33301 35.5 -17.833 46.5 -31.5
s16.5 -28.834 16.5 -45.501c0 -42.667 -17 -75 -51 -97c-27.333 -18 -59.666 -27 -96.999 -27c-70 0 -121.667 27 -155 81l81 46c0.666992 -25.333 7.16699 -44.5 19.5 -57.5s27.5 -19.5 45.5 -19.5s32.5 5.83301 43.5 17.5s16.5 26.5 16.5 44.5z" />
    <glyph glyph-name="acute" unicode="&#xb4;" horiz-adv-x="238" 
d="M52 550l127 187c13.333 -6.66699 29 -19.5 47 -38.5s32.667 -36.5 44 -52.5l-180 -133c-8 4.66699 -20.667 17 -38 37z" />
    <glyph glyph-name="paragraph" unicode="&#xb6;" 
d="M294 301l-53.001 -3.99805c-57.333 0 -108.333 15.667 -153 47s-67 76 -67 134c0 56 21 105.333 63 148c48 48.667 130.333 75 247 79l4 35c22.667 14.667 55.334 22 98.001 22c9.33301 0 18.666 -0.666992 27.999 -2l-7 -67l23 -6l8 74h54l-10 -91
c6.66699 -2.66699 16 -7.33398 28 -14.001l-17 -68l-19 8l-66 -596h-54l68 612l-24 5l-46 -421c-14 -131.333 -71 -197 -171 -197c-38 0 -68.667 10.5 -92 31.5s-35 47.833 -35 80.5s10.5 59.167 31.5 79.5s45.167 30.5 72.5 30.5s46 -1.66699 56 -5l-4 -45
c-6 1.33301 -17.333 2 -34 2s-30 -4.83301 -40 -14.5s-15 -21.834 -15 -36.501s4.66699 -26.5 14 -35.5s20 -13.5 32 -13.5c38.667 0 61.334 33.333 68.001 100zM189.999 489.002c0 -30.667 10.5 -57.834 31.5 -81.501s47.167 -36.167 78.5 -37.5l23 252
c-32.667 -3.33301 -59.5 -12.833 -80.5 -28.5s-35 -32.167 -42 -49.5s-10.5 -35.666 -10.5 -54.999z" />
    <glyph glyph-name="periodcentered" unicode="&#xb7;" 
d="M232 378l126 0.00195312c6 0 9.66699 -0.333008 11 -1s2 -2.66699 2 -6v-127c0 -4 -0.666992 -6.33301 -2 -7s-5 -1 -11 -1h-126c-4.66699 0 -7.66699 0.666992 -9 2s-2 4.66602 -2 9.99902v118c0 5.33301 0.5 8.66602 1.5 9.99902s4.16699 2 9.5 2z" />
    <glyph glyph-name="cedilla" unicode="&#xb8;" 
d="M379.5 -56c19.667 -16 29.498 -39.333 29.498 -70s-11.5 -55.667 -34.5 -75s-49.167 -29 -78.5 -29c-47.333 0 -82.333 16 -105 48l18 38c6 -9.33301 16.5 -18.333 31.5 -27s29.833 -13 44.5 -13s26.834 5.5 36.501 16.5s14.5 25 14.5 42s-6.5 30.5 -19.5 40.5
s-28.833 15 -47.5 15s-29.667 -0.333008 -33 -1l41 108h56l-26 -70l6 1c24.667 0 46.834 -8 66.501 -24z" />
    <glyph glyph-name="onesuperior" unicode="&#xb9;" horiz-adv-x="267" 
d="M245 365c-4 -28 -6 -46.333 -6 -55h-237l7 55h78l26 235l-84 -8l7 47c54.667 14 88.667 34.333 102 61h64l-38 -335h81z" />
    <glyph glyph-name="ordmasculine" unicode="&#xba;" horiz-adv-x="282" 
d="M272 596c0 -44 -12.998 -79.332 -38.998 -105.999s-57.167 -40 -93.5 -40s-65.333 10.5 -87 31.5s-32.5 46.833 -32.5 77.5c0 42.667 13.167 76.667 39.5 102s57.666 38.166 93.999 38.499s65.166 -9.66699 86.499 -30s32 -44.833 32 -73.5zM110.502 631.001
c-11 -18.667 -16.8301 -40 -17.4971 -64s3.16602 -42.667 11.499 -56s20.666 -20 36.999 -20s30.166 9.33301 41.499 28s17 39.5 17 62.5s-4 41.5 -12 55.5c-8 14.667 -20.167 22 -36.5 22s-30 -9.33301 -41 -28z" />
    <glyph glyph-name="guillemotright" unicode="&#xbb;" horiz-adv-x="480" 
d="M77 0l95 239l-79 245h66l121 -245l-137 -239h-66zM198 0l143 239l-127 245h66l194 -245l-210 -239h-66z" />
    <glyph glyph-name="onequarter" unicode="&#xbc;" horiz-adv-x="858" 
d="M713 761l-558 -861h-83l558 861h83zM290 365c-4 -28 -6 -46.333 -6 -55h-251l7 55h82l26 235l-88 -8l7 47c65.333 16.667 104 37 116 61h64l-38 -335h81zM708 388c32 0 48.001 -10.666 48.001 -31.999c0 -10.667 -9.66699 -65.667 -29 -165
c47.333 -11.333 71 -40.666 71 -87.999c0 -42 -11.333 -72.333 -34 -91c-17.333 -13.333 -37 -20 -59 -20c-24.667 0 -43.834 6.5 -57.501 19.5s-20.5 29.833 -20.5 50.5c0 3.33301 0.666992 8.33301 2 15l7 53h-141v2c-3.33301 4.66699 -8 14 -14 28s-9 22.167 -9 24.5
s0.333008 3.83301 1 4.5c57.333 75.333 86 134 86 176c0 15.333 -10 27 -30 35c16 16 40 24 72 24c16 0 28.167 -4 36.5 -12s12.5 -16 12.5 -24s-0.166992 -14.833 -0.5 -20.5s-2.5 -13.834 -6.5 -24.501s-9.83301 -23.334 -17.5 -38.001l-20 -37l-23.5 -40.5
c-10 -17 -16 -27.5 -18 -31.5h82l30 188c13.333 2.66699 24 4 32 4zM723.001 49.001c20 0 30 15.668 30 47.001c0 10.667 -2.66699 19.167 -8 25.5s-15.333 10.166 -30 11.499l-8 -60c0 -16 5.33301 -24 16 -24z" />
    <glyph glyph-name="onehalf" unicode="&#xbd;" horiz-adv-x="800" 
d="M726 761l-558 -861h-83l558 861h83zM307 365c-4 -28 -6 -46.333 -6 -55h-251l7 55h82l26 235l-88 -8l7 47c65.333 16.667 104 37 116 61h64l-38 -335h81zM766 114l3 -41c0 -26 -8 -48 -24 -66s-35.333 -27 -58 -27s-48.667 4.66699 -78 14s-51.5 14 -66.5 14
s-30.5 -6 -46.5 -18l-20 47c2 9.33301 16 25 42 47c48.667 41.333 80.834 71.666 96.501 90.999s26.167 36 31.5 50c7.33301 18.667 11 36.667 11 54s-4.5 30.5 -13.5 39.5s-20.167 13.833 -33.5 14.5c-28 -1.33301 -42.667 -17.333 -44 -48
c0 -19.333 0.666992 -32.333 2 -39h-80v34c0.666992 33.333 14.834 58.333 42.501 75s59 25 94 25s64.833 -9.16699 89.5 -27.5s37 -46.666 37 -84.999s-23.333 -81.833 -70 -130.5c-24.667 -24.667 -51.334 -46.667 -80.001 -66c41.333 -8 69.166 -12 83.499 -12
s25 4.33301 32 13s13.167 22.667 18.5 42h31z" />
    <glyph glyph-name="threequarters" unicode="&#xbe;" horiz-adv-x="850" 
d="M91 -100l558 861h83l-558 -861h-83zM244 422c0 38.667 -27.334 58 -82.001 58h-25l5 47c16.667 0 32.834 0.833008 48.501 2.5s28.167 7 37.5 16s15.333 24.167 18 45.5c0.666992 16.667 -2.83301 30.834 -10.5 42.501s-18.834 17.5 -33.501 17.5
c-30.667 0 -48 -15.667 -52 -47c-1.33301 -7.33301 -0.333008 -17.333 3 -30h-80c-1.33301 9.33301 -2 18 -2 26c0 22.667 8.66699 42 26 58c30 28 65.833 42 107.5 42s73.167 -9.33301 94.5 -28s32 -42.667 32 -72c0 -37.333 -17.667 -67 -53 -89
c20 -7.33301 35.5 -17.833 46.5 -31.5s16.5 -28.834 16.5 -45.501c0 -42.667 -17 -75 -51 -97c-27.333 -18 -59.666 -27 -96.999 -27c-70 0 -121.667 27 -155 81l81 46c0.666992 -25.333 7.16699 -44.5 19.5 -57.5s27.5 -19.5 45.5 -19.5s32.5 5.83301 43.5 17.5
s16.5 26.5 16.5 44.5zM525.999 394c16 16 40.001 24 72.001 24c16 0 28.167 -4 36.5 -12s12.5 -16 12.5 -24s-0.166992 -14.833 -0.5 -20.5s-2.5 -13.834 -6.5 -24.501s-9.83301 -23.334 -17.5 -38.001l-20 -37l-23.5 -40.5c-10 -17 -16 -27.5 -18 -31.5h82l30 188
c13.333 2.66699 26 4 38 4c28 0 42 -11.333 42 -34c0 -9.33301 -9.66699 -63.666 -29 -162.999c47.333 -11.333 71 -40.666 71 -87.999c0 -42 -11.333 -72.333 -34 -91c-17.333 -13.333 -37 -20 -59 -20c-24.667 0 -43.834 6.5 -57.501 19.5s-20.5 29.833 -20.5 50.5
c0 3.33301 0.666992 8.33301 2 15l7 53h-141v2c-3.33301 4.66699 -8 14 -14 28s-9 22.167 -9 24.5s0.333008 3.83301 1 4.5c57.333 75.333 86 134 86 176c0 15.333 -10 27 -30 35zM720 43c20 0 30 15.668 30 47.001c0 10.667 -2.66699 19.167 -8 25.5
s-15.333 10.166 -30 11.499l-8 -60c0 -16 5.33301 -24 16 -24z" />
    <glyph glyph-name="questiondown" unicode="&#xbf;" horiz-adv-x="593" 
d="M430 568c22.667 0 42 -7.83301 58 -23.5s24 -34.834 24 -57.501s-8 -42.167 -24 -58.5s-35.333 -24.5 -58 -24.5s-42 8.16699 -58 24.5s-24 35.833 -24 58.5s8 41.834 24 57.501s35.333 23.5 58 23.5zM467 311c6 -6.66699 10.3311 -17.667 12.998 -33
s4 -25.666 4 -30.999c0 -32 -9.83301 -60.5 -29.5 -85.5s-41.667 -46 -66 -63l-72.5 -51c-24 -17 -44.667 -37.833 -62 -62.5c-18 -26.667 -27 -53.667 -27 -81s7.33301 -50 22 -68s37 -27 67 -27s54.333 11 73 33c19.333 22.667 29 49.5 29 80.5s-6.33301 55.5 -19 73.5h97
c12 -28.667 18 -56.667 18 -84c-2 -53.333 -24.5 -97.833 -67.5 -133.5s-95.667 -53.5 -158 -53.5s-112.666 17.5 -150.999 52.5s-57.5 78.833 -57.5 131.5v5c2 48.667 13.667 89 35 121s50.666 62.333 87.999 91c12.667 10 31 23.167 55 39.5s42.333 29.166 55 38.499
s24.834 21.5 36.501 36.5s18.834 30.167 21.501 45.5v6c0 10.667 -0.333008 17 -1 19h97z" />
    <glyph glyph-name="Agrave" unicode="&#xc0;" horiz-adv-x="714" 
d="M469 1017l127 -187c-17.333 -20 -30 -32.333 -38 -37l-180 133c11.333 16 26 33.5 44 52.5s33.667 31.833 47 38.5zM608 -2c-37.333 0 -65.5029 12.166 -84.5029 36.499s-31.833 69.833 -38.5 136.5c-4 34.667 -8 79.667 -12 135l-141 -44l-34 -94l-14 -38.5
c-2.66699 -7.66699 -7.5 -19.167 -14.5 -34.5s-13 -26.5 -18 -33.5s-12 -15.833 -21 -26.5s-18.167 -18.334 -27.5 -23.001c-24 -12 -49.667 -18 -77 -18s-49.5 9.83301 -66.5 29.5s-25.5 43.834 -25.5 72.501c0 8 0.666992 16.333 2 25
c8.66699 64 74.334 122.333 197.001 175l173 448c21.333 12 48.333 18 81 18h21h24.5c9.66699 0 21.834 -2 36.501 -6c0.666992 -31.333 16 -225.666 46 -582.999c2.66699 -30 6.33398 -49.5 11.001 -58.5s12.667 -13.5 24 -13.5c18.667 0 43.5 12.667 74.5 38
s58.833 57 83.5 95l28 -68l-24 -32c-70 -90.667 -138 -136 -204 -136zM448.997 587.999l-87 -243l104 35zM104.997 116.999c0 -21.333 8 -32.001 24 -32.001c12 0 21.667 8.66699 29 26c8.66699 18.667 22 51.334 40 98.001c-62 -31.333 -93 -62 -93 -92z" />
    <glyph glyph-name="Aacute" unicode="&#xc1;" horiz-adv-x="714" 
d="M430 830l127 187c13.333 -6.66699 29 -19.5 47 -38.5s32.667 -36.5 44 -52.5l-180 -133c-8 4.66699 -20.667 17 -38 37zM608 -2c-37.333 0 -65.5029 12.166 -84.5029 36.499s-31.833 69.833 -38.5 136.5c-4 34.667 -8 79.667 -12 135l-141 -44l-34 -94l-14 -38.5
c-2.66699 -7.66699 -7.5 -19.167 -14.5 -34.5s-13 -26.5 -18 -33.5s-12 -15.833 -21 -26.5s-18.167 -18.334 -27.5 -23.001c-24 -12 -49.667 -18 -77 -18s-49.5 9.83301 -66.5 29.5s-25.5 43.834 -25.5 72.501c0 8 0.666992 16.333 2 25
c8.66699 64 74.334 122.333 197.001 175l173 448c21.333 12 48.333 18 81 18h21h24.5c9.66699 0 21.834 -2 36.501 -6c0.666992 -31.333 16 -225.666 46 -582.999c2.66699 -30 6.33398 -49.5 11.001 -58.5s12.667 -13.5 24 -13.5c18.667 0 43.5 12.667 74.5 38
s58.833 57 83.5 95l28 -68l-24 -32c-70 -90.667 -138 -136 -204 -136zM448.997 587.999l-87 -243l104 35zM104.997 116.999c0 -21.333 8 -32.001 24 -32.001c12 0 21.667 8.66699 29 26c8.66699 18.667 22 51.334 40 98.001c-62 -31.333 -93 -62 -93 -92z" />
    <glyph glyph-name="Acircumflex" unicode="&#xc2;" horiz-adv-x="714" 
d="M499 980l174 -121c-14 -26 -25 -45.333 -33 -58l-141 73l-141 -73c-8 12.667 -19 32 -33 58zM608 -2c-37.333 0 -65.5029 12.166 -84.5029 36.499s-31.833 69.833 -38.5 136.5c-4 34.667 -8 79.667 -12 135l-141 -44l-34 -94l-14 -38.5
c-2.66699 -7.66699 -7.5 -19.167 -14.5 -34.5s-13 -26.5 -18 -33.5s-12 -15.833 -21 -26.5s-18.167 -18.334 -27.5 -23.001c-24 -12 -49.667 -18 -77 -18s-49.5 9.83301 -66.5 29.5s-25.5 43.834 -25.5 72.501c0 8 0.666992 16.333 2 25
c8.66699 64 74.334 122.333 197.001 175l173 448c21.333 12 48.333 18 81 18h21h24.5c9.66699 0 21.834 -2 36.501 -6c0.666992 -31.333 16 -225.666 46 -582.999c2.66699 -30 6.33398 -49.5 11.001 -58.5s12.667 -13.5 24 -13.5c18.667 0 43.5 12.667 74.5 38
s58.833 57 83.5 95l28 -68l-24 -32c-70 -90.667 -138 -136 -204 -136zM448.997 587.999l-87 -243l104 35zM104.997 116.999c0 -21.333 8 -32.001 24 -32.001c12 0 21.667 8.66699 29 26c8.66699 18.667 22 51.334 40 98.001c-62 -31.333 -93 -62 -93 -92z" />
    <glyph glyph-name="Atilde" unicode="&#xc3;" horiz-adv-x="714" 
d="M529 944c36.667 -23.333 62.667 -35 78 -35c30.667 0 55.334 22.667 74.001 68l44 -25c-6 -43.333 -20.5 -78.833 -43.5 -106.5s-50.167 -41.5 -81.5 -41.5s-64.666 12.333 -99.999 37c-36 25.333 -61.333 38 -76 38s-27.334 -4.16699 -38.001 -12.5
s-21.334 -23.833 -32.001 -46.5l-44 26c8.66699 38.667 23.667 70.5 45 95.5s46.5 37.5 75.5 37.5s61.833 -11.667 98.5 -35zM608 -2c-37.333 0 -65.5029 12.166 -84.5029 36.499s-31.833 69.833 -38.5 136.5c-4 34.667 -8 79.667 -12 135l-141 -44l-34 -94l-14 -38.5
c-2.66699 -7.66699 -7.5 -19.167 -14.5 -34.5s-13 -26.5 -18 -33.5s-12 -15.833 -21 -26.5s-18.167 -18.334 -27.5 -23.001c-24 -12 -49.667 -18 -77 -18s-49.5 9.83301 -66.5 29.5s-25.5 43.834 -25.5 72.501c0 8 0.666992 16.333 2 25
c8.66699 64 74.334 122.333 197.001 175l173 448c21.333 12 48.333 18 81 18h21h24.5c9.66699 0 21.834 -2 36.501 -6c0.666992 -31.333 16 -225.666 46 -582.999c2.66699 -30 6.33398 -49.5 11.001 -58.5s12.667 -13.5 24 -13.5c18.667 0 43.5 12.667 74.5 38
s58.833 57 83.5 95l28 -68l-24 -32c-70 -90.667 -138 -136 -204 -136zM448.997 587.999l-87 -243l104 35zM104.997 116.999c0 -21.333 8 -32.001 24 -32.001c12 0 21.667 8.66699 29 26c8.66699 18.667 22 51.334 40 98.001c-62 -31.333 -93 -62 -93 -92z" />
    <glyph glyph-name="Adieresis" unicode="&#xc4;" horiz-adv-x="714" 
d="M325.5 935.5c13.667 14.333 30.5 21.5 50.5 21.5s37 -7.16699 51 -21.5s21 -31.5 21 -51.5s-7 -37 -21 -51s-31 -21 -51 -21s-36.833 7 -50.5 21s-20.5 31 -20.5 51s6.83301 37.167 20.5 51.5zM617 957c20 0 36.999 -7.16699 50.999 -21.5s21 -31.5 21 -51.5
s-6.83301 -37 -20.5 -51s-30.667 -21 -51 -21s-37.666 7 -51.999 21s-21.5 31 -21.5 51s7.16699 37.167 21.5 51.5s31.5 21.5 51.5 21.5zM607.999 -2c-37.333 0 -65.5029 12.166 -84.5029 36.499s-31.833 69.833 -38.5 136.5c-4 34.667 -8 79.667 -12 135l-141 -44l-34 -94
l-14 -38.5c-2.66699 -7.66699 -7.5 -19.167 -14.5 -34.5s-13 -26.5 -18 -33.5s-12 -15.833 -21 -26.5s-18.167 -18.334 -27.5 -23.001c-24 -12 -49.667 -18 -77 -18s-49.5 9.83301 -66.5 29.5s-25.5 43.834 -25.5 72.501c0 8 0.666992 16.333 2 25
c8.66699 64 74.334 122.333 197.001 175l173 448c21.333 12 48.333 18 81 18h21h24.5c9.66699 0 21.834 -2 36.501 -6c0.666992 -31.333 16 -225.666 46 -582.999c2.66699 -30 6.33398 -49.5 11.001 -58.5s12.667 -13.5 24 -13.5c18.667 0 43.5 12.667 74.5 38
s58.833 57 83.5 95l28 -68l-24 -32c-70 -90.667 -138 -136 -204 -136zM448.996 587.999l-87 -243l104 35zM104.996 116.999c0 -21.333 8 -32.001 24 -32.001c12 0 21.667 8.66699 29 26c8.66699 18.667 22 51.334 40 98.001c-62 -31.333 -93 -62 -93 -92z" />
    <glyph glyph-name="Aring" unicode="&#xc5;" horiz-adv-x="714" 
d="M608 -2c-37.333 0 -65.5 12.166 -84.5 36.499s-31.833 69.833 -38.5 136.5c-4 34.667 -8 79.667 -12 135l-141 -44l-34 -94l-14 -38.5c-2.66699 -7.66699 -7.5 -19.167 -14.5 -34.5s-13 -26.5 -18 -33.5s-12 -15.833 -21 -26.5s-18.167 -18.334 -27.5 -23.001
c-24 -12 -49.667 -18 -77 -18s-49.5 9.83301 -66.5 29.5s-25.5 43.834 -25.5 72.501c0 8 0.666992 16.333 2 25c8.66699 64 74.334 122.333 197.001 175l173 448l20 9c-31.333 20 -47 46.833 -47 80.5s10.167 60.667 30.5 81s45.166 30.5 74.499 30.5
s54.166 -10.167 74.499 -30.5s30.5 -45.833 30.5 -76.5s-12.333 -56.667 -37 -78l17 -4c0.666992 -31.333 16 -225.666 46 -582.999c2.66699 -30 6.33398 -49.5 11.001 -58.5s12.667 -13.5 24 -13.5c18.667 0 43.5 12.667 74.5 38s58.833 57 83.5 95l28 -68l-24 -32
c-70 -90.667 -138 -136 -204 -136zM484 888.999c-13.333 0 -24.833 -4.83301 -34.5 -14.5s-14.5 -21.167 -14.5 -34.5s4.83301 -24.833 14.5 -34.5s21.167 -14.5 34.5 -14.5s24.833 4.83301 34.5 14.5s14.5 21.167 14.5 34.5s-4.83301 24.833 -14.5 34.5
s-21.167 14.5 -34.5 14.5zM449 587.999l-87 -243l104 35zM105 116.999c0 -21.333 8 -32.001 24 -32.001c12 0 21.667 8.66699 29 26c8.66699 18.667 22 51.334 40 98.001c-62 -31.333 -93 -62 -93 -92z" />
    <glyph glyph-name="AE" unicode="&#xc6;" horiz-adv-x="1196" 
d="M679 349c-38.667 -27.333 -58.002 -67.998 -58.002 -121.998c0 -34 12.167 -66 36.5 -96s65.5 -45 123.5 -45s113 19.667 165 59s91.333 82.333 118 129l34 -61c-86 -146 -205.667 -219 -359 -219c-76 0 -140.333 20.5 -193 61.5s-79 89.167 -79 144.5
c0 28 3.33301 52.333 10 73l-3 33l-141 -44l-34 -94l-14 -38.5c-2.66699 -7.66699 -7.5 -19.167 -14.5 -34.5s-13 -26.5 -18 -33.5s-12 -15.833 -21 -26.5s-18.167 -18.334 -27.5 -23.001c-24 -12 -49.667 -18 -77 -18s-49.5 9.83301 -66.5 29.5s-25.5 43.834 -25.5 72.501
c0 8 0.666992 16.333 2 25c8.66699 64 74.334 122.333 197.001 175l173 448c22 12 50 18 84 18l30 -2c3.33301 0 9.66602 -1.33301 18.999 -4c1.33301 -44.667 6 -112.667 14 -204c5.33301 59.333 34.833 109 88.5 149s114.334 60 182.001 60s120.667 -18 159 -54
s57.5 -83.333 57.5 -142h-95c0.666992 36 -8.83301 63.167 -28.5 81.5s-47 27.5 -82 27.5s-66.5 -12.667 -94.5 -38c-31.333 -27.333 -47 -59.333 -47 -96s10 -68.334 30 -95.001c66.667 8 117.334 3.66699 152.001 -13c21.333 -10 32 -25.833 32 -47.5
s-12.167 -36.834 -36.5 -45.501s-53.5 -13 -87.5 -13s-69 7.66699 -105 23zM449.998 588.002l-87 -243c46.667 16 81.667 27.667 105 35zM558.998 481.002l8 -88l15.5 9c7 4 11.5 6.66699 13.5 8c-16.667 21.333 -29 45 -37 71zM105.998 117.002
c0 -21.333 8 -32.001 24 -32.001c12 0 21.667 8.66699 29 26c8.66699 18.667 22 51.334 40 98.001c-62 -31.333 -93 -62 -93 -92z" />
    <glyph glyph-name="Ccedilla" unicode="&#xc7;" horiz-adv-x="575" 
d="M411.5 -56c19.667 -16 29.4961 -39.3301 29.4961 -69.9971s-11.5 -55.667 -34.5 -75s-49.167 -29 -78.5 -29c-47.333 0 -82.333 16 -105 48l18 38c6 -9.33301 16.5 -18.333 31.5 -27s29.833 -13 44.5 -13s26.834 5.5 36.501 16.5s14.5 25 14.5 42s-6.5 30.5 -19.5 40.5
s-28.833 15 -47.5 15s-29.667 -0.333008 -33 -1l25 66c-90.667 6.66699 -157.167 36 -199.5 88s-63.5 119.667 -63.5 203s14.833 160.5 44.5 231.5s73.834 129.333 132.501 175s122.167 68.5 190.5 68.5s122 -16.5 161 -49.5s58.5 -77.333 58.5 -133
s-17.167 -101.834 -51.5 -138.501s-74.5 -55 -120.5 -55s-81.667 10.167 -107 30.5s-38 42 -38 65s9.16699 41 27.5 54s45.166 19.5 80.499 19.5c-8.66699 -8.66699 -13 -20.167 -13 -34.5s4.33301 -26.833 13 -37.5s22 -16 40 -16s36 9.5 54 28.5s27 44.167 27 75.5
s-9.5 56.333 -28.5 75s-45.833 28 -80.5 28c-45.333 0 -86.5 -18.333 -123.5 -55s-65.167 -83.334 -84.5 -140.001s-29 -116.334 -29 -179.001c0 -54 11.667 -101.667 35 -143c12 -21.333 29.833 -38.333 53.5 -51s51.5 -19 83.5 -19c54.667 0 107.334 17.5 158.001 52.5
s93.334 80.167 128.001 135.5l34 -61c-37.333 -61.333 -84 -112 -140 -152s-118 -62 -186 -66l-10 -28l6 1c24.667 0 46.834 -8 66.501 -24z" />
    <glyph glyph-name="Egrave" unicode="&#xc8;" horiz-adv-x="481" 
d="M362 1017l127 -187c-17.333 -20 -30 -32.333 -38 -37l-180 133c11.333 16 26 33.5 44 52.5s33.667 31.833 47 38.5zM234 349c-38.667 -27.333 -58.002 -67.9971 -58.002 -121.997c0 -34 12.167 -66 36.5 -96s65.5 -45 123.5 -45s113 19.667 165 59s91.333 82.333 118 129
l34 -61c-86 -146 -205.667 -219 -359 -219c-76 0 -140.333 20.5 -193 61.5s-79 89.167 -79 144.5c0 96.667 43 166.667 129 210c-28.667 35.333 -43 76.666 -43 123.999c0 62 26.833 115.333 80.5 160s115.834 67 186.501 67s125.167 -18 163.5 -54s57.5 -83.333 57.5 -142
h-95c0.666992 36 -8.83301 63.167 -28.5 81.5s-47 27.5 -82 27.5s-66.5 -12.667 -94.5 -38c-31.333 -27.333 -47 -59.333 -47 -96s10 -68.334 30 -95.001c66.667 8 117.334 3.66699 152.001 -13c21.333 -10 32 -25.833 32 -47.5s-12.167 -36.834 -36.5 -45.501
s-53.5 -13 -87.5 -13s-69 7.66699 -105 23z" />
    <glyph glyph-name="Eacute" unicode="&#xc9;" horiz-adv-x="481" 
d="M323 830l127 187c13.333 -6.66699 29 -19.5 47 -38.5s32.667 -36.5 44 -52.5l-180 -133c-8 4.66699 -20.667 17 -38 37zM234 349c-38.667 -27.333 -58.002 -67.9971 -58.002 -121.997c0 -34 12.167 -66 36.5 -96s65.5 -45 123.5 -45s113 19.667 165 59
s91.333 82.333 118 129l34 -61c-86 -146 -205.667 -219 -359 -219c-76 0 -140.333 20.5 -193 61.5s-79 89.167 -79 144.5c0 96.667 43 166.667 129 210c-28.667 35.333 -43 76.666 -43 123.999c0 62 26.833 115.333 80.5 160s115.834 67 186.501 67s125.167 -18 163.5 -54
s57.5 -83.333 57.5 -142h-95c0.666992 36 -8.83301 63.167 -28.5 81.5s-47 27.5 -82 27.5s-66.5 -12.667 -94.5 -38c-31.333 -27.333 -47 -59.333 -47 -96s10 -68.334 30 -95.001c66.667 8 117.334 3.66699 152.001 -13c21.333 -10 32 -25.833 32 -47.5
s-12.167 -36.834 -36.5 -45.501s-53.5 -13 -87.5 -13s-69 7.66699 -105 23z" />
    <glyph glyph-name="Ecircumflex" unicode="&#xca;" horiz-adv-x="481" 
d="M392 980l174 -121c-14 -26 -25 -45.333 -33 -58l-141 73l-141 -73c-8 12.667 -19 32 -33 58zM234 349c-38.667 -27.333 -58.002 -67.9971 -58.002 -121.997c0 -34 12.167 -66 36.5 -96s65.5 -45 123.5 -45s113 19.667 165 59s91.333 82.333 118 129l34 -61
c-86 -146 -205.667 -219 -359 -219c-76 0 -140.333 20.5 -193 61.5s-79 89.167 -79 144.5c0 96.667 43 166.667 129 210c-28.667 35.333 -43 76.666 -43 123.999c0 62 26.833 115.333 80.5 160s115.834 67 186.501 67s125.167 -18 163.5 -54s57.5 -83.333 57.5 -142h-95
c0.666992 36 -8.83301 63.167 -28.5 81.5s-47 27.5 -82 27.5s-66.5 -12.667 -94.5 -38c-31.333 -27.333 -47 -59.333 -47 -96s10 -68.334 30 -95.001c66.667 8 117.334 3.66699 152.001 -13c21.333 -10 32 -25.833 32 -47.5s-12.167 -36.834 -36.5 -45.501
s-53.5 -13 -87.5 -13s-69 7.66699 -105 23z" />
    <glyph glyph-name="Edieresis" unicode="&#xcb;" horiz-adv-x="481" 
d="M218.5 935.5c13.667 14.333 30.5 21.5 50.5 21.5s37 -7.16699 51 -21.5s21 -31.5 21 -51.5s-7 -37 -21 -51s-31 -21 -51 -21s-36.833 7 -50.5 21s-20.5 31 -20.5 51s6.83301 37.167 20.5 51.5zM510 957c20 0 36.999 -7.16699 50.999 -21.5s21 -31.5 21 -51.5
s-6.83301 -37 -20.5 -51s-30.667 -21 -51 -21s-37.666 7 -51.999 21s-21.5 31 -21.5 51s7.16699 37.167 21.5 51.5s31.5 21.5 51.5 21.5zM233.999 349c-38.667 -27.333 -58.002 -67.9971 -58.002 -121.997c0 -34 12.167 -66 36.5 -96s65.5 -45 123.5 -45s113 19.667 165 59
s91.333 82.333 118 129l34 -61c-86 -146 -205.667 -219 -359 -219c-76 0 -140.333 20.5 -193 61.5s-79 89.167 -79 144.5c0 96.667 43 166.667 129 210c-28.667 35.333 -43 76.666 -43 123.999c0 62 26.833 115.333 80.5 160s115.834 67 186.501 67s125.167 -18 163.5 -54
s57.5 -83.333 57.5 -142h-95c0.666992 36 -8.83301 63.167 -28.5 81.5s-47 27.5 -82 27.5s-66.5 -12.667 -94.5 -38c-31.333 -27.333 -47 -59.333 -47 -96s10 -68.334 30 -95.001c66.667 8 117.334 3.66699 152.001 -13c21.333 -10 32 -25.833 32 -47.5
s-12.167 -36.834 -36.5 -45.501s-53.5 -13 -87.5 -13s-69 7.66699 -105 23z" />
    <glyph glyph-name="Igrave" unicode="&#xcc;" horiz-adv-x="483" 
d="M314 1017l127 -187c-17.333 -20 -30 -32.333 -38 -37l-180 133c11.333 16 26 33.5 44 52.5s33.667 31.833 47 38.5zM556 648c-10.667 4.66699 -21.166 7 -31.499 7s-20.333 -6.33301 -30 -19s-16.167 -31 -19.5 -55l-52 -371c-9.33301 -67.333 -32.5 -120.333 -69.5 -159
s-83.167 -58 -138.5 -58s-98.166 15.5 -128.499 46.5s-45.5 68 -45.5 111s14.833 79.5 44.5 109.5s67.167 45 112.5 45c28 0 50 -2 66 -6l-5 -61c-11.333 2.66699 -28.833 4 -52.5 4s-44.667 -8 -63 -24s-27.5 -36 -27.5 -60s6.66699 -42.5 20 -55.5s29.333 -19.5 48 -19.5
c56 0 88.667 41.333 98 124c18 165.333 31 277 39 335c-40 -14 -75.333 -21 -106 -21c-48.667 0 -85.834 11.333 -111.501 34s-38.5 52.334 -38.5 89.001s13.167 65.5 39.5 86.5s59.5 31.5 99.5 31.5c24.667 0 60.167 -7.66699 106.5 -23s82.166 -23 107.499 -23
c45.333 0 83.333 11.667 114 35c16.667 -23.333 25 -51 25 -83c0 -6.66699 -0.333008 -13.334 -1 -20.001zM164.001 617c0 -10 5.49902 -18.667 16.499 -26s27.667 -11 50 -11s51.5 10 87.5 30c-26 6 -52.667 12.833 -80 20.5s-43.666 11.5 -48.999 11.5
c-16.667 0 -25 -8.33301 -25 -25z" />
    <glyph glyph-name="Iacute" unicode="&#xcd;" horiz-adv-x="483" 
d="M275 830l127 187c13.333 -6.66699 29 -19.5 47 -38.5s32.667 -36.5 44 -52.5l-180 -133c-8 4.66699 -20.667 17 -38 37zM556 648c-10.667 4.66699 -21.166 7 -31.499 7s-20.333 -6.33301 -30 -19s-16.167 -31 -19.5 -55l-52 -371
c-9.33301 -67.333 -32.5 -120.333 -69.5 -159s-83.167 -58 -138.5 -58s-98.166 15.5 -128.499 46.5s-45.5 68 -45.5 111s14.833 79.5 44.5 109.5s67.167 45 112.5 45c28 0 50 -2 66 -6l-5 -61c-11.333 2.66699 -28.833 4 -52.5 4s-44.667 -8 -63 -24s-27.5 -36 -27.5 -60
s6.66699 -42.5 20 -55.5s29.333 -19.5 48 -19.5c56 0 88.667 41.333 98 124c18 165.333 31 277 39 335c-40 -14 -75.333 -21 -106 -21c-48.667 0 -85.834 11.333 -111.501 34s-38.5 52.334 -38.5 89.001s13.167 65.5 39.5 86.5s59.5 31.5 99.5 31.5
c24.667 0 60.167 -7.66699 106.5 -23s82.166 -23 107.499 -23c45.333 0 83.333 11.667 114 35c16.667 -23.333 25 -51 25 -83c0 -6.66699 -0.333008 -13.334 -1 -20.001zM164.001 617c0 -10 5.49902 -18.667 16.499 -26s27.667 -11 50 -11s51.5 10 87.5 30
c-26 6 -52.667 12.833 -80 20.5s-43.666 11.5 -48.999 11.5c-16.667 0 -25 -8.33301 -25 -25z" />
    <glyph glyph-name="Icircumflex" unicode="&#xce;" horiz-adv-x="483" 
d="M344 980l174 -121c-14 -26 -25 -45.333 -33 -58l-141 73l-141 -73c-8 12.667 -19 32 -33 58zM556 648c-10.667 4.66699 -21.166 7 -31.499 7s-20.333 -6.33301 -30 -19s-16.167 -31 -19.5 -55l-52 -371c-9.33301 -67.333 -32.5 -120.333 -69.5 -159
s-83.167 -58 -138.5 -58s-98.166 15.5 -128.499 46.5s-45.5 68 -45.5 111s14.833 79.5 44.5 109.5s67.167 45 112.5 45c28 0 50 -2 66 -6l-5 -61c-11.333 2.66699 -28.833 4 -52.5 4s-44.667 -8 -63 -24s-27.5 -36 -27.5 -60s6.66699 -42.5 20 -55.5s29.333 -19.5 48 -19.5
c56 0 88.667 41.333 98 124c18 165.333 31 277 39 335c-40 -14 -75.333 -21 -106 -21c-48.667 0 -85.834 11.333 -111.501 34s-38.5 52.334 -38.5 89.001s13.167 65.5 39.5 86.5s59.5 31.5 99.5 31.5c24.667 0 60.167 -7.66699 106.5 -23s82.166 -23 107.499 -23
c45.333 0 83.333 11.667 114 35c16.667 -23.333 25 -51 25 -83c0 -6.66699 -0.333008 -13.334 -1 -20.001zM164.001 617c0 -10 5.49902 -18.667 16.499 -26s27.667 -11 50 -11s51.5 10 87.5 30c-26 6 -52.667 12.833 -80 20.5s-43.666 11.5 -48.999 11.5
c-16.667 0 -25 -8.33301 -25 -25z" />
    <glyph glyph-name="Idieresis" unicode="&#xcf;" horiz-adv-x="483" 
d="M170.5 935.5c13.667 14.333 30.5 21.5 50.5 21.5s37 -7.16699 51 -21.5s21 -31.5 21 -51.5s-7 -37 -21 -51s-31 -21 -51 -21s-36.833 7 -50.5 21s-20.5 31 -20.5 51s6.83301 37.167 20.5 51.5zM462 957c20 0 36.999 -7.16699 50.999 -21.5s21 -31.5 21 -51.5
s-6.83301 -37 -20.5 -51s-30.667 -21 -51 -21s-37.666 7 -51.999 21s-21.5 31 -21.5 51s7.16699 37.167 21.5 51.5s31.5 21.5 51.5 21.5zM555.999 648c-10.667 4.66699 -21.166 7 -31.499 7s-20.333 -6.33301 -30 -19s-16.167 -31 -19.5 -55l-52 -371
c-9.33301 -67.333 -32.5 -120.333 -69.5 -159s-83.167 -58 -138.5 -58s-98.166 15.5 -128.499 46.5s-45.5 68 -45.5 111s14.833 79.5 44.5 109.5s67.167 45 112.5 45c28 0 50 -2 66 -6l-5 -61c-11.333 2.66699 -28.833 4 -52.5 4s-44.667 -8 -63 -24s-27.5 -36 -27.5 -60
s6.66699 -42.5 20 -55.5s29.333 -19.5 48 -19.5c56 0 88.667 41.333 98 124c18 165.333 31 277 39 335c-40 -14 -75.333 -21 -106 -21c-48.667 0 -85.834 11.333 -111.501 34s-38.5 52.334 -38.5 89.001s13.167 65.5 39.5 86.5s59.5 31.5 99.5 31.5
c24.667 0 60.167 -7.66699 106.5 -23s82.166 -23 107.499 -23c45.333 0 83.333 11.667 114 35c16.667 -23.333 25 -51 25 -83c0 -6.66699 -0.333008 -13.334 -1 -20.001zM164 617c0 -10 5.49902 -18.667 16.499 -26s27.667 -11 50 -11s51.5 10 87.5 30
c-26 6 -52.667 12.833 -80 20.5s-43.666 11.5 -48.999 11.5c-16.667 0 -25 -8.33301 -25 -25z" />
    <glyph glyph-name="Eth" unicode="&#xd0;" horiz-adv-x="744" 
d="M45 534c0 72.667 30.999 129.334 92.999 170.001s133.333 61 214 61c103.333 0 194 -29.667 272 -89c38.667 -30 68.667 -69.833 90 -119.5s32 -104.5 32 -164.5c0 -118 -33.667 -214 -101 -288c-70 -75.333 -157.667 -113 -263 -113c-23.333 0 -48 3 -74 9
s-46.667 14 -62 24c-24.667 -18.667 -56.167 -28 -94.5 -28s-68.166 10.667 -89.499 32s-32 48.666 -32 81.999c0 78.667 59.667 145.667 179 201l10 80h-176l9 86h8c-10 18 -15 37 -15 57zM300.999 97c20.667 -5.33301 37.332 -8.00098 49.999 -8.00098
c76.667 0 136 29 178 87c43.333 60.667 65 134 65 220c0 110 -39.667 189 -119 237c-44 26.667 -92.333 40 -145 40c-67.333 0 -120.666 -18.333 -159.999 -55c-22.667 -20.667 -34 -45.667 -34 -75c0 -14 4.16699 -27.667 12.5 -41s22.833 -21.666 43.5 -24.999h38
c8 66.667 13.333 107 16 121c27.333 17.333 59 26 95 26c16.667 0 32.667 -1.66699 48 -5l-21 -142h66l-9 -86h-70l-29 -199c-6 -38 -14.333 -69.667 -25 -95zM103.997 122.999c0 -24 11.334 -36.001 34.001 -36.001c9.33301 0 19.166 6.16699 29.499 18.5
s17.5 31.833 21.5 58.5l9 62c-62.667 -35.333 -94 -69.666 -94 -102.999z" />
    <glyph glyph-name="Ntilde" unicode="&#xd1;" horiz-adv-x="730" 
d="M507 944c36.667 -23.333 62.667 -35 78 -35c30.667 0 55.334 22.667 74.001 68l44 -25c-6 -43.333 -20.5 -78.833 -43.5 -106.5s-50.167 -41.5 -81.5 -41.5s-64.666 12.333 -99.999 37c-36 25.333 -61.333 38 -76 38s-27.334 -4.16699 -38.001 -12.5
s-21.334 -23.833 -32.001 -46.5l-44 26c8.66699 38.667 23.667 70.5 45 95.5s46.5 37.5 75.5 37.5s61.833 -11.667 98.5 -35zM636 727c22 22.667 50.9971 34.001 86.9971 34.001s62.5 -10.5 79.5 -31.5s25.5 -42.167 25.5 -63.5c0 -6.66699 -0.666992 -13.334 -2 -20.001
c-14.667 -74 -63.667 -131.667 -147 -173l-70 -473h-168l-119 527l-55 -390c-7.33301 -49.333 -22.5 -85.666 -45.5 -108.999s-49.833 -35 -80.5 -35s-56.167 9 -76.5 27s-32.833 43.667 -37.5 77c-0.666992 5.33301 -1 10.666 -1 15.999c0 66 49.667 122.667 149 170
l43 322c16.667 7.33301 31.167 11 43.5 11s22.833 -1 31.5 -3c-15.333 24 -39.666 36 -72.999 36s-62.666 -17.333 -87.999 -52l-19 86c12.667 17.333 34.834 34.833 66.501 52.5s66.667 26.5 105 26.5s70.833 -11.5 97.5 -34.5s46 -61.5 58 -115.5l94 -396l58 400
c7.33301 51.333 22 88.333 44 111zM691.997 559.001c41.333 29.333 62.001 56.667 62.001 82c0 4.66699 -1.66699 10 -5 16s-8.33301 9 -15 9c-12.667 0 -21.334 -7 -26.001 -21c-6.66699 -19.333 -12 -48 -16 -86zM95.998 124.002c0 -24.667 9 -37.001 27 -37.001
c12 0 20.667 7.83301 26 23.5s10.333 43.834 15 84.501l1 5c-46 -26 -69 -51.333 -69 -76z" />
    <glyph glyph-name="Ograve" unicode="&#xd2;" horiz-adv-x="747" 
d="M442 1017l127 -187c-17.333 -20 -30 -32.333 -38 -37l-180 133c11.333 16 26 33.5 44 52.5s33.667 31.833 47 38.5zM925 402c-15.333 -16.667 -40.6709 -31.498 -76.0039 -44.498s-63.5 -19.5 -84.5 -19.5s-36.5 0.666992 -46.5 2
c-16.667 -98.667 -59.167 -181 -127.5 -247s-147.666 -99 -237.999 -99s-158.333 28 -204 84s-68.5 129 -68.5 219c0 58.667 9 115.834 27 171.501s42.833 105.167 74.5 148.5s71.5 78.166 119.5 104.499s98.167 39.5 150.5 39.5s95.333 -11.833 129 -35.5
s50.5 -56.5 50.5 -98.5c0 -32 -11.167 -60.5 -33.5 -85.5s-53.166 -37.5 -92.499 -37.5c-20.667 0 -39 5.16699 -55 15.5s-24 26.833 -24 49.5c0 10.667 2.66699 20 8 28s10.666 13 15.999 15l9 4c0 -26.667 10.667 -40 32 -40c10 0 18.667 3.5 26 10.5
s11.333 14.833 12 23.5s0.333984 15.5 -0.999023 20.5s-4 10.833 -8 17.5c-9.33301 16.667 -29 25 -59 25c-39.333 0 -76.666 -18.667 -111.999 -56s-63.5 -85.333 -84.5 -144s-31.5 -118.667 -31.5 -180c0 -51.333 8.33301 -97 25 -137
c9.33301 -21.333 23 -38.166 41 -50.499s39.667 -18.5 65 -18.5c42 0 79.5 17.667 112.5 53s57.333 78 73 128s23.5 100.667 23.5 152v12c-2 7.33301 -3 14.333 -3 21c0 32 11.333 56.333 34 73c14.667 10.667 33 16 55 16c6 0 15.667 -1 29 -3s22.666 -5 27.999 -9
c-14 -0.666992 -24.833 -5.33398 -32.5 -14.001s-11.5 -20.334 -11.5 -35.001s6.66699 -28.334 20 -41.001c18.667 -18 47.834 -27 87.501 -27s80.834 16.333 123.501 49z" />
    <glyph glyph-name="Oacute" unicode="&#xd3;" horiz-adv-x="747" 
d="M403 830l127 187c13.333 -6.66699 29 -19.5 47 -38.5s32.667 -36.5 44 -52.5l-180 -133c-8 4.66699 -20.667 17 -38 37zM925 402c-15.333 -16.667 -40.6709 -31.498 -76.0039 -44.498s-63.5 -19.5 -84.5 -19.5s-36.5 0.666992 -46.5 2
c-16.667 -98.667 -59.167 -181 -127.5 -247s-147.666 -99 -237.999 -99s-158.333 28 -204 84s-68.5 129 -68.5 219c0 58.667 9 115.834 27 171.501s42.833 105.167 74.5 148.5s71.5 78.166 119.5 104.499s98.167 39.5 150.5 39.5s95.333 -11.833 129 -35.5
s50.5 -56.5 50.5 -98.5c0 -32 -11.167 -60.5 -33.5 -85.5s-53.166 -37.5 -92.499 -37.5c-20.667 0 -39 5.16699 -55 15.5s-24 26.833 -24 49.5c0 10.667 2.66699 20 8 28s10.666 13 15.999 15l9 4c0 -26.667 10.667 -40 32 -40c10 0 18.667 3.5 26 10.5
s11.333 14.833 12 23.5s0.333984 15.5 -0.999023 20.5s-4 10.833 -8 17.5c-9.33301 16.667 -29 25 -59 25c-39.333 0 -76.666 -18.667 -111.999 -56s-63.5 -85.333 -84.5 -144s-31.5 -118.667 -31.5 -180c0 -51.333 8.33301 -97 25 -137
c9.33301 -21.333 23 -38.166 41 -50.499s39.667 -18.5 65 -18.5c42 0 79.5 17.667 112.5 53s57.333 78 73 128s23.5 100.667 23.5 152v12c-2 7.33301 -3 14.333 -3 21c0 32 11.333 56.333 34 73c14.667 10.667 33 16 55 16c6 0 15.667 -1 29 -3s22.666 -5 27.999 -9
c-14 -0.666992 -24.833 -5.33398 -32.5 -14.001s-11.5 -20.334 -11.5 -35.001s6.66699 -28.334 20 -41.001c18.667 -18 47.834 -27 87.501 -27s80.834 16.333 123.501 49z" />
    <glyph glyph-name="Ocircumflex" unicode="&#xd4;" horiz-adv-x="747" 
d="M472 980l174 -121c-14 -26 -25 -45.333 -33 -58l-141 73l-141 -73c-8 12.667 -19 32 -33 58zM925 402c-15.333 -16.667 -40.6709 -31.498 -76.0039 -44.498s-63.5 -19.5 -84.5 -19.5s-36.5 0.666992 -46.5 2c-16.667 -98.667 -59.167 -181 -127.5 -247
s-147.666 -99 -237.999 -99s-158.333 28 -204 84s-68.5 129 -68.5 219c0 58.667 9 115.834 27 171.501s42.833 105.167 74.5 148.5s71.5 78.166 119.5 104.499s98.167 39.5 150.5 39.5s95.333 -11.833 129 -35.5s50.5 -56.5 50.5 -98.5c0 -32 -11.167 -60.5 -33.5 -85.5
s-53.166 -37.5 -92.499 -37.5c-20.667 0 -39 5.16699 -55 15.5s-24 26.833 -24 49.5c0 10.667 2.66699 20 8 28s10.666 13 15.999 15l9 4c0 -26.667 10.667 -40 32 -40c10 0 18.667 3.5 26 10.5s11.333 14.833 12 23.5s0.333984 15.5 -0.999023 20.5s-4 10.833 -8 17.5
c-9.33301 16.667 -29 25 -59 25c-39.333 0 -76.666 -18.667 -111.999 -56s-63.5 -85.333 -84.5 -144s-31.5 -118.667 -31.5 -180c0 -51.333 8.33301 -97 25 -137c9.33301 -21.333 23 -38.166 41 -50.499s39.667 -18.5 65 -18.5c42 0 79.5 17.667 112.5 53s57.333 78 73 128
s23.5 100.667 23.5 152v12c-2 7.33301 -3 14.333 -3 21c0 32 11.333 56.333 34 73c14.667 10.667 33 16 55 16c6 0 15.667 -1 29 -3s22.666 -5 27.999 -9c-14 -0.666992 -24.833 -5.33398 -32.5 -14.001s-11.5 -20.334 -11.5 -35.001s6.66699 -28.334 20 -41.001
c18.667 -18 47.834 -27 87.501 -27s80.834 16.333 123.501 49z" />
    <glyph glyph-name="Otilde" unicode="&#xd5;" horiz-adv-x="747" 
d="M502 944c36.667 -23.333 62.6689 -35 78.002 -35c30.667 0 55.334 22.667 74.001 68l44 -25c-6 -43.333 -20.5 -78.833 -43.5 -106.5s-50.167 -41.5 -81.5 -41.5s-64.333 12.333 -99 37c-36.667 25.333 -62.334 38 -77.001 38s-27.334 -4.16699 -38.001 -12.5
s-21.334 -23.833 -32.001 -46.5l-44 26c8.66699 38.667 23.667 70.5 45 95.5s46.5 37.5 75.5 37.5s61.833 -11.667 98.5 -35zM925.002 402c-15.333 -16.667 -40.6709 -31.498 -76.0039 -44.498s-63.5 -19.5 -84.5 -19.5s-36.5 0.666992 -46.5 2
c-16.667 -98.667 -59.167 -181 -127.5 -247s-147.666 -99 -237.999 -99s-158.333 28 -204 84s-68.5 129 -68.5 219c0 58.667 9 115.834 27 171.501s42.833 105.167 74.5 148.5s71.5 78.166 119.5 104.499s98.167 39.5 150.5 39.5s95.333 -11.833 129 -35.5
s50.5 -56.5 50.5 -98.5c0 -32 -11.167 -60.5 -33.5 -85.5s-53.166 -37.5 -92.499 -37.5c-20.667 0 -39 5.16699 -55 15.5s-24 26.833 -24 49.5c0 10.667 2.66699 20 8 28s10.666 13 15.999 15l9 4c0 -26.667 10.667 -40 32 -40c10 0 18.667 3.5 26 10.5
s11.333 14.833 12 23.5s0.333984 15.5 -0.999023 20.5s-4 10.833 -8 17.5c-9.33301 16.667 -29 25 -59 25c-39.333 0 -76.666 -18.667 -111.999 -56s-63.5 -85.333 -84.5 -144s-31.5 -118.667 -31.5 -180c0 -51.333 8.33301 -97 25 -137
c9.33301 -21.333 23 -38.166 41 -50.499s39.667 -18.5 65 -18.5c42 0 79.5 17.667 112.5 53s57.333 78 73 128s23.5 100.667 23.5 152v12c-2 7.33301 -3 14.333 -3 21c0 32 11.333 56.333 34 73c14.667 10.667 33 16 55 16c6 0 15.667 -1 29 -3s22.666 -5 27.999 -9
c-14 -0.666992 -24.833 -5.33398 -32.5 -14.001s-11.5 -20.334 -11.5 -35.001s6.66699 -28.334 20 -41.001c18.667 -18 47.834 -27 87.501 -27s80.834 16.333 123.501 49z" />
    <glyph glyph-name="Odieresis" unicode="&#xd6;" horiz-adv-x="747" 
d="M298.5 935.5c13.667 14.333 30.5 21.5 50.5 21.5s37 -7.16699 51 -21.5s21 -31.5 21 -51.5s-7 -37 -21 -51s-31 -21 -51 -21s-36.833 7 -50.5 21s-20.5 31 -20.5 51s6.83301 37.167 20.5 51.5zM590 957c20 0 36.999 -7.16699 50.999 -21.5s21 -31.5 21 -51.5
s-6.83301 -37 -20.5 -51s-30.667 -21 -51 -21s-37.666 7 -51.999 21s-21.5 31 -21.5 51s7.16699 37.167 21.5 51.5s31.5 21.5 51.5 21.5zM924.999 402c-15.333 -16.667 -40.6709 -31.498 -76.0039 -44.498s-63.5 -19.5 -84.5 -19.5s-36.5 0.666992 -46.5 2
c-16.667 -98.667 -59.167 -181 -127.5 -247s-147.666 -99 -237.999 -99s-158.333 28 -204 84s-68.5 129 -68.5 219c0 58.667 9 115.834 27 171.501s42.833 105.167 74.5 148.5s71.5 78.166 119.5 104.499s98.167 39.5 150.5 39.5s95.333 -11.833 129 -35.5
s50.5 -56.5 50.5 -98.5c0 -32 -11.167 -60.5 -33.5 -85.5s-53.166 -37.5 -92.499 -37.5c-20.667 0 -39 5.16699 -55 15.5s-24 26.833 -24 49.5c0 10.667 2.66699 20 8 28s10.666 13 15.999 15l9 4c0 -26.667 10.667 -40 32 -40c10 0 18.667 3.5 26 10.5
s11.333 14.833 12 23.5s0.333984 15.5 -0.999023 20.5s-4 10.833 -8 17.5c-9.33301 16.667 -29 25 -59 25c-39.333 0 -76.666 -18.667 -111.999 -56s-63.5 -85.333 -84.5 -144s-31.5 -118.667 -31.5 -180c0 -51.333 8.33301 -97 25 -137
c9.33301 -21.333 23 -38.166 41 -50.499s39.667 -18.5 65 -18.5c42 0 79.5 17.667 112.5 53s57.333 78 73 128s23.5 100.667 23.5 152v12c-2 7.33301 -3 14.333 -3 21c0 32 11.333 56.333 34 73c14.667 10.667 33 16 55 16c6 0 15.667 -1 29 -3s22.666 -5 27.999 -9
c-14 -0.666992 -24.833 -5.33398 -32.5 -14.001s-11.5 -20.334 -11.5 -35.001s6.66699 -28.334 20 -41.001c18.667 -18 47.834 -27 87.501 -27s80.834 16.333 123.501 49z" />
    <glyph glyph-name="multiply" unicode="&#xd7;" horiz-adv-x="383" 
d="M390 69l-179 195l-203 -200l-55 62l202 199l-168 183l62 62l169 -182l188 185l53 -63l-185 -183l181 -195z" />
    <glyph glyph-name="Oslash" unicode="&#xd8;" horiz-adv-x="747" 
d="M925 402c-15.333 -16.667 -40.6689 -31.4971 -76.002 -44.4971s-63.5 -19.5 -84.5 -19.5s-36.5 0.666992 -46.5 2c-16.667 -98.667 -59.167 -181 -127.5 -247s-149.833 -99 -244.5 -99h-19l-16 -54h-83l21 69c-55.333 19.333 -97.333 54.5 -126 105.5
s-43 108.833 -43 173.5s9 124.834 27 180.501s42.833 105.167 74.5 148.5s71.5 78.166 119.5 104.499s100 39.5 156 39.5l17 -1l12 41h83l-18 -59c53.333 -24 80 -62.333 80 -115c0 -32 -11.167 -60.5 -33.5 -85.5s-53.166 -37.5 -92.499 -37.5c-8 0 -16 1 -24 3l-126 -420
h9c42 0 79.5 17.667 112.5 53s57.333 78 73 128s23.5 100.667 23.5 152v12c-2 7.33301 -3 14.333 -3 21c0 32 11.333 56.333 34 73c14.667 10.667 33 16 55 16c6 0 15.667 -1 29 -3s22.666 -5 27.999 -9c-14 -0.666992 -24.833 -5.33398 -32.5 -14.001
s-11.5 -20.334 -11.5 -35.001s6.66699 -28.334 20 -41.001c18.667 -18 47.834 -27 87.501 -27s80.834 16.333 123.501 49zM232.997 293.003c0 -80 16.3311 -137.331 48.998 -171.998l165 551c-37.333 -4.66699 -72.666 -25.834 -105.999 -63.501
s-59.666 -84.834 -78.999 -141.501s-29 -114.667 -29 -174zM521.995 645.005l-20 -66.999c16.667 4.66699 26 17.667 28 39c0 9.33301 -2.66699 18.666 -8 27.999z" />
    <glyph glyph-name="Ugrave" unicode="&#xd9;" horiz-adv-x="602" 
d="M313 1017l127 -187c-17.333 -20 -30 -32.333 -38 -37l-180 133c11.333 16 26 33.5 44 52.5s33.667 31.833 47 38.5zM479.5 753.5c21.667 5 42.1689 7.49805 61.502 7.49805s35.333 -2.66699 48 -8c-48.667 -389.333 -73 -590.666 -73 -603.999
s4.16699 -25.166 12.5 -35.499s20.5 -15.5 36.5 -15.5c44 0 83.333 60.333 118 181c0 1.33301 0.333008 3 1 5s1 3.33301 1 4c29.333 -18.667 48.333 -30.334 57 -35.001c-22 -84 -49.333 -148.167 -82 -192.5s-74.667 -66.5 -126 -66.5s-86 24.333 -104 73h-3
c-20.667 -26 -43.667 -44.667 -69 -56s-57 -17 -95 -17c-62.667 0 -110.834 16.333 -144.501 49s-50.5 79.334 -50.5 140.001c0 12.667 1 26.667 3 42l28 234c-66 46.667 -99 101.667 -99 165c0 42 12.667 75.333 38 100s57.666 37 96.999 37c82 0 123 -43.333 123 -130
c0 -14 -1 -29.667 -3 -47l-51 -391c-0.666992 -4.66699 -1 -11.667 -1 -21c0 -26 6 -47 18 -63s30.333 -24 55 -24c59.333 0 94.333 46 105 138l60 515c4 5.33301 16.833 10.5 38.5 15.5zM98.002 668.998c-22.667 0 -34 -13.833 -34 -41.5s15.333 -54.834 46 -81.501l3 26
c4 34.667 6.33301 56.334 7 65.001c0 21.333 -7.33301 32 -22 32z" />
    <glyph glyph-name="Uacute" unicode="&#xda;" horiz-adv-x="602" 
d="M274 830l127 187c13.333 -6.66699 29 -19.5 47 -38.5s32.667 -36.5 44 -52.5l-180 -133c-8 4.66699 -20.667 17 -38 37zM479.5 753.5c21.667 5 42.1689 7.49805 61.502 7.49805s35.333 -2.66699 48 -8c-48.667 -389.333 -73 -590.666 -73 -603.999
s4.16699 -25.166 12.5 -35.499s20.5 -15.5 36.5 -15.5c44 0 83.333 60.333 118 181c0 1.33301 0.333008 3 1 5s1 3.33301 1 4c29.333 -18.667 48.333 -30.334 57 -35.001c-22 -84 -49.333 -148.167 -82 -192.5s-74.667 -66.5 -126 -66.5s-86 24.333 -104 73h-3
c-20.667 -26 -43.667 -44.667 -69 -56s-57 -17 -95 -17c-62.667 0 -110.834 16.333 -144.501 49s-50.5 79.334 -50.5 140.001c0 12.667 1 26.667 3 42l28 234c-66 46.667 -99 101.667 -99 165c0 42 12.667 75.333 38 100s57.666 37 96.999 37c82 0 123 -43.333 123 -130
c0 -14 -1 -29.667 -3 -47l-51 -391c-0.666992 -4.66699 -1 -11.667 -1 -21c0 -26 6 -47 18 -63s30.333 -24 55 -24c59.333 0 94.333 46 105 138l60 515c4 5.33301 16.833 10.5 38.5 15.5zM98.002 668.998c-22.667 0 -34 -13.833 -34 -41.5s15.333 -54.834 46 -81.501l3 26
c4 34.667 6.33301 56.334 7 65.001c0 21.333 -7.33301 32 -22 32z" />
    <glyph glyph-name="Ucircumflex" unicode="&#xdb;" horiz-adv-x="602" 
d="M343 980l174 -121c-14 -26 -25 -45.333 -33 -58l-141 73l-141 -73c-8 12.667 -19 32 -33 58zM479.5 753.5c21.667 5 42.1689 7.49805 61.502 7.49805s35.333 -2.66699 48 -8c-48.667 -389.333 -73 -590.666 -73 -603.999s4.16699 -25.166 12.5 -35.499
s20.5 -15.5 36.5 -15.5c44 0 83.333 60.333 118 181c0 1.33301 0.333008 3 1 5s1 3.33301 1 4c29.333 -18.667 48.333 -30.334 57 -35.001c-22 -84 -49.333 -148.167 -82 -192.5s-74.667 -66.5 -126 -66.5s-86 24.333 -104 73h-3c-20.667 -26 -43.667 -44.667 -69 -56
s-57 -17 -95 -17c-62.667 0 -110.834 16.333 -144.501 49s-50.5 79.334 -50.5 140.001c0 12.667 1 26.667 3 42l28 234c-66 46.667 -99 101.667 -99 165c0 42 12.667 75.333 38 100s57.666 37 96.999 37c82 0 123 -43.333 123 -130c0 -14 -1 -29.667 -3 -47l-51 -391
c-0.666992 -4.66699 -1 -11.667 -1 -21c0 -26 6 -47 18 -63s30.333 -24 55 -24c59.333 0 94.333 46 105 138l60 515c4 5.33301 16.833 10.5 38.5 15.5zM98.002 668.998c-22.667 0 -34 -13.833 -34 -41.5s15.333 -54.834 46 -81.501l3 26c4 34.667 6.33301 56.334 7 65.001
c0 21.333 -7.33301 32 -22 32z" />
    <glyph glyph-name="Udieresis" unicode="&#xdc;" horiz-adv-x="602" 
d="M169.5 935.5c13.667 14.333 30.5 21.5 50.5 21.5s37 -7.16699 51 -21.5s21 -31.5 21 -51.5s-7 -37 -21 -51s-31 -21 -51 -21s-36.833 7 -50.5 21s-20.5 31 -20.5 51s6.83301 37.167 20.5 51.5zM461 957c20 0 36.999 -7.16699 50.999 -21.5s21 -31.5 21 -51.5
s-6.83301 -37 -20.5 -51s-30.667 -21 -51 -21s-37.666 7 -51.999 21s-21.5 31 -21.5 51s7.16699 37.167 21.5 51.5s31.5 21.5 51.5 21.5zM479.499 753.5c21.667 5 42.1689 7.49805 61.502 7.49805s35.333 -2.66699 48 -8c-48.667 -389.333 -73 -590.666 -73 -603.999
s4.16699 -25.166 12.5 -35.499s20.5 -15.5 36.5 -15.5c44 0 83.333 60.333 118 181c0 1.33301 0.333008 3 1 5s1 3.33301 1 4c29.333 -18.667 48.333 -30.334 57 -35.001c-22 -84 -49.333 -148.167 -82 -192.5s-74.667 -66.5 -126 -66.5s-86 24.333 -104 73h-3
c-20.667 -26 -43.667 -44.667 -69 -56s-57 -17 -95 -17c-62.667 0 -110.834 16.333 -144.501 49s-50.5 79.334 -50.5 140.001c0 12.667 1 26.667 3 42l28 234c-66 46.667 -99 101.667 -99 165c0 42 12.667 75.333 38 100s57.666 37 96.999 37c82 0 123 -43.333 123 -130
c0 -14 -1 -29.667 -3 -47l-51 -391c-0.666992 -4.66699 -1 -11.667 -1 -21c0 -26 6 -47 18 -63s30.333 -24 55 -24c59.333 0 94.333 46 105 138l60 515c4 5.33301 16.833 10.5 38.5 15.5zM98.001 668.998c-22.667 0 -34 -13.833 -34 -41.5s15.333 -54.834 46 -81.501l3 26
c4 34.667 6.33301 56.334 7 65.001c0 21.333 -7.33301 32 -22 32z" />
    <glyph glyph-name="Yacute" unicode="&#xdd;" horiz-adv-x="644" 
d="M335 830l127 187c13.333 -6.66699 29 -19.5 47 -38.5s32.667 -36.5 44 -52.5l-180 -133c-8 4.66699 -20.667 17 -38 37zM313 643l-1 -17.0039c-2 -31.333 -11.333 -108.666 -28 -231.999c-20.667 -148 -31 -225.333 -31 -232c0 -20 6.33301 -36.833 19 -50.5
s29.5 -20.5 50.5 -20.5s40.333 7.16699 58 21.5s31.167 31.5 40.5 51.5l56 511c3.33301 30.667 15.833 52.834 37.5 66.501s44.5 20.5 68.5 20.5c16 0 32.667 -3.33301 50 -10l-67 -554c88 40.667 142.333 64.667 163 72l15 -70c-58.667 -24 -121 -51.667 -187 -83l-25 -204
c-4 -36 -12.833 -66.833 -26.5 -92.5s-30.167 -45.167 -49.5 -58.5c-35.333 -24 -73.833 -36 -115.5 -36s-76.334 15.167 -104.001 45.5s-41.5 66.833 -41.5 109.5s14 81.334 42 116.001c-35.333 6 -64.666 21.5 -87.999 46.5s-35 55.833 -35 92.5c0 4 0.666992 11.333 2 22
l32 246c-82 52 -123 116 -123 192c0 70.667 25.667 119.334 77 146.001c24 13.333 51.5 20 82.5 20s60.167 -9.83301 87.5 -29.5s41 -49.5 41 -89.5zM147 680.996c-16 0 -29.167 -7.66797 -39.5 -23.001s-15.5 -33.666 -15.5 -54.999c0 -46.667 22 -85 66 -115l19 144
c0 27.333 -6.66699 43.333 -20 48c-2.66699 0.666992 -6 1 -10 1zM271 -106.005c0 -22 5.5 -39 16.5 -51s24.167 -18 39.5 -18s29 5.5 41 16.5s19.333 26.5 22 46.5l18 157c-91.333 -50 -137 -100.333 -137 -151z" />
    <glyph glyph-name="Thorn" unicode="&#xde;" 
d="M597 377c0 -42.667 -11.333 -79.833 -34 -111.5s-49.667 -55.167 -81 -70.5c-58.667 -29.333 -121 -44 -187 -44h-21c56.667 -80.667 85 -161.334 85 -242.001c0 -54 -14 -98 -42 -132s-68 -51 -120 -51c-37.333 0 -69.166 12.833 -95.499 38.5
s-39.5 58.834 -39.5 99.501l5 50l30 237v4c0.666992 22 3 46 7 72c-40.667 7.33301 -75 24 -103 50s-42 55.333 -42 88c0 47.333 16.333 88.833 49 124.5s78 61.167 136 76.5c12 107.333 19.333 169.666 22 186.999c14 5.33301 32.667 8 56 8c53.333 0 80 -15.333 80 -46
l-17 -134c107.333 -2 186.166 -23.167 236.499 -63.5s75.5 -87.166 75.5 -140.499zM277 225.001c50.667 0 93 10.499 127 31.499s51 55.5 51 103.5c0 36 -16 65.833 -48 89.5s-76.667 36.834 -134 39.501l-36 -291c7.33301 -8 16.333 -19.333 27 -34l8 61h5zM49 366
c0 -16 5.83301 -29.667 17.5 -41s27.167 -19.333 46.5 -24l20 168c-56 -22.667 -84 -57 -84 -103zM200 -112c-0.666992 -4 -0.999023 -11.667 -0.999023 -23s3.5 -22 10.5 -32s16.167 -15 27.5 -15s22.666 6.83301 33.999 20.5s17 36.5 17 68.5
c0 56.667 -21.667 115.667 -65 177z" />
    <glyph glyph-name="germandbls" unicode="&#xdf;" horiz-adv-x="576" 
d="M301 -154c0 -61.333 -15.4932 -108.166 -46.4932 -140.499s-65.333 -48.5 -103 -48.5s-69 11.333 -94 34s-37.5 56.334 -37.5 101.001c0 10.667 30.667 277 92 799c5.33301 46.667 24.166 86.667 56.499 120s77 50 134 50s105.833 -13.667 146.5 -41s61 -62.333 61 -105
c0 -30.667 -9 -57.834 -27 -81.501s-36.333 -41.5 -55 -53.5c-48 -32.667 -72 -58.667 -72 -78c0 -8.66699 2.16699 -14.834 6.5 -18.501l9 -7.5c1.66699 -1.33301 4.5 -3.33301 8.5 -6l22.5 -15l32.5 -22c14.667 -10 27.667 -19.333 39 -28s24 -20.334 38 -35.001
c26 -27.333 39 -64.833 39 -112.5s-19.333 -86.834 -58 -117.501s-87.334 -46 -146.001 -46c-40.667 0 -75.834 10.833 -105.501 32.5s-44.5 48.834 -44.5 81.501s11 56.834 33 72.501s43 23.5 63 23.5c7.33301 0 11.666 -0.666992 12.999 -2c-6 -2 -11.333 -8 -16 -18
s-7 -22.667 -7 -38s5.5 -29 16.5 -41s25.167 -18 42.5 -18s32.166 5.5 44.499 16.5s19.166 26.833 20.499 47.5c0 22.667 -6 42.667 -18 60s-33.5 40.666 -64.5 69.999s-46.5 58 -46.5 86s7.5 55 22.5 81l47.5 83c16.667 29.333 25 55.333 25 78s-4.66699 38.667 -14 48
c-10.667 10.667 -22.5 16 -35.5 16s-23.5 -2 -31.5 -6s-14.833 -10.667 -20.5 -20s-10.5 -21.666 -14.5 -36.999c-5.33301 -21.333 -9.83301 -48.333 -13.5 -81l-11 -98.5c-3.66699 -33 -10.834 -88 -21.501 -165s-17.667 -129.833 -21 -158.5l-7 -58
c78.667 -60 118 -127.667 118 -203zM153.007 -205c0 -31.333 13.332 -47.001 39.999 -47.001c10.667 0 20.834 7.33301 30.501 22s14.5 35.334 14.5 62.001c0 53.333 -21 102 -63 146l-21 -164c-0.666992 -4.66699 -1 -11 -1 -19z" />
    <glyph glyph-name="agrave" unicode="&#xe0;" horiz-adv-x="548" 
d="M306 737l127 -187c-17.333 -20 -30 -32.333 -38 -37l-180 133c11.333 16 26 33.5 44 52.5s33.667 31.833 47 38.5zM478 -5c-61.333 0 -102 21.332 -122 63.999c-34.667 -43.333 -79.167 -65 -133.5 -65s-100 18.333 -137 55s-55.5 85 -55.5 145
c0 87.333 25.667 157 77 209s116.333 78 195 78h6c33.333 0 64 -5.66699 92 -17c18 11.333 39.833 17 65.5 17s44.167 -3.33301 55.5 -10c-6 -49.333 -12.333 -97.833 -19 -145.5l-14 -101.5c-6 -45.333 -9 -78 -9 -98c0 -26.667 10.667 -40 32 -40
c16.667 0 34.334 11.167 53.001 33.5s35 57.5 49 105.5c19.333 -17.333 32.666 -36.666 39.999 -57.999c-19.333 -63.333 -45.333 -107.833 -78 -133.5s-65 -38.5 -97 -38.5zM317 402.999c-42.667 0 -76.501 -16.167 -101.501 -48.5s-39.833 -80.5 -44.5 -144.5
c-0.666992 -6 -1 -11.667 -1 -17c0 -32.667 7.83301 -58.667 23.5 -78s35.834 -29 60.501 -29c42 0 73.667 29.667 95 89l24 216c-19.333 8 -38 12 -56 12z" />
    <glyph glyph-name="aacute" unicode="&#xe1;" horiz-adv-x="548" 
d="M267 550l127 187c13.333 -6.66699 29 -19.5 47 -38.5s32.667 -36.5 44 -52.5l-180 -133c-8 4.66699 -20.667 17 -38 37zM478 -5c-61.333 0 -102 21.332 -122 63.999c-34.667 -43.333 -79.167 -65 -133.5 -65s-100 18.333 -137 55s-55.5 85 -55.5 145
c0 87.333 25.667 157 77 209s116.333 78 195 78h6c33.333 0 64 -5.66699 92 -17c18 11.333 39.833 17 65.5 17s44.167 -3.33301 55.5 -10c-6 -49.333 -12.333 -97.833 -19 -145.5l-14 -101.5c-6 -45.333 -9 -78 -9 -98c0 -26.667 10.667 -40 32 -40
c16.667 0 34.334 11.167 53.001 33.5s35 57.5 49 105.5c19.333 -17.333 32.666 -36.666 39.999 -57.999c-19.333 -63.333 -45.333 -107.833 -78 -133.5s-65 -38.5 -97 -38.5zM317 402.999c-42.667 0 -76.501 -16.167 -101.501 -48.5s-39.833 -80.5 -44.5 -144.5
c-0.666992 -6 -1 -11.667 -1 -17c0 -32.667 7.83301 -58.667 23.5 -78s35.834 -29 60.501 -29c42 0 73.667 29.667 95 89l24 216c-19.333 8 -38 12 -56 12z" />
    <glyph glyph-name="acircumflex" unicode="&#xe2;" horiz-adv-x="548" 
d="M336 700l174 -121c-14 -26 -25 -45.333 -33 -58l-141 73l-141 -73c-8 12.667 -19 32 -33 58zM478 -5c-61.333 0 -102 21.332 -122 63.999c-34.667 -43.333 -79.167 -65 -133.5 -65s-100 18.333 -137 55s-55.5 85 -55.5 145c0 87.333 25.667 157 77 209s116.333 78 195 78
h6c33.333 0 64 -5.66699 92 -17c18 11.333 39.833 17 65.5 17s44.167 -3.33301 55.5 -10c-6 -49.333 -12.333 -97.833 -19 -145.5l-14 -101.5c-6 -45.333 -9 -78 -9 -98c0 -26.667 10.667 -40 32 -40c16.667 0 34.334 11.167 53.001 33.5s35 57.5 49 105.5
c19.333 -17.333 32.666 -36.666 39.999 -57.999c-19.333 -63.333 -45.333 -107.833 -78 -133.5s-65 -38.5 -97 -38.5zM317 402.999c-42.667 0 -76.501 -16.167 -101.501 -48.5s-39.833 -80.5 -44.5 -144.5c-0.666992 -6 -1 -11.667 -1 -17
c0 -32.667 7.83301 -58.667 23.5 -78s35.834 -29 60.501 -29c42 0 73.667 29.667 95 89l24 216c-19.333 8 -38 12 -56 12z" />
    <glyph glyph-name="atilde" unicode="&#xe3;" horiz-adv-x="548" 
d="M518.5 565.5c-23 -27.667 -50.165 -41.5 -81.498 -41.5s-64.333 12.333 -99 37c-36.667 25.333 -62.334 38 -77.001 38s-27.334 -4.16699 -38.001 -12.5s-21.334 -23.833 -32.001 -46.5l-44 26c8.66699 38.667 23.667 70.5 45 95.5s47.333 37.5 78 37.5
c27.333 0 59.333 -11.667 96 -35s62.667 -35 78 -35c30.667 0 55.334 22.667 74.001 68l44 -25c-6 -43.333 -20.5 -78.833 -43.5 -106.5zM478.002 -5c-61.333 0 -102 21.332 -122 63.999c-34.667 -43.333 -79.167 -65 -133.5 -65s-100 18.333 -137 55s-55.5 85 -55.5 145
c0 87.333 25.667 157 77 209s116.333 78 195 78h6c33.333 0 64 -5.66699 92 -17c18 11.333 39.833 17 65.5 17s44.167 -3.33301 55.5 -10c-6 -49.333 -12.333 -97.833 -19 -145.5l-14 -101.5c-6 -45.333 -9 -78 -9 -98c0 -26.667 10.667 -40 32 -40
c16.667 0 34.334 11.167 53.001 33.5s35 57.5 49 105.5c19.333 -17.333 32.666 -36.666 39.999 -57.999c-19.333 -63.333 -45.333 -107.833 -78 -133.5s-65 -38.5 -97 -38.5zM317.002 402.999c-42.667 0 -76.501 -16.167 -101.501 -48.5s-39.833 -80.5 -44.5 -144.5
c-0.666992 -6 -1 -11.667 -1 -17c0 -32.667 7.83301 -58.667 23.5 -78s35.834 -29 60.501 -29c42 0 73.667 29.667 95 89l24 216c-19.333 8 -38 12 -56 12z" />
    <glyph glyph-name="adieresis" unicode="&#xe4;" horiz-adv-x="548" 
d="M264 553c-14 -14 -31 -21 -51 -21s-36.833 7 -50.5 21s-20.5 31 -20.5 51s6.83301 37.167 20.5 51.5s30.5 21.5 50.5 21.5s37 -7.16699 51 -21.5s21 -31.5 21 -51.5s-7 -37 -21 -51zM505.5 553c-13.667 -14 -30.668 -21 -51.001 -21s-37.666 7 -51.999 21
s-21.5 31 -21.5 51s7.16699 37.167 21.5 51.5s31.5 21.5 51.5 21.5s37 -7.16699 51 -21.5s21 -31.5 21 -51.5s-6.83301 -37 -20.5 -51zM477.999 -5c-61.333 0 -102 21.332 -122 63.999c-34.667 -43.333 -79.167 -65 -133.5 -65s-100 18.333 -137 55s-55.5 85 -55.5 145
c0 87.333 25.667 157 77 209s116.333 78 195 78h6c33.333 0 64 -5.66699 92 -17c18 11.333 39.833 17 65.5 17s44.167 -3.33301 55.5 -10c-6 -49.333 -12.333 -97.833 -19 -145.5l-14 -101.5c-6 -45.333 -9 -78 -9 -98c0 -26.667 10.667 -40 32 -40
c16.667 0 34.334 11.167 53.001 33.5s35 57.5 49 105.5c19.333 -17.333 32.666 -36.666 39.999 -57.999c-19.333 -63.333 -45.333 -107.833 -78 -133.5s-65 -38.5 -97 -38.5zM316.999 402.999c-42.667 0 -76.501 -16.167 -101.501 -48.5s-39.833 -80.5 -44.5 -144.5
c-0.666992 -6 -1 -11.667 -1 -17c0 -32.667 7.83301 -58.667 23.5 -78s35.834 -29 60.501 -29c42 0 73.667 29.667 95 89l24 216c-19.333 8 -38 12 -56 12z" />
    <glyph glyph-name="aring" unicode="&#xe5;" horiz-adv-x="548" 
d="M377 471l22.998 -7c18 11.333 39.833 17 65.5 17s44.167 -3.33301 55.5 -10c-6 -49.333 -12.333 -97.833 -19 -145.5l-14 -101.5c-6 -45.333 -9 -78 -9 -98c0 -26.667 10.667 -40 32 -40c16.667 0 34.334 11.167 53.001 33.5s35 57.5 49 105.5
c19.333 -17.333 32.666 -36.666 39.999 -57.999c-19.333 -63.333 -45.333 -107.833 -78 -133.5s-65 -38.5 -97 -38.5c-61.333 0 -102 21.333 -122 64c-34.667 -43.333 -79.167 -65 -133.5 -65s-100 18.333 -137 55s-55.5 85 -55.5 145c0 77.333 20.667 141.333 62 192
s96 81.334 164 92.001c-26.667 21.333 -40 47.666 -40 78.999s10.333 57.166 31 77.499s45.334 30.5 74.001 30.5s53.334 -10.167 74.001 -30.5s31 -45.166 31 -74.499c0 -38.667 -16.333 -68.334 -49 -89.001zM320.998 609c-13.333 0 -24.833 -4.83301 -34.5 -14.5
s-14.5 -21.167 -14.5 -34.5s4.83301 -24.833 14.5 -34.5s21.167 -14.5 34.5 -14.5s24.833 4.83301 34.5 14.5s14.5 21.167 14.5 34.5s-4.83301 24.833 -14.5 34.5s-21.167 14.5 -34.5 14.5zM316.998 403c-42.667 0 -76.501 -16.167 -101.501 -48.5
s-39.833 -80.5 -44.5 -144.5c-0.666992 -6 -1 -11.667 -1 -17c0 -32.667 7.83301 -58.667 23.5 -78s35.834 -29 60.501 -29c42 0 73.667 29.667 95 89l24 216c-19.333 8 -38 12 -56 12z" />
    <glyph glyph-name="ae" unicode="&#xe6;" horiz-adv-x="1014" 
d="M650.5 274c20.333 24.667 30.499 48.499 30.499 71.499s-6.16699 38.667 -18.5 47s-25.833 12.5 -40.5 12.5c-31.333 0 -58.833 -17.5 -82.5 -52.5s-35.5 -76.667 -35.5 -125s11.5 -84.333 34.5 -108s51.5 -35.5 85.5 -35.5c50 0 98 17.333 144 52s83.333 80 112 136
c14.667 -14 28 -31.333 40 -52c-22 -50 -61.333 -99 -118 -147c-27.333 -23.333 -60.166 -42.333 -98.499 -57s-77.833 -22 -118.5 -22c-89.333 0 -153.333 36 -192 108c-36.667 -72 -92.667 -108 -168 -108c-49.333 0 -92.5 18.333 -129.5 55s-55.5 85 -55.5 145
c0 87.333 25.667 157 77 209s116.333 78 195 78h6c33.333 0 64 -5.66699 92 -17c18 11.333 39.833 17 65.5 17s44.167 -3.33301 55.5 -10l-1 -9c32.667 12.667 65.334 19 98.001 19c51.333 0 93 -11.167 125 -33.5s48.333 -52.5 49 -90.5c0 -51.333 -20.5 -93 -61.5 -125
s-97.167 -54.333 -168.5 -67l-14 59c41.333 8.66699 72.166 25.334 92.499 50.001zM326.999 402.999c-42.667 0 -76.501 -16.167 -101.501 -48.5s-39.833 -80.5 -44.5 -144.5c-0.666992 -6 -1 -11.667 -1 -17c0 -32.667 7.83301 -58.667 23.5 -78s35.834 -29 60.501 -29
c42 0 73.667 29.667 95 89l6 52c0 10 1.33301 23.667 4 41l14 123c-19.333 8 -38 12 -56 12z" />
    <glyph glyph-name="ccedilla" unicode="&#xe7;" horiz-adv-x="469" 
d="M346 339c0 43.333 -19.334 65.001 -58.001 65.001c-28.667 0 -54.334 -16.333 -77.001 -49c-24 -35.333 -36 -76.666 -36 -123.999s10.5 -83.833 31.5 -109.5s49.833 -38.5 86.5 -38.5c44 0 90.5 18 139.5 54s88.5 80.667 118.5 134c13.333 -10 26.333 -28.333 39 -55
c-16.667 -34.667 -50 -76 -100 -124c-26 -24 -57.833 -45.167 -95.5 -63.5s-76.5 -29.5 -116.5 -33.5l-11 -28l6 1c24.667 0 46.834 -8 66.501 -24s29.5 -39.333 29.5 -70s-11.5 -55.667 -34.5 -75s-49.167 -29 -78.5 -29c-47.333 0 -82.333 16 -105 48l18 38
c6 -9.33301 16.5 -18.333 31.5 -27s29.833 -13 44.5 -13s26.834 5.5 36.501 16.5s14.5 25 14.5 42s-6.5 30.5 -19.5 40.5s-28.833 15 -47.5 15s-29.667 -0.333008 -33 -1l25 66c-54 6.66699 -98.333 30 -133 70s-52 89.667 -52 149c0 79.333 26.667 143.666 80 192.999
s113 74 179 74c51.333 0 92 -10.667 122 -32s45 -49.333 45 -84c0 -22.667 -8 -42.334 -24 -59.001c-29.333 -29.333 -65 -44 -107 -44c10 33.333 15 59 15 77z" />
    <glyph glyph-name="egrave" unicode="&#xe8;" horiz-adv-x="466" 
d="M265 737l127 -187c-17.333 -20 -30 -32.333 -38 -37l-180 133c11.333 16 26 33.5 44 52.5s33.667 31.833 47 38.5zM311.5 274c20.333 24.667 30.502 48.499 30.502 71.499s-6.16699 38.667 -18.5 47s-25.833 12.5 -40.5 12.5c-31.333 0 -58.833 -17.5 -82.5 -52.5
s-35.5 -76.667 -35.5 -125s11.5 -84.333 34.5 -108s51.5 -35.5 85.5 -35.5c50 0 98 17.333 144 52s83.333 80 112 136c14.667 -14 28 -31.333 40 -52c-22 -50 -61 -99 -117 -147c-28 -23.333 -61.167 -42.333 -99.5 -57s-77.833 -22 -118.5 -22
c-66.667 0 -119.334 20.333 -158.001 61c-41.333 44 -62 100.333 -62 169s25.833 128.667 77.5 180s113.5 77 185.5 77c51.333 0 93 -11.167 125 -33.5s48.333 -52.5 49 -90.5c0 -51.333 -20.5 -93 -61.5 -125s-97.167 -54.333 -168.5 -67l-14 59
c41.333 8.66699 72.166 25.334 92.499 50.001z" />
    <glyph glyph-name="eacute" unicode="&#xe9;" horiz-adv-x="466" 
d="M226 550l127 187c13.333 -6.66699 29 -19.5 47 -38.5s32.667 -36.5 44 -52.5l-180 -133c-8 4.66699 -20.667 17 -38 37zM311.5 274c20.333 24.667 30.502 48.499 30.502 71.499s-6.16699 38.667 -18.5 47s-25.833 12.5 -40.5 12.5c-31.333 0 -58.833 -17.5 -82.5 -52.5
s-35.5 -76.667 -35.5 -125s11.5 -84.333 34.5 -108s51.5 -35.5 85.5 -35.5c50 0 98 17.333 144 52s83.333 80 112 136c14.667 -14 28 -31.333 40 -52c-22 -50 -61 -99 -117 -147c-28 -23.333 -61.167 -42.333 -99.5 -57s-77.833 -22 -118.5 -22
c-66.667 0 -119.334 20.333 -158.001 61c-41.333 44 -62 100.333 -62 169s25.833 128.667 77.5 180s113.5 77 185.5 77c51.333 0 93 -11.167 125 -33.5s48.333 -52.5 49 -90.5c0 -51.333 -20.5 -93 -61.5 -125s-97.167 -54.333 -168.5 -67l-14 59
c41.333 8.66699 72.166 25.334 92.499 50.001z" />
    <glyph glyph-name="ecircumflex" unicode="&#xea;" horiz-adv-x="466" 
d="M295 700l174 -121c-14 -26 -25 -45.333 -33 -58l-141 73l-141 -73c-8 12.667 -19 32 -33 58zM311.5 274c20.333 24.667 30.502 48.499 30.502 71.499s-6.16699 38.667 -18.5 47s-25.833 12.5 -40.5 12.5c-31.333 0 -58.833 -17.5 -82.5 -52.5s-35.5 -76.667 -35.5 -125
s11.5 -84.333 34.5 -108s51.5 -35.5 85.5 -35.5c50 0 98 17.333 144 52s83.333 80 112 136c14.667 -14 28 -31.333 40 -52c-22 -50 -61 -99 -117 -147c-28 -23.333 -61.167 -42.333 -99.5 -57s-77.833 -22 -118.5 -22c-66.667 0 -119.334 20.333 -158.001 61
c-41.333 44 -62 100.333 -62 169s25.833 128.667 77.5 180s113.5 77 185.5 77c51.333 0 93 -11.167 125 -33.5s48.333 -52.5 49 -90.5c0 -51.333 -20.5 -93 -61.5 -125s-97.167 -54.333 -168.5 -67l-14 59c41.333 8.66699 72.166 25.334 92.499 50.001z" />
    <glyph glyph-name="edieresis" unicode="&#xeb;" horiz-adv-x="466" 
d="M121.5 655.5c13.667 14.333 30.5 21.5 50.5 21.5s37 -7.16699 51 -21.5s21 -31.5 21 -51.5s-7 -37 -21 -51s-31 -21 -51 -21s-36.833 7 -50.5 21s-20.5 31 -20.5 51s6.83301 37.167 20.5 51.5zM413 677c20 0 36.999 -7.16699 50.999 -21.5s21 -31.5 21 -51.5
s-6.83301 -37 -20.5 -51s-30.667 -21 -51 -21s-37.666 7 -51.999 21s-21.5 31 -21.5 51s7.16699 37.167 21.5 51.5s31.5 21.5 51.5 21.5zM311.499 274c20.333 24.667 30.502 48.499 30.502 71.499s-6.16699 38.667 -18.5 47s-25.833 12.5 -40.5 12.5
c-31.333 0 -58.833 -17.5 -82.5 -52.5s-35.5 -76.667 -35.5 -125s11.5 -84.333 34.5 -108s51.5 -35.5 85.5 -35.5c50 0 98 17.333 144 52s83.333 80 112 136c14.667 -14 28 -31.333 40 -52c-22 -50 -61 -99 -117 -147c-28 -23.333 -61.167 -42.333 -99.5 -57
s-77.833 -22 -118.5 -22c-66.667 0 -119.334 20.333 -158.001 61c-41.333 44 -62 100.333 -62 169s25.833 128.667 77.5 180s113.5 77 185.5 77c51.333 0 93 -11.167 125 -33.5s48.333 -52.5 49 -90.5c0 -51.333 -20.5 -93 -61.5 -125s-97.167 -54.333 -168.5 -67l-14 59
c41.333 8.66699 72.166 25.334 92.499 50.001z" />
    <glyph glyph-name="igrave" unicode="&#xec;" horiz-adv-x="230" 
d="M117 737l127 -187c-17.333 -20 -30 -32.333 -38 -37l-180 133c11.333 16 26 33.5 44 52.5s33.667 31.833 47 38.5zM105 470.5c18.667 6.33301 37.168 9.5 55.501 9.5s34.5 -2.33301 48.5 -7c-26 -200.667 -39 -302 -39 -304c-3.33301 -13.333 -5 -24.5 -5 -33.5
s0.333008 -16.833 1 -23.5c3.33301 -17.333 15.833 -26 37.5 -26s41.667 14.167 60 42.5s32.166 60.5 41.499 96.5c4.66699 -2.66699 12 -10.667 22 -24s16 -23.333 18 -30c-13.333 -53.333 -35.666 -96.333 -66.999 -129c-32.667 -32.667 -71.334 -49 -116.001 -49
s-77.834 11 -99.501 33s-32.5 50.333 -32.5 85c0 7.33301 0.333008 15 1 23l36 309c6.66699 12 19.334 21.167 38.001 27.5z" />
    <glyph glyph-name="iacute" unicode="&#xed;" horiz-adv-x="230" 
d="M78 550l127 187c13.333 -6.66699 29 -19.5 47 -38.5s32.667 -36.5 44 -52.5l-180 -133c-8 4.66699 -20.667 17 -38 37zM105 470.5c18.667 6.33301 37.168 9.5 55.501 9.5s34.5 -2.33301 48.5 -7c-26 -200.667 -39 -302 -39 -304c-3.33301 -13.333 -5 -24.5 -5 -33.5
s0.333008 -16.833 1 -23.5c3.33301 -17.333 15.833 -26 37.5 -26s41.667 14.167 60 42.5s32.166 60.5 41.499 96.5c4.66699 -2.66699 12 -10.667 22 -24s16 -23.333 18 -30c-13.333 -53.333 -35.666 -96.333 -66.999 -129c-32.667 -32.667 -71.334 -49 -116.001 -49
s-77.834 11 -99.501 33s-32.5 50.333 -32.5 85c0 7.33301 0.333008 15 1 23l36 309c6.66699 12 19.334 21.167 38.001 27.5z" />
    <glyph glyph-name="icircumflex" unicode="&#xee;" horiz-adv-x="230" 
d="M147 700l174 -121c-14 -26 -25 -45.333 -33 -58l-141 73l-141 -73c-8 12.667 -19 32 -33 58zM105 470.5c18.667 6.33301 37.168 9.5 55.501 9.5s34.5 -2.33301 48.5 -7c-26 -200.667 -39 -302 -39 -304c-3.33301 -13.333 -5 -24.5 -5 -33.5s0.333008 -16.833 1 -23.5
c3.33301 -17.333 15.833 -26 37.5 -26s41.667 14.167 60 42.5s32.166 60.5 41.499 96.5c4.66699 -2.66699 12 -10.667 22 -24s16 -23.333 18 -30c-13.333 -53.333 -35.666 -96.333 -66.999 -129c-32.667 -32.667 -71.334 -49 -116.001 -49s-77.834 11 -99.501 33
s-32.5 50.333 -32.5 85c0 7.33301 0.333008 15 1 23l36 309c6.66699 12 19.334 21.167 38.001 27.5z" />
    <glyph glyph-name="idieresis" unicode="&#xef;" horiz-adv-x="230" 
d="M38.5 686.5c13 13 28.5 19.5 46.5 19.5s33.333 -6.5 46 -19.5s19 -28.5 19 -46.5s-6.33301 -33.5 -19 -46.5s-28 -19.5 -46 -19.5s-33.5 6.5 -46.5 19.5s-19.5 28.5 -19.5 46.5s6.5 33.5 19.5 46.5zM223 686.5c12.667 13 28.167 19.5 46.5 19.5s33.833 -6.5 46.5 -19.5
s19 -28.5 19 -46.5s-6.33301 -33.5 -19 -46.5s-28.167 -19.5 -46.5 -19.5s-33.833 6.5 -46.5 19.5s-19 28.5 -19 46.5s6.33301 33.5 19 46.5zM105 470.5c18.667 6.33301 37.168 9.5 55.501 9.5s34.5 -2.33301 48.5 -7c-26 -200.667 -39 -302 -39 -304
c-3.33301 -13.333 -5 -24.5 -5 -33.5s0.333008 -16.833 1 -23.5c3.33301 -17.333 15.833 -26 37.5 -26s41.667 14.167 60 42.5s32.166 60.5 41.499 96.5c4.66699 -2.66699 12 -10.667 22 -24s16 -23.333 18 -30c-13.333 -53.333 -35.666 -96.333 -66.999 -129
c-32.667 -32.667 -71.334 -49 -116.001 -49s-77.834 11 -99.501 33s-32.5 50.333 -32.5 85c0 7.33301 0.333008 15 1 23l36 309c6.66699 12 19.334 21.167 38.001 27.5z" />
    <glyph glyph-name="eth" unicode="&#xf0;" 
d="M648 403l-136 -0.000976562c-22 -168.667 -33 -261 -33 -277c0 -26.667 10 -40 30 -40c17.333 0 35.333 10.833 54 32.5s35.667 57.167 51 106.5c18.667 -18 31.667 -37.667 39 -59c-24 -79.333 -61.667 -130.666 -113 -153.999c-23.333 -11.333 -45.333 -17 -66 -17
c-59.333 0 -99 21.333 -119 64c-34.667 -43.333 -79 -65 -133 -65s-99.5 18.333 -136.5 55s-55.5 85 -55.5 145c0 82 22.833 148.667 68.5 200s105.5 80 179.5 86v1h30c5.33301 0 9.33301 -0.333008 12 -1h66l29 241c4.66699 11.333 15.167 20.833 31.5 28.5
s36 11.5 59 11.5s40.167 -3.33301 51.5 -10l-35 -271h126v-77zM317 402.999c-42.667 0 -76.501 -16.167 -101.501 -48.5s-39.833 -80.5 -44.5 -144.5c-0.666992 -6 -1 -11.667 -1 -17c0 -32.667 7.83301 -58.667 23.5 -78s35.834 -29 60.501 -29c42 0 73.667 29.667 95 89
l26 215c-22 8.66699 -41.333 13 -58 13z" />
    <glyph glyph-name="ntilde" unicode="&#xf1;" horiz-adv-x="519" 
d="M332 664c36.667 -23.333 62.6689 -35 78.002 -35c30.667 0 55.334 22.667 74.001 68l44 -25c-6 -43.333 -20.5 -78.833 -43.5 -106.5s-50.167 -41.5 -81.5 -41.5s-64.333 12.333 -99 37c-36.667 25.333 -62.334 38 -77.001 38s-27.334 -4.16699 -38.001 -12.5
s-21.334 -23.833 -32.001 -46.5l-44 26c8.66699 38.667 23.667 70.5 45 95.5s46.5 37.5 75.5 37.5s61.833 -11.667 98.5 -35zM318.002 112l23.998 223.001c0 18 -4.66699 33 -14 45s-24.833 18 -46.5 18s-40 -9.5 -55 -28.5s-24.5 -42.833 -28.5 -71.5
c-24 -182.667 -36.667 -282 -38 -298h-135l55 471c28 7.33301 49.333 11 64 11c44.667 0 68 -16.333 70 -49c32.667 32 71.834 48 117.501 48s81.5 -11.333 107.5 -34s39 -51.334 39 -86.001c0 -9.33301 -2 -27 -6 -53c-15.333 -101.333 -23 -160.333 -23 -177
c0 -30.667 10.333 -46 31 -46c45.333 0 79.666 47.333 102.999 142c22.667 -24 36.334 -43 41.001 -57c-35.333 -117.333 -96.666 -176 -183.999 -176c-41.333 0 -72 12.667 -92 38s-30 52 -30 80z" />
    <glyph glyph-name="ograve" unicode="&#xf2;" horiz-adv-x="520" 
d="M253 737l127 -187c-17.333 -20 -30 -32.333 -38 -37l-180 133c11.333 16 26 33.5 44 52.5s33.667 31.833 47 38.5zM295 481c61.333 0 112.499 -19.667 153.499 -59s61.5 -87.333 61.5 -144c0 -86 -25.167 -154.833 -75.5 -206.5s-111.166 -77.5 -182.499 -77.5
s-127.833 20.333 -169.5 61s-62.5 91 -62.5 151c0 84 25.667 150.667 77 200c52 50 118 75 198 75zM195.999 346c-21.333 -36 -33 -81.332 -35 -135.999c0 -38.667 7.83301 -70.667 23.5 -96s39.5 -38 71.5 -38s58.833 17.667 80.5 53s32.5 75.666 32.5 120.999
s-7.66699 81.333 -23 108c-15.333 28 -38.833 42 -70.5 42s-58.167 -18 -79.5 -54z" />
    <glyph glyph-name="oacute" unicode="&#xf3;" horiz-adv-x="520" 
d="M214 550l127 187c13.333 -6.66699 29 -19.5 47 -38.5s32.667 -36.5 44 -52.5l-180 -133c-8 4.66699 -20.667 17 -38 37zM295 481c61.333 0 112.499 -19.667 153.499 -59s61.5 -87.333 61.5 -144c0 -86 -25.167 -154.833 -75.5 -206.5s-111.166 -77.5 -182.499 -77.5
s-127.833 20.333 -169.5 61s-62.5 91 -62.5 151c0 84 25.667 150.667 77 200c52 50 118 75 198 75zM195.999 346c-21.333 -36 -33 -81.332 -35 -135.999c0 -38.667 7.83301 -70.667 23.5 -96s39.5 -38 71.5 -38s58.833 17.667 80.5 53s32.5 75.666 32.5 120.999
s-7.66699 81.333 -23 108c-15.333 28 -38.833 42 -70.5 42s-58.167 -18 -79.5 -54z" />
    <glyph glyph-name="ocircumflex" unicode="&#xf4;" horiz-adv-x="520" 
d="M283 700l174 -121c-14 -26 -25 -45.333 -33 -58l-141 73l-141 -73c-8 12.667 -19 32 -33 58zM295 481c61.333 0 112.499 -19.667 153.499 -59s61.5 -87.333 61.5 -144c0 -86 -25.167 -154.833 -75.5 -206.5s-111.166 -77.5 -182.499 -77.5s-127.833 20.333 -169.5 61
s-62.5 91 -62.5 151c0 84 25.667 150.667 77 200c52 50 118 75 198 75zM195.999 346c-21.333 -36 -33 -81.332 -35 -135.999c0 -38.667 7.83301 -70.667 23.5 -96s39.5 -38 71.5 -38s58.833 17.667 80.5 53s32.5 75.666 32.5 120.999s-7.66699 81.333 -23 108
c-15.333 28 -38.833 42 -70.5 42s-58.167 -18 -79.5 -54z" />
    <glyph glyph-name="otilde" unicode="&#xf5;" horiz-adv-x="520" 
d="M313 664c36.667 -23.333 62.667 -35 78 -35c30.667 0 55.334 22.667 74.001 68l44 -25c-6 -43.333 -20.5 -78.833 -43.5 -106.5s-50.167 -41.5 -81.5 -41.5s-64.666 12.333 -99.999 37c-36 25.333 -61.333 38 -76 38s-27.334 -4.16699 -38.001 -12.5
s-21.334 -23.833 -32.001 -46.5l-44 26c8.66699 38.667 23.667 70.5 45 95.5s46.5 37.5 75.5 37.5s61.833 -11.667 98.5 -35zM295 481c61.333 0 112.499 -19.667 153.499 -59s61.5 -87.333 61.5 -144c0 -86 -25.167 -154.833 -75.5 -206.5s-111.166 -77.5 -182.499 -77.5
s-127.833 20.333 -169.5 61s-62.5 91 -62.5 151c0 84 25.667 150.667 77 200c52 50 118 75 198 75zM195.999 346c-21.333 -36 -33 -81.332 -35 -135.999c0 -38.667 7.83301 -70.667 23.5 -96s39.5 -38 71.5 -38s58.833 17.667 80.5 53s32.5 75.666 32.5 120.999
s-7.66699 81.333 -23 108c-15.333 28 -38.833 42 -70.5 42s-58.167 -18 -79.5 -54z" />
    <glyph glyph-name="odieresis" unicode="&#xf6;" horiz-adv-x="520" 
d="M109.5 655.5c13.667 14.333 30.5 21.5 50.5 21.5s37 -7.16699 51 -21.5s21 -31.5 21 -51.5s-7 -37 -21 -51s-31 -21 -51 -21s-36.833 7 -50.5 21s-20.5 31 -20.5 51s6.83301 37.167 20.5 51.5zM401 677c20 0 36.999 -7.16699 50.999 -21.5s21 -31.5 21 -51.5
s-6.83301 -37 -20.5 -51s-30.667 -21 -51 -21s-37.666 7 -51.999 21s-21.5 31 -21.5 51s7.16699 37.167 21.5 51.5s31.5 21.5 51.5 21.5zM294.999 481c61.333 0 112.499 -19.667 153.499 -59s61.5 -87.333 61.5 -144c0 -86 -25.167 -154.833 -75.5 -206.5
s-111.166 -77.5 -182.499 -77.5s-127.833 20.333 -169.5 61s-62.5 91 -62.5 151c0 84 25.667 150.667 77 200c52 50 118 75 198 75zM195.998 346c-21.333 -36 -33 -81.332 -35 -135.999c0 -38.667 7.83301 -70.667 23.5 -96s39.5 -38 71.5 -38s58.833 17.667 80.5 53
s32.5 75.666 32.5 120.999s-7.66699 81.333 -23 108c-15.333 28 -38.833 42 -70.5 42s-58.167 -18 -79.5 -54z" />
    <glyph glyph-name="divide" unicode="&#xf7;" horiz-adv-x="458" 
d="M272 625c22.667 0 42 -8 58 -24s24 -35.333 24 -58s-8 -41.834 -24 -57.501s-35.333 -23.5 -58 -23.5s-41.834 7.83301 -57.501 23.5s-23.5 34.834 -23.5 57.501s7.83301 42 23.5 58s34.834 24 57.501 24zM22 417h472l-9 -86h-472zM231 275c22.667 0 42 -8 58 -24
s24 -35.333 24 -58s-8 -41.834 -24 -57.501s-35.333 -23.5 -58 -23.5s-41.834 7.83301 -57.501 23.5s-23.5 34.834 -23.5 57.501s7.83301 42 23.5 58s34.834 24 57.501 24z" />
    <glyph glyph-name="oslash" unicode="&#xf8;" horiz-adv-x="520" 
d="M510 278c0 -86 -25.168 -154.831 -75.501 -206.498s-113.166 -77.5 -188.499 -77.5h-14l-46 -154h-83l51 170c-42 16 -74.833 41.5 -98.5 76.5s-35.5 74.833 -35.5 119.5c0 84 25.667 150.667 77 200s116.333 74.333 195 75h3l66 220h83l-70 -233
c41.333 -14.667 74.333 -39.334 99 -74.001s37 -73.334 37 -116.001zM184.999 113.002l86 286c-32.667 -3.33301 -58.667 -22.833 -78 -58.5s-30 -79.167 -32 -130.5c0 -40 8 -72.333 24 -97zM337.999 131.502c20.667 35 31 76.168 31 123.501s-8.66699 83.666 -26 108.999
l-86 -288c33.333 2 60.333 20.5 81 55.5z" />
    <glyph glyph-name="ugrave" unicode="&#xf9;" horiz-adv-x="507" 
d="M264 742l127 -187.002c-17.333 -20 -30 -32.333 -38 -37l-180 133c11.333 16.667 26 34.334 44 53.001s33.667 31.334 47 38.001zM479 470.998c-27.333 -216 -41.001 -330.998 -41.001 -344.998c0 -26.667 9.66699 -40 29 -40c17.333 0 36.166 11.833 56.499 35.5
s36.5 59.167 48.5 106.5c22 -24 35.333 -42.667 40 -56c-15.333 -64.667 -39.666 -110.334 -72.999 -137.001s-67.666 -40 -102.999 -40c-58 0 -97 22.333 -117 67c-34.667 -44.667 -81 -67 -139 -67c-48 0 -85 12 -111 36s-39 55.333 -39 94
c0 9.33301 1.66699 25.666 5 48.999c15.333 124 27 222.667 35 296c20.667 7.33301 39.667 11 57 11s30.333 -0.666992 39 -2s17 -6.33301 25 -15s12 -21 12 -37l-33 -255c-1.33301 -8 -2 -15.333 -2 -22c0 -39.333 18 -59 54 -59c33.333 0 61 16.333 83 49
c0 7.33301 0.666992 19 2 35l33 266c4.66699 11.333 14.667 20.833 30 28.5s34.5 11.5 57.5 11.5s40.167 -3.33301 51.5 -10z" />
    <glyph glyph-name="uacute" unicode="&#xfa;" horiz-adv-x="507" 
d="M225 555l127 187.002c13.333 -6.66699 29 -19.334 47 -38.001s32.667 -36.334 44 -53.001l-180 -133c-8 4.66699 -20.667 17 -38 37zM479 471.002c-27.333 -216 -41.001 -330.998 -41.001 -344.998c0 -26.667 9.66699 -40 29 -40c17.333 0 36.166 11.833 56.499 35.5
s36.5 59.167 48.5 106.5c22 -24 35.333 -42.667 40 -56c-15.333 -64.667 -39.666 -110.334 -72.999 -137.001s-67.666 -40 -102.999 -40c-58 0 -97 22.333 -117 67c-34.667 -44.667 -81 -67 -139 -67c-48 0 -85 12 -111 36s-39 55.333 -39 94
c0 9.33301 1.66699 25.666 5 48.999c15.333 124 27 222.667 35 296c20.667 7.33301 39.667 11 57 11s30.333 -0.666992 39 -2s17 -6.33301 25 -15s12 -21 12 -37l-33 -255c-1.33301 -8 -2 -15.333 -2 -22c0 -39.333 18 -59 54 -59c33.333 0 61 16.333 83 49
c0 7.33301 0.666992 19 2 35l33 266c4.66699 11.333 14.667 20.833 30 28.5s34.5 11.5 57.5 11.5s40.167 -3.33301 51.5 -10z" />
    <glyph glyph-name="ucircumflex" unicode="&#xfb;" horiz-adv-x="507" 
d="M294 705l174 -121c-14 -26 -25 -45.333 -33 -58l-141 73l-141 -73c-8 12.667 -19 32 -33 58zM479 471c-27.333 -216 -41.001 -330.998 -41.001 -344.998c0 -26.667 9.66699 -40 29 -40c17.333 0 36.166 11.833 56.499 35.5s36.5 59.167 48.5 106.5
c22 -24 35.333 -42.667 40 -56c-15.333 -64.667 -39.666 -110.334 -72.999 -137.001s-67.666 -40 -102.999 -40c-58 0 -97 22.333 -117 67c-34.667 -44.667 -81 -67 -139 -67c-48 0 -85 12 -111 36s-39 55.333 -39 94c0 9.33301 1.66699 25.666 5 48.999
c15.333 124 27 222.667 35 296c20.667 7.33301 39.667 11 57 11s30.333 -0.666992 39 -2s17 -6.33301 25 -15s12 -21 12 -37l-33 -255c-1.33301 -8 -2 -15.333 -2 -22c0 -39.333 18 -59 54 -59c33.333 0 61 16.333 83 49c0 7.33301 0.666992 19 2 35l33 266
c4.66699 11.333 14.667 20.833 30 28.5s34.5 11.5 57.5 11.5s40.167 -3.33301 51.5 -10z" />
    <glyph glyph-name="udieresis" unicode="&#xfc;" horiz-adv-x="507" 
d="M120.5 660.5c13.667 14.333 30.5 21.5 50.5 21.5s37 -7.16699 51 -21.5s21 -31.5 21 -51.5s-7 -37 -21 -51s-31 -21 -51 -21s-36.833 7 -50.5 21s-20.5 31 -20.5 51s6.83301 37.167 20.5 51.5zM412 682c20 0 36.999 -7.16699 50.999 -21.5s21 -31.5 21 -51.5
s-6.83301 -37 -20.5 -51s-30.667 -21 -51 -21s-37.666 7 -51.999 21s-21.5 31 -21.5 51s7.16699 37.167 21.5 51.5s31.5 21.5 51.5 21.5zM478.999 471c-27.333 -216 -41.001 -330.998 -41.001 -344.998c0 -26.667 9.66699 -40 29 -40c17.333 0 36.166 11.833 56.499 35.5
s36.5 59.167 48.5 106.5c22 -24 35.333 -42.667 40 -56c-15.333 -64.667 -39.666 -110.334 -72.999 -137.001s-67.666 -40 -102.999 -40c-58 0 -97 22.333 -117 67c-34.667 -44.667 -81 -67 -139 -67c-48 0 -85 12 -111 36s-39 55.333 -39 94
c0 9.33301 1.66699 25.666 5 48.999c15.333 124 27 222.667 35 296c20.667 7.33301 39.667 11 57 11s30.333 -0.666992 39 -2s17 -6.33301 25 -15s12 -21 12 -37l-33 -255c-1.33301 -8 -2 -15.333 -2 -22c0 -39.333 18 -59 54 -59c33.333 0 61 16.333 83 49
c0 7.33301 0.666992 19 2 35l33 266c4.66699 11.333 14.667 20.833 30 28.5s34.5 11.5 57.5 11.5s40.167 -3.33301 51.5 -10z" />
    <glyph glyph-name="yacute" unicode="&#xfd;" horiz-adv-x="486" 
d="M206 550l127 187c13.333 -6.66699 29 -19.5 47 -38.5s32.667 -36.5 44 -52.5l-180 -133c-8 4.66699 -20.667 17 -38 37zM205 -297c-38 0 -70.666 11.5 -97.999 34.5s-41 56.5 -41 100.5c0 54 27.333 106.667 82 158c-38.667 3.33301 -69.667 16 -93 38s-35 53 -35 93
c0 18.667 2.33301 46.667 7 84l15 121l17 138c20.667 7.33301 39.667 11 57 11s30.333 -0.666992 39 -2s17 -6.33301 25 -15s12 -21 12 -37l-33 -255c-1.33301 -10.667 -2 -18 -2 -22c0 -39.333 18 -59 54 -59c32.667 0 59.334 15.333 80.001 46c2 15.333 7 59.5 15 132.5
s14.667 129.833 20 170.5c6 12.667 18.5 22.667 37.5 30s34.5 11 46.5 11c21.333 0 40.666 -2.66699 57.999 -8l-47 -369c78 -14 124.667 -67.667 140 -161c-2.66699 -12.667 -15.334 -32.667 -38.001 -60c-13.333 83.333 -50 134 -110 152l-16 -125
c-7.33301 -60 -26.333 -109.5 -57 -148.5s-75.667 -58.5 -135 -58.5zM160.001 -192c10.667 -10.667 24.834 -16 42.501 -16s31.167 7.33301 40.5 22s16.666 44 21.999 88l13 110c-87.333 -45.333 -132 -97 -134 -155c0 -22 5.33301 -38.333 16 -49z" />
    <glyph glyph-name="thorn" unicode="&#xfe;" 
d="M450 423c34.667 -39.333 51.999 -85.333 51.999 -138c0 -7.33301 -0.333008 -15 -1 -23c-7.33301 -87.333 -36.666 -153.833 -87.999 -199.5s-118.333 -68.5 -201 -68.5c-23.333 1.33301 -44 4.33301 -62 9l-32 -277h-131l50 429c2 28.667 6 65.667 12 111l25 208l13 116
c11.333 100 17.666 154.333 18.999 163c14 5.33301 32.667 8 56 8c53.333 0 80 -15.333 80 -46l-34 -266c31.333 22 70.833 33 118.5 33s88.834 -19.667 123.501 -59zM188.499 98.5c11.667 -10.333 27.833 -15.5 48.5 -15.5c34 0 62 15.667 84 47
c26.667 38 40 87.333 40 148c0 29.333 -6.66699 55.333 -20 78s-34 34 -62 34c-38.667 0 -67.667 -22.333 -87 -67l-5 -34l-3 -27c-8.66699 -67.333 -13 -108.833 -13 -124.5s5.83301 -28.667 17.5 -39z" />
    <glyph glyph-name="ydieresis" unicode="&#xff;" horiz-adv-x="486" 
d="M101.5 655.5c13.667 14.333 30.5 21.5 50.5 21.5s37 -7.16699 51 -21.5s21 -31.5 21 -51.5s-7 -37 -21 -51s-31 -21 -51 -21s-36.833 7 -50.5 21s-20.5 31 -20.5 51s6.83301 37.167 20.5 51.5zM393 677c20 0 36.999 -7.16699 50.999 -21.5s21 -31.5 21 -51.5
s-6.83301 -37 -20.5 -51s-30.667 -21 -51 -21s-37.666 7 -51.999 21s-21.5 31 -21.5 51s7.16699 37.167 21.5 51.5s31.5 21.5 51.5 21.5zM204.999 -297c-38 0 -70.666 11.5 -97.999 34.5s-41 56.5 -41 100.5c0 54 27.333 106.667 82 158c-38.667 3.33301 -69.667 16 -93 38
s-35 53 -35 93c0 18.667 2.33301 46.667 7 84l15 121l17 138c20.667 7.33301 39.667 11 57 11s30.333 -0.666992 39 -2s17 -6.33301 25 -15s12 -21 12 -37l-33 -255c-1.33301 -10.667 -2 -18 -2 -22c0 -39.333 18 -59 54 -59c32.667 0 59.334 15.333 80.001 46
c2 15.333 7 59.5 15 132.5s14.667 129.833 20 170.5c6 12.667 18.5 22.667 37.5 30s34.5 11 46.5 11c21.333 0 40.666 -2.66699 57.999 -8l-47 -369c78 -14 124.667 -67.667 140 -161c-2.66699 -12.667 -15.334 -32.667 -38.001 -60c-13.333 83.333 -50 134 -110 152
l-16 -125c-7.33301 -60 -26.333 -109.5 -57 -148.5s-75.667 -58.5 -135 -58.5zM160 -192c10.667 -10.667 24.834 -16 42.501 -16s31.167 7.33301 40.5 22s16.666 44 21.999 88l13 110c-87.333 -45.333 -132 -97 -134 -155c0 -22 5.33301 -38.333 16 -49z" />
    <glyph glyph-name="dotlessi" unicode="&#x131;" horiz-adv-x="230" 
d="M105 470.5c18.667 6.33301 37.168 9.5 55.501 9.5s34.5 -2.33301 48.5 -7c-26 -200.667 -39 -302 -39 -304c-3.33301 -13.333 -5 -24.5 -5 -33.5s0.333008 -16.833 1 -23.5c3.33301 -17.333 15.833 -26 37.5 -26s41.667 14.167 60 42.5s32.166 60.5 41.499 96.5
c4.66699 -2.66699 12 -10.667 22 -24s16 -23.333 18 -30c-13.333 -53.333 -35.666 -96.333 -66.999 -129c-32.667 -32.667 -71.334 -49 -116.001 -49s-77.834 11 -99.501 33s-32.5 50.333 -32.5 85c0 7.33301 0.333008 15 1 23l36 309c6.66699 12 19.334 21.167 38.001 27.5
z" />
    <glyph glyph-name="Lslash" unicode="&#x141;" 
d="M387 87c7.33301 -2.66699 15.501 -4 24.501 -4s17.667 1 26 3s16 6.83301 23 14.5l16.5 18.5c4 4.66699 9 15 15 31c7.33301 18.667 16.333 45 27 79c28 -26 44.667 -45.667 50 -59c-32 -117.333 -88.333 -176 -169 -176c-38 0 -86.333 24.667 -145 74
c-30.667 -49.333 -78.334 -74 -143.001 -74c-28.667 0 -54.5 9.66699 -77.5 29s-34.5 47 -34.5 83s12 65.5 36 88.5s55 34.5 93 34.5c7.33301 0 17.666 -0.666992 30.999 -2l14 127c-29.333 -9.33301 -74.666 -21.333 -135.999 -36v75c50 11.333 98 24 144 38l20 163
c14 111.333 70.667 167 170 167c39.333 0 70.833 -10.833 94.5 -32.5s35.5 -52.167 35.5 -91.5c0 -73.333 -36.333 -135.333 -109 -186h116v-77h-195l-25 -202l-1 -10c49.333 -44 82.333 -69 99 -75zM427.001 629c0 28 -11.667 42 -35 42c-28 0 -45.667 -33 -53 -99l-10 -79
c65.333 38.667 98 84 98 136zM76.001 113c0 -20 11.333 -30 34 -30c22 0 35.667 19.667 41 59c-12.667 5.33301 -24.5 8 -35.5 8s-20.333 -3.66699 -28 -11s-11.5 -16 -11.5 -26z" />
    <glyph glyph-name="lslash" unicode="&#x142;" horiz-adv-x="333" 
d="M363 639c0 -70 -28.3301 -139.333 -84.9971 -208h89v-77h-163l-10 -9l-10 -95c-8.66699 -68.667 -13 -106.667 -13 -114c0 -34.667 15 -52 45 -52c32.667 0 63.167 18.833 91.5 56.5s50.166 85.834 65.499 144.501c6 -2 14.333 -7.5 25 -16.5s18 -16.833 22 -23.5
c-10.667 -55.333 -34.667 -108.333 -72 -159c-18.667 -26 -42.334 -47.333 -71.001 -64c-32.667 -19.333 -69.5 -29 -110.5 -29s-73.167 11.5 -96.5 34.5s-35 54.5 -35 94.5c0 21.333 8.33301 98.666 25 231.999h-71c-0.666992 6.66699 -1 17.5 -1 32.5s3 29.833 9 44.5h72
c9.33301 74.667 15.666 126.5 18.999 155.5s7.33301 51.667 12 68s12 33.5 22 51.5c20 36.667 56.333 55 109 55c88 0 132 -40.667 132 -122zM205.003 445c61.333 67.333 91.999 127.667 91.999 181c0 32 -12 48 -36 48c-15.333 -1.33301 -25.5 -11.333 -30.5 -30
s-9.66699 -49 -14 -91s-7.16602 -68 -8.49902 -78z" />
    <glyph glyph-name="OE" unicode="&#x152;" horiz-adv-x="1228" 
d="M849 349c-38.667 -27.333 -58.001 -67.9961 -58.001 -121.996c0 -34 12.167 -66 36.5 -96s65.5 -45 123.5 -45s113 19.667 165 59s91.333 82.333 118 129l34 -61c-86 -146 -205.667 -219 -359 -219c-74 0 -137.167 19.667 -189.5 59s-79.833 86 -82.5 140
c-28 -60.667 -66.833 -109 -116.5 -145s-107.834 -54 -174.501 -54c-86 0 -151.833 28 -197.5 84s-68.5 129 -68.5 219c0 58.667 9 115.834 27 171.501s42.833 105.167 74.5 148.5s71.5 78.166 119.5 104.499s98.167 39.5 150.5 39.5s95.333 -11.833 129 -35.5
s50.5 -55.167 50.5 -94.5s-13 -71 -39 -95c11.333 4 22 6 32 6s21.5 -1 34.5 -3s22.167 -5 27.5 -9c-14 -0.666992 -24.833 -5.33398 -32.5 -14.001s-11.5 -20.334 -11.5 -35.001s6.66699 -28.334 20 -41.001c18.667 -17.333 45 -26 79 -26l21 1
c-26 34.667 -39 74.334 -39 119.001c0 62 26.833 115.333 80.5 160s115.834 67 186.501 67s125.167 -18 163.5 -54s57.5 -83.333 57.5 -142h-95c0.666992 36 -8.83301 63.167 -28.5 81.5s-47 27.5 -82 27.5s-66.5 -12.667 -94.5 -38c-31.333 -27.333 -47 -59.333 -47 -96
s10 -68.334 30 -95.001c66.667 8 117.334 3.66699 152.001 -13c21.333 -10 32 -25.833 32 -47.5s-12.167 -36.834 -36.5 -45.501s-53.5 -13 -87.5 -13s-69 7.66699 -105 23zM363.999 87.0039c57.333 0 104.832 30.3311 142.499 90.998s59.5 130 65.5 208
c-21.333 20 -32 42.667 -32 68c0 24.667 7.33301 45.334 22 62.001c-16 -8 -34.667 -12 -56 -12s-40 5.16699 -56 15.5s-24 26.833 -24 49.5c0 10.667 2.66699 20 8 28s10.666 13 15.999 15l9 4c0 -26.667 10.667 -40 32 -40c10 0 18.667 3.5 26 10.5s11.333 14.833 12 23.5
s0.333984 15.5 -0.999023 20.5s-4 10.833 -8 17.5c-9.33301 16.667 -29 25 -59 25c-39.333 0 -76.666 -18.667 -111.999 -56s-63.5 -85.333 -84.5 -144s-31.5 -118.667 -31.5 -180c0 -51.333 8.33301 -97 25 -137c9.33301 -21.333 23 -38.166 41 -50.499
s39.667 -18.5 65 -18.5zM678.998 341.002v-3l1 2z" />
    <glyph glyph-name="oe" unicode="&#x153;" horiz-adv-x="810" 
d="M655.5 274c20.333 24.667 30.5 48.499 30.5 71.499s-6.16699 38.667 -18.5 47s-25.833 12.5 -40.5 12.5c-31.333 0 -58.833 -17.5 -82.5 -52.5s-35.5 -76.667 -35.5 -125s11.5 -84.333 34.5 -108s51.5 -35.5 85.5 -35.5c50 0 98 17.333 144 52s83.333 80 112 136
c14.667 -14 28 -31.333 40 -52c-22 -50 -61 -99 -117 -147c-28 -23.333 -61.167 -42.333 -99.5 -57s-77.833 -22 -118.5 -22c-69.333 0 -124.333 23 -165 69c-48 -46 -106.667 -69 -176 -69s-124.833 20.333 -166.5 61s-62.5 91 -62.5 151c0 84 25.667 150.667 77 200
c52 50 118 75 198 75c66 0 120 -22.667 162 -68c50.667 45.333 109.334 68 176.001 68c51.333 0 93 -11.167 125 -33.5s48.333 -52.5 49 -90.5c0 -51.333 -20.5 -93 -61.5 -125s-97.167 -54.333 -168.5 -67l-14 59c41.333 8.66699 72.166 25.334 92.499 50.001z
M184.5 113.999c15.667 -25.333 39.5 -37.999 71.5 -37.999s58.833 17.667 80.5 53s32.5 75.666 32.5 120.999s-7.66699 81.333 -23 108c-15.333 28 -38.833 42 -70.5 42s-58.167 -18 -79.5 -54s-33 -81.333 -35 -136c0 -38.667 7.83301 -70.667 23.5 -96z" />
    <glyph glyph-name="Scaron" unicode="&#x160;" horiz-adv-x="488" 
d="M190 980h80l87 -83l87 83h80l-119 -158h-106zM418 504c20 30 29.9971 58.002 29.9971 84.002s-7.33301 46.667 -22 62s-34 23 -58 23s-43.333 -5.83301 -58 -17.5s-22 -30 -22 -55s17.333 -69.833 52 -134.5s56.667 -106.334 66 -125.001
c25.333 -50.667 38 -99.667 38 -147c0 -59.333 -21.5 -107.5 -64.5 -144.5s-93.667 -55.5 -152 -55.5s-104.166 18.167 -137.499 54.5s-50 78.833 -50 127.5c0 90 55.667 164.333 167 223c-45.333 89.333 -68 151.666 -68 186.999c0 49.333 19.833 91.166 59.5 125.499
s88.334 51.5 146.001 51.5s101.834 -14.667 132.501 -44s46 -66.666 46 -111.999c0 -30 -10 -64.333 -30 -103h-75zM221.497 85.002c25.667 0 45.666 7.5 59.999 22.5s21.5 37.167 21.5 66.5c0 26.667 -10.333 59.334 -31 98.001l-15 29.5
c-7.33301 14.333 -12.666 24.5 -15.999 30.5c-74.667 -38.667 -112 -87.334 -112 -146.001c0 -30 9 -54 27 -72c18 -19.333 39.833 -29 65.5 -29z" />
    <glyph glyph-name="scaron" unicode="&#x161;" horiz-adv-x="515" 
d="M77 735h80l87 -83l87 83h80l-119 -158h-106zM450 306c52.667 -38.667 79.002 -84.334 79.002 -137.001s-20.667 -95 -62 -127s-93.333 -48 -156 -48c-40.667 0 -74.5 10.167 -101.5 30.5s-40.5 45.5 -40.5 75.5s10 53.833 30 71.5s45 28.5 75 32.5
c-14 -20 -21 -39.167 -21 -57.5s6.33301 -33.166 19 -44.499s28.667 -17 48 -17s35.333 7.16699 48 21.5s19 30.833 19 49.5c0 30.667 -14.333 58 -43 82c-17.333 14 -36 27.167 -56 39.5s-30.667 18.833 -32 19.5c-2.66699 2 -5.33398 3.66699 -8.00098 5
c-12 -14 -29.333 -33.167 -52 -57.5l-54 -58.5c-37.333 -40.667 -58.333 -74.667 -63 -102c-1.33301 -5.33301 -2 -15.5 -2 -30.5s4.5 -30.5 13.5 -46.5s19.833 -28 32.5 -36s25.167 -14.5 37.5 -19.5s23 -8.5 32 -10.5s13.5 -3.33301 13.5 -4
c0 -4.66699 -7.33301 -10 -22 -16c-27.333 -10 -55.833 -15 -85.5 -15s-58.5 10.667 -86.5 32c-38 29.333 -57 68.333 -57 117c0 30 7.66699 59.667 23 89c27.333 52 91.333 123.333 192 214c-24.667 24.667 -37 51 -37 79s10.5 51.667 31.5 71s45.833 29 74.5 29
c26 0 48.667 -10.333 68 -31c12.667 -14 19 -31.667 19 -53s-7 -45.333 -21 -72c71.333 -32 119.666 -57 144.999 -75zM233.002 419c16 16.667 24 28.667 24 36c0 16.667 -7.33301 25.667 -22 27c-16.667 0 -25 -9.33301 -25 -28c0 -11.333 7.66699 -23 23 -35z" />
    <glyph glyph-name="Ydieresis" unicode="&#x178;" horiz-adv-x="644" 
d="M230.5 935.5c13.667 14.333 30.5 21.5 50.5 21.5s37 -7.16699 51 -21.5s21 -31.5 21 -51.5s-7 -37 -21 -51s-31 -21 -51 -21s-36.833 7 -50.5 21s-20.5 31 -20.5 51s6.83301 37.167 20.5 51.5zM522 957c20 0 36.999 -7.16699 50.999 -21.5s21 -31.5 21 -51.5
s-6.83301 -37 -20.5 -51s-30.667 -21 -51 -21s-37.666 7 -51.999 21s-21.5 31 -21.5 51s7.16699 37.167 21.5 51.5s31.5 21.5 51.5 21.5zM312.999 643l-1 -17.0039c-2 -31.333 -11.333 -108.666 -28 -231.999c-20.667 -148 -31 -225.333 -31 -232
c0 -20 6.33301 -36.833 19 -50.5s29.5 -20.5 50.5 -20.5s40.333 7.16699 58 21.5s31.167 31.5 40.5 51.5l56 511c3.33301 30.667 15.833 52.834 37.5 66.501s44.5 20.5 68.5 20.5c16 0 32.667 -3.33301 50 -10l-67 -554c88 40.667 142.333 64.667 163 72l15 -70
c-58.667 -24 -121 -51.667 -187 -83l-25 -204c-4 -36 -12.833 -66.833 -26.5 -92.5s-30.167 -45.167 -49.5 -58.5c-35.333 -24 -73.833 -36 -115.5 -36s-76.334 15.167 -104.001 45.5s-41.5 66.833 -41.5 109.5s14 81.334 42 116.001c-35.333 6 -64.666 21.5 -87.999 46.5
s-35 55.833 -35 92.5c0 4 0.666992 11.333 2 22l32 246c-82 52 -123 116 -123 192c0 70.667 25.667 119.334 77 146.001c24 13.333 51.5 20 82.5 20s60.167 -9.83301 87.5 -29.5s41 -49.5 41 -89.5zM146.999 680.996c-16 0 -29.167 -7.66797 -39.5 -23.001
s-15.5 -33.666 -15.5 -54.999c0 -46.667 22 -85 66 -115l19 144c0 27.333 -6.66699 43.333 -20 48c-2.66699 0.666992 -6 1 -10 1zM270.999 -106.005c0 -22 5.5 -39 16.5 -51s24.167 -18 39.5 -18s29 5.5 41 16.5s19.333 26.5 22 46.5l18 157
c-91.333 -50 -137 -100.333 -137 -151z" />
    <glyph glyph-name="Zcaron" unicode="&#x17d;" horiz-adv-x="535" 
d="M174 980h80l87 -83l87 83h80l-119 -158h-106zM553.5 210c24.333 -22 36.5 -49.6699 36.5 -83.0029s-12.667 -62.833 -38 -88.5s-63.666 -38.5 -114.999 -38.5h-408c-6.66699 16.667 -10 34.334 -10 53.001s7 37.334 21 56.001l347 533h-34
c-18 -35.333 -43.667 -64.666 -77 -87.999s-70.5 -35.166 -111.5 -35.499s-73.667 10.5 -98 32.5s-36.5 49.667 -36.5 83s12.667 62.833 38 88.5s63.666 38.5 114.999 38.5h398c3.33301 -11.333 5 -22.666 5 -33.999c0 -20.667 -6.33301 -39.667 -19 -57l-357 -551h57
c18 35.333 43.667 64.666 77 87.999s70.5 35.166 111.5 35.499s73.667 -10.5 98 -32.5zM182 641.997c-43.333 0 -65 -10.333 -65 -31s20.333 -31 61 -31s75.667 20.667 105 62h-101zM438 118.997c43.333 0 65 10.333 65 31s-20.333 31 -61 31s-75.667 -20.667 -105 -62h101z
" />
    <glyph glyph-name="zcaron" unicode="&#x17e;" horiz-adv-x="437" 
d="M85 700h80l87 -83l87 83h80l-119 -158h-106zM311 -9l-278 6c-8.66699 0 -13 11.833 -13 35.5s5 42.167 15 55.5c10 26.667 37.667 65.667 83 117l82 90c40 43.333 66.333 73 79 89l-53 3c-10 -24 -24.5 -43.5 -43.5 -58.5s-40.167 -22.5 -63.5 -22.5
c-26.667 0 -48.334 7.83301 -65.001 23.5s-25 37.5 -25 65.5s9.66699 50.333 29 67s46 25 80 25l278 -6c8.66699 0 13 -11.333 13 -34c0 -23.333 -4.33301 -41.333 -13 -54c-8 -14.667 -19.5 -30.167 -34.5 -46.5s-36.833 -38 -65.5 -65l-60 -57.5
c-44.667 -44.667 -78 -87.667 -100 -129l67 -4c10 24 24.5 43.5 43.5 58.5s40.167 22.5 63.5 22.5c26.667 0 48.334 -7.83301 65.001 -23.5s25 -37.5 25 -65.5s-9.66699 -50.333 -29 -67s-46 -25 -80 -25zM130 394c-23.333 0 -35 -7.66699 -35 -23s8.66699 -23 26 -23
c26 0 46.667 14 62 42l-41 3c-4 0.666992 -8 1 -12 1zM319 84c23.333 0 35 7.66699 35 23s-8.66699 23 -26 23c-26 0 -46.667 -14 -62 -42l41 -3c4 -0.666992 8 -1 12 -1z" />
    <glyph glyph-name="florin" unicode="&#x192;" 
d="M501 597c0 23.333 -5.00098 41.667 -15.001 55c-12 14.667 -29.333 22 -52 22s-39.667 -8.83301 -51 -26.5s-18.666 -42.5 -21.999 -74.5l-16 -130h182l-13 -80h-178l-77 -637h-136c6 39.333 32 251.666 78 636.999h-119l12 80h117l18 151c14 111.333 80 167 198 167
c46 0 82.5 -13.833 109.5 -41.5s40.5 -64.167 40.5 -109.5c0 -13.333 -1 -27.666 -3 -42.999h-75c1.33301 14.667 2 24.667 2 30z" />
    <glyph glyph-name="circumflex" unicode="&#x2c6;" 
d="M290 700l174 -121c-14 -26 -25 -45.333 -33 -58l-141 73l-141 -73c-8 12.667 -19 32 -33 58z" />
    <glyph glyph-name="caron" unicode="&#x2c7;" 
d="M145 700h80l87 -83l87 83h80l-119 -158h-106z" />
    <glyph glyph-name="breve" unicode="&#x2d8;" 
d="M429.5 571c-33.667 -29.333 -75.666 -44.001 -125.999 -44.001s-90.5 16.667 -120.5 50c-23.333 26 -35 56.333 -35 91c0 10.667 1 21.334 3 32.001h57c-0.666992 -4 -1 -8.33301 -1 -13c0 -23.333 9 -43 27 -59s43.5 -24 76.5 -24s59.833 8.5 80.5 25.5
s33.667 40.5 39 70.5h57c-4.66699 -56.667 -23.834 -99.667 -57.501 -129z" />
    <glyph glyph-name="dotaccent" unicode="&#x2d9;" 
d="M248 630h102v-102h-102v102z" />
    <glyph glyph-name="ring" unicode="&#x2da;" 
d="M293 705c28.667 0 53.334 -10.167 74.001 -30.5s31 -45.166 31 -74.499s-10.333 -54.166 -31 -74.499s-45.334 -30.5 -74.001 -30.5s-53.334 10.167 -74.001 30.5s-31 45.166 -31 74.499s10.333 54.166 31 74.499s45.334 30.5 74.001 30.5zM293 649
c-13.333 0 -24.833 -4.83301 -34.5 -14.5s-14.5 -21.167 -14.5 -34.5s4.83301 -24.833 14.5 -34.5s21.167 -14.5 34.5 -14.5s24.833 4.83301 34.5 14.5s14.5 21.167 14.5 34.5s-4.83301 24.833 -14.5 34.5s-21.167 14.5 -34.5 14.5z" />
    <glyph glyph-name="ogonek" unicode="&#x2db;" 
d="M404 -217c-25.333 -21.333 -56.168 -32.001 -92.501 -32.001s-66 10.667 -89 32s-34.5 50 -34.5 86c0 34.667 9.5 64.334 28.5 89.001s42.833 41.667 71.5 51h95c-21.333 0 -44.666 -12.5 -69.999 -37.5s-38 -53.167 -38 -84.5c0 -45.333 19.333 -70 58 -74h19
c9.33301 0 22 4.33301 38 13z" />
    <glyph glyph-name="tilde" unicode="&#x2dc;" horiz-adv-x="425" 
d="M259 664c36.667 -23.333 62.667 -35 78 -35c30.667 0 55.334 22.667 74.001 68l44 -25c-6 -43.333 -20.5 -78.833 -43.5 -106.5s-50.167 -41.5 -81.5 -41.5s-64.666 12.333 -99.999 37c-36 25.333 -61.333 38 -76 38s-27.334 -4.16699 -38.001 -12.5
s-21.334 -23.833 -32.001 -46.5l-44 26c8.66699 38.667 23.667 70.5 45 95.5s46.5 37.5 75.5 37.5s61.833 -11.667 98.5 -35z" />
    <glyph glyph-name="hungarumlaut" unicode="&#x2dd;" 
d="M208 762h101l-140 -160h-78zM380 762h101l-160 -160h-88z" />
    <glyph glyph-name="mu" unicode="&#x3bc;" horiz-adv-x="666" 
d="M545 471c-27.333 -216 -41.001 -331.001 -41.001 -345.001c0 -26.667 9.66699 -40 29 -40c17.333 0 36.166 11.833 56.499 35.5s36.5 59.167 48.5 106.5c22 -24 35.333 -42.667 40 -56c-15.333 -64.667 -39.666 -110.334 -72.999 -137.001s-67.666 -40 -102.999 -40
c-58 0 -97 22.333 -117 67c-34.667 -44.667 -81 -67 -139 -67c-8.66699 0 -19.667 0.666992 -33 2l-32 -271h-131l47 400c0 10.667 0.333008 19 1 25l30 250l8 73c14 5.33301 29.833 8 47.5 8s29.167 -0.666992 34.5 -2c16 -1.33301 28.333 -5.66602 37 -12.999
c10.667 -7.33301 16 -17.666 16 -30.999v-6l-5 -34c-21.333 -154 -32 -236 -32 -246c0 -39.333 18 -59 54 -59c33.333 0 61 16.333 83 49c0 7.33301 0.666992 19 2 35l33 266c4.66699 11.333 14.667 20.833 30 28.5s34.5 11.5 57.5 11.5s40.167 -3.33301 51.5 -10z" />
    <glyph glyph-name="pi" unicode="&#x3c0;" horiz-adv-x="916" 
d="M203 761h658.001c4 -12 6 -25 6 -39s-4.66699 -28.667 -14 -44c-15.333 -24 -36 -36 -62 -36h-98l-84 -642h-136l75 642h-98l-62 -471c-16 -118 -71.333 -177 -166 -177c-34 0 -60.333 10.167 -79 30.5s-28 46.5 -28 78.5c0 71.333 50.333 135.666 151 192.999l30 258
c-33.333 -23.333 -70.5 -35.166 -111.5 -35.499s-73.667 10.5 -98 32.5s-36.5 49.667 -36.5 83s12.667 62.833 38 88.5s63.666 38.5 114.999 38.5zM202.001 642c-43.333 0 -65 -10.333 -65 -31s20.333 -31 61 -31s75.667 20.667 105 62h-101zM185.001 118
c0 -21.333 9.66504 -31.9961 28.998 -31.9961c10.667 0 17.667 3.16699 21 9.5s5.83301 11.666 7.5 15.999s3.16699 10.166 4.5 17.499s2.33301 13.833 3 19.5s1.33398 13.167 2.00098 22.5s1.33398 16.666 2.00098 21.999l2 14c-47.333 -32.667 -71 -62.334 -71 -89.001z
" />
    <glyph glyph-name="endash" unicode="&#x2013;" 
d="M100 399h410l-11 -86h-409z" />
    <glyph glyph-name="emdash" unicode="&#x2014;" 
d="M-80 399h780l-11 -86h-779z" />
    <glyph glyph-name="quoteleft" unicode="&#x2018;" horiz-adv-x="244" 
d="M160 790c1.33301 0.666992 3.99805 1 7.99805 1s12 -2 24 -6s19.333 -7.33301 22 -10c-31.333 -36 -58.666 -70.667 -81.999 -104c18.667 -3.33301 34.334 -12.5 47.001 -27.5s19 -33 19 -54s-7.83301 -39.5 -23.5 -55.5s-35.167 -24 -58.5 -24s-43.5 7.33301 -60.5 22
s-25.5 36.5 -25.5 65.5s14.667 62.667 44 101s58 68.833 86 91.5z" />
    <glyph glyph-name="quoteright" unicode="&#x2019;" horiz-adv-x="249" 
d="M69.5 767c15.667 16 35.1689 24 58.502 24s43.5 -7.33301 60.5 -22s25.5 -36.5 25.5 -65.5s-14.667 -62.667 -44 -101s-58 -68.833 -86 -91.5c-1.33301 -0.666992 -4 -1 -8 -1s-12 2 -24 6s-19.333 7.33301 -22 10c31.333 36 58.666 70.667 81.999 104
c-18.667 3.33301 -34.334 12.5 -47.001 27.5s-19 33 -19 54s7.83301 39.5 23.5 55.5z" />
    <glyph glyph-name="quotesinglbase" unicode="&#x201a;" horiz-adv-x="179" 
d="M41.5 130c15.667 16 35.1689 24 58.502 24s43.5 -7.33301 60.5 -22s25.5 -36.5 25.5 -65.5s-14.667 -62.667 -44 -101s-58 -68.833 -86 -91.5c-1.33301 -0.666992 -4 -1 -8 -1s-12 2 -24 6s-19.333 7.33301 -22 10c31.333 36 58.666 70.667 81.999 104
c-18.667 3.33301 -34.334 12.5 -47.001 27.5s-19 33 -19 54s7.83301 39.5 23.5 55.5z" />
    <glyph glyph-name="quotedblleft" unicode="&#x201c;" horiz-adv-x="432" 
d="M161 808c1.33301 0.666992 3.99902 1.00098 7.99902 1.00098s12 -2 24 -6s19.667 -7.33301 23 -10c-25.333 -28.667 -52.666 -63 -81.999 -103c18.667 -4.66699 34.334 -14.334 47.001 -29.001s19 -32.5 19 -53.5s-7.83301 -39.5 -23.5 -55.5s-33.834 -24 -54.501 -24h-3
c-25.333 0 -46.5 7.33301 -63.5 22s-25.333 36.667 -25 66s15.333 63 45 101s58.167 68.333 85.5 91zM348.999 808.001c1.33301 0.666992 3.83105 1.00195 7.49805 1.00195s11.834 -2.16699 24.501 -6.5s19.667 -7.5 21 -9.5c-33.333 -38.667 -60 -73 -80 -103
c18.667 -4.66699 34.167 -14.167 46.5 -28.5s18.5 -32.333 18.5 -54s-7.66699 -40.334 -23 -56.001s-33.666 -23.5 -54.999 -23.5h-3c-24.667 0 -45.5 7.33301 -62.5 22s-25.5 34.167 -25.5 58.5s9.33301 51.5 28 81.5c28.667 45.333 63 84.666 103 117.999z" />
    <glyph glyph-name="quotedblright" unicode="&#x201d;" horiz-adv-x="432" 
d="M69.5 767c15.667 16 35.1689 24 58.502 24s43.5 -7.33301 60.5 -22s25.5 -36.5 25.5 -65.5s-14.667 -62.667 -44 -101s-58 -68.833 -86 -91.5c-1.33301 -0.666992 -4 -1 -8 -1s-12 2 -24 6s-19.333 7.33301 -22 10c31.333 36 58.666 70.667 81.999 104
c-18.667 3.33301 -34.334 12.5 -47.001 27.5s-19 33 -19 54s7.83301 39.5 23.5 55.5zM257.502 767c15.667 16 35.1689 24 58.502 24s43.5 -7.33301 60.5 -22s25.5 -36.5 25.5 -65.5s-14.667 -62.667 -44 -101s-58 -68.833 -86 -91.5c-1.33301 -0.666992 -4 -1 -8 -1
s-12 2 -24 6s-19.333 7.33301 -22 10c31.333 36 58.666 70.667 81.999 104c-18.667 3.33301 -34.334 12.5 -47.001 27.5s-19 33 -19 54s7.83301 39.5 23.5 55.5z" />
    <glyph glyph-name="quotedblbase" unicode="&#x201e;" horiz-adv-x="432" 
d="M69.5 137c15.667 16 35.1689 24 58.502 24s43.5 -7.33301 60.5 -22s25.5 -36.5 25.5 -65.5s-14.667 -62.667 -44 -101s-58 -68.833 -86 -91.5c-1.33301 -0.666992 -4 -1 -8 -1s-12 2 -24 6s-19.333 7.33301 -22 10c31.333 36 58.666 70.667 81.999 104
c-18.667 3.33301 -34.334 12.5 -47.001 27.5s-19 33 -19 54s7.83301 39.5 23.5 55.5zM257.502 137c15.667 16 35.1689 24 58.502 24s43.5 -7.33301 60.5 -22s25.5 -36.5 25.5 -65.5s-14.667 -62.667 -44 -101s-58 -68.833 -86 -91.5c-1.33301 -0.666992 -4 -1 -8 -1
s-12 2 -24 6s-19.333 7.33301 -22 10c31.333 36 58.666 70.667 81.999 104c-18.667 3.33301 -34.334 12.5 -47.001 27.5s-19 33 -19 54s7.83301 39.5 23.5 55.5z" />
    <glyph glyph-name="dagger" unicode="&#x2020;" 
d="M262 -99h-83l58 511l-185 -17l12 86l179 -17l33 297h83l-33 -295l168 15l-11 -86l-164 15z" />
    <glyph glyph-name="daggerdbl" unicode="&#x2021;" 
d="M472 265l-11 -86l-166 15l-33 -293h-83l33 295l-182 -17l12 86l176 -17l19 164l-185 -17l12 86l179 -17l33 297h83l-33 -295l168 15l-11 -86l-164 15l-18 -161z" />
    <glyph glyph-name="bullet" unicode="&#x2022;" 
d="M285 481c28.667 0 53.334 -10.167 74.001 -30.5s31 -45.166 31 -74.499s-10.333 -54.166 -31 -74.499s-45.334 -30.5 -74.001 -30.5s-53.334 10.167 -74.001 30.5s-31 45.166 -31 74.499s10.333 54.166 31 74.499s45.334 30.5 74.001 30.5z" />
    <glyph glyph-name="ellipsis" unicode="&#x2026;" horiz-adv-x="700" 
d="M141 144c22.667 0 42 -8 58 -24s24 -35.333 24 -58s-8 -41.834 -24 -57.501s-35.333 -23.5 -58 -23.5s-41.834 7.83301 -57.501 23.5s-23.5 34.834 -23.5 57.501s7.83301 42 23.5 58s34.834 24 57.501 24zM365 144c22.667 0 42 -8 58 -24s24 -35.333 24 -58
s-8 -41.834 -24 -57.501s-35.333 -23.5 -58 -23.5s-41.834 7.83301 -57.501 23.5s-23.5 34.834 -23.5 57.501s7.83301 42 23.5 58s34.834 24 57.501 24zM589 144c22.667 0 42 -8 58 -24s24 -35.333 24 -58s-8 -41.834 -24 -57.501s-35.333 -23.5 -58 -23.5
s-41.834 7.83301 -57.501 23.5s-23.5 34.834 -23.5 57.501s7.83301 42 23.5 58s34.834 24 57.501 24z" />
    <glyph glyph-name="perthousand" unicode="&#x2030;" horiz-adv-x="1272" 
d="M35 506l1 23.999c7.33301 72.667 28.5 129.334 63.5 170.001s81.167 61 138.5 61c46 0 83.167 -17 111.5 -51s42.5 -83.667 42.5 -149l-1 -33c-8 -65.333 -29.167 -118.5 -63.5 -159.5s-76.5 -61.5 -126.5 -61.5c-55.333 0 -96.833 18.667 -124.5 56s-41.5 85 -41.5 143z
M655 760.999h83l-558 -861h-83zM128 515.999c-0.666992 -4 -0.998047 -12 -0.998047 -24s0.666992 -24.5 2 -37.5s3.66602 -27.167 6.99902 -42.5c8 -32.667 29 -49 63 -49c25.333 0 47.166 15.5 65.499 46.5s29.833 76.833 34.5 137.5c1.33301 9.33301 2 16.666 2 21.999
c0 90 -22 135.333 -66 136c-28.667 0 -52.667 -16.667 -72 -50s-31 -79.666 -35 -138.999zM488.002 199.999l1 22.998c8 72.667 29.5 129.334 64.5 170.001s81.5 61 139.5 61c46 0 82.833 -17 110.5 -51s41.5 -83.333 41.5 -148l-1 -34
c-6.66699 -65.333 -27.167 -118.666 -61.5 -159.999s-76.166 -62 -125.499 -62c-4.66699 0 -9.33398 0.333008 -14.001 1c-49.333 2.66699 -87.5 22 -114.5 58s-40.5 83.333 -40.5 142zM880.002 199.997l1 22.998c8 72.667 29.5 129.334 64.5 170.001s81.5 61 139.5 61
c46 0 82.833 -17 110.5 -51s41.5 -83.333 41.5 -148l-1 -34c-6.66699 -65.333 -27.167 -118.666 -61.5 -159.999s-76.166 -62 -125.499 -62c-4.66699 0 -9.33398 0.333008 -14.001 1c-49.333 2.66699 -87.5 22 -114.5 58s-40.5 83.333 -40.5 142zM580.002 192.995
c0 -90 22 -136 66 -138h5c26 0 48.333 15.667 67 47s30 77 34 137c2 14 3 21.667 3 23c0 89.333 -22.333 134.333 -67 135c-28.667 0 -52.5 -16.5 -71.5 -49.5s-30.833 -79.167 -35.5 -138.5c-0.666992 -4.66699 -1 -10 -1 -16zM972.002 192.995c0 -90 22 -136 66 -138h5
c26 0 48.333 15.667 67 47s30 77 34 137c2 14 3 21.667 3 23c0 89.333 -22.333 134.333 -67 135c-28.667 0 -52.5 -16.5 -71.5 -49.5s-30.833 -79.167 -35.5 -138.5c-0.666992 -4.66699 -1 -10 -1 -16z" />
    <glyph glyph-name="guilsinglleft" unicode="&#x2039;" horiz-adv-x="310" 
d="M193 0l-173 239l207 245h66l-140 -245l107 -239h-67z" />
    <glyph glyph-name="guilsinglright" unicode="&#x203a;" horiz-adv-x="310" 
d="M20 0l131 239l-116 245h66l183 -245l-197 -239h-67z" />
    <glyph glyph-name="fraction" unicode="&#x2044;" 
d="M560 761h83l-558 -861h-83z" />
    <glyph glyph-name="Euro" unicode="&#x20ac;" 
d="M523 579l-1.00488 12.999c0 2 -0.333008 4.33301 -1 7c-3.33301 23.333 -11.666 40.666 -24.999 51.999l2 1c-17.333 12.667 -43 19.667 -77 21h-1c-48.667 0 -92 -20.5 -130 -61.5s-66.333 -93.833 -85 -158.5h234l-21 -71h-229
c-1.33301 -8.66699 -2.66602 -21.667 -3.99902 -39h214l-21 -71h-194c3.33301 -53.333 18.5 -97.666 45.5 -132.999s68.333 -53 124 -53s108.834 17.5 159.501 52.5s93.334 80.167 128.001 135.5l34 -61c-39.333 -64 -88.666 -116.5 -147.999 -157.5s-125 -61.5 -197 -61.5
c-86.667 0 -157.167 25.333 -211.5 76s-83.833 118 -88.5 202h-59v71h61c0.666992 8.66699 2.33398 21.667 5.00098 39h-65v71h81c26 90 70 163.833 132 221.5s136 86.5 222 86.5c66.667 0 117.167 -12.667 151.5 -38s52.166 -57.666 53.499 -96.999
c2.66699 -16 4 -31.667 4 -47h-93z" />
    <glyph glyph-name="trademark" unicode="&#x2122;" horiz-adv-x="1214" 
d="M1064 754c14 5.33301 33.668 7.99805 59.001 7.99805s48 -1.66699 68 -5c-20.667 -153.333 -36.834 -292.166 -48.501 -416.499s-18 -189.833 -19 -196.5s-1.5 -12.667 -1.5 -18c0.666992 -17.333 9 -26 25 -26c40 0 95.667 46 167 138c12.667 -35.333 20 -59 22 -71
c-32 -50.667 -70.5 -92.167 -115.5 -124.5s-87.5 -48.5 -127.5 -48.5s-67.667 10.333 -83 31s-23 43.667 -23 69c0 6 0.833008 17.667 2.5 35s14.834 125.333 39.501 324l-164 -379h-85l-49 373l-70 -310c-11.333 -49.333 -29.833 -85.666 -55.5 -108.999
s-53.834 -35 -84.501 -35s-55.667 9 -75 27c-20.667 19.333 -31 46.666 -31 81.999c0 70.667 54.667 131 164 181c59.333 284.667 91.333 442.334 96 473.001c16 4 37.5 6 64.5 6s45.5 -0.666992 55.5 -2h7l62 -465l200 454v5zM198.001 565.998
c-27.333 -20 -57 -30.002 -89 -30.002s-58.167 9.33301 -78.5 28s-30.5 46.334 -30.5 83.001s16.333 64.834 49 84.501s71 29.5 115 29.5h397c2 -9.33301 3 -18.333 3 -27c0 -22.667 -7.33301 -43.667 -22 -63s-37 -29 -67 -29h-3h-212c-14 -30.667 -34.667 -56 -62 -76z
M130.001 641.996c-24.667 0 -37 -8.66699 -37 -26c0 -14 10.667 -21 32 -21c10 0 21.833 4.33301 35.5 13s25.167 20 34.5 34h-65zM160.001 -4.00391c-36 0 -64.833 11 -86.5 33s-32.5 49.667 -32.5 83c0 78 59.333 144.667 178 200l35 266c27.333 17.333 59 26 95 26
c16.667 0 32.667 -1.66699 48 -5l-60 -407c-16.667 -130.667 -75.667 -196 -177 -196zM115.001 122.996c0 -24 11.666 -36 34.999 -36c26.667 0 43.334 25.667 50.001 77l8 63c-62 -36 -93 -70.667 -93 -104zM486 118.996c0 -21.333 8.33398 -32 25.001 -32
c11.333 0 20.666 9 27.999 27c9.33301 22 17 51 23 87c-50.667 -28.667 -76 -56 -76 -82z" />
    <glyph glyph-name="product" unicode="&#x220f;" 
d="M453 -99h-83l87 774h-248l-87 -774h-83l87 774h-122l12 86h620l-11 -86h-85z" />
    <glyph glyph-name="summation" unicode="&#x2211;" 
d="M343 290h1l-1 -1l1 -1h-1l-269 -328h455l-17 -86h-563l19 86l270 329l-193 346l18 85h561l-17 -86h-456z" />
    <glyph glyph-name="minus" unicode="&#x2212;" horiz-adv-x="531" 
d="M25 417h472l-9 -86h-472z" />
    <glyph glyph-name="radical" unicode="&#x221a;" 
d="M-71 158l-19 37l151 161l139 -298l415 706h59l-505 -840l-140 338z" />
    <glyph glyph-name="infinity" unicode="&#x221e;" 
d="M92 114c-56.667 0 -101.165 20.8311 -133.498 62.498s-48.5 93.167 -48.5 154.5s16 114.666 48 159.999s80.667 68 146 68c26 0 55.333 -10.667 88 -32c27.333 -15.333 64.666 -48.666 111.999 -99.999c26 44.667 53.333 77.834 82 99.501s63.334 32.5 104.001 32.5
c56.667 0 101.167 -20.833 133.5 -62.5s48.5 -93.167 48.5 -154.5s-15.333 -114.666 -46 -159.999s-75.667 -68 -135 -68h-3c-28 0 -56.333 8.33301 -85 25v-1c-28.667 14.667 -70.334 51 -125.001 109c-26 -45.333 -53.333 -78.833 -82 -100.5
s-63.334 -32.5 -104.001 -32.5zM556.002 287.498c14.667 17.667 22.001 39.333 22.001 65s-7.5 48.167 -22.5 67.5s-35.167 29 -60.5 29h-3c-50.667 -2.66699 -93 -33.334 -127 -92.001c30.667 -36 54.667 -61 72 -75s36.666 -21.333 57.999 -22
c26 0.666992 46.333 9.83398 61 27.501zM26.0029 385.497c-14.667 -17.667 -22 -39.335 -22 -65.002s7.5 -48.167 22.5 -67.5s35.167 -29 60.5 -29h3c50.667 2.66699 93 33.334 127 92.001c-31.333 36.667 -55.5 61.834 -72.5 75.501s-36.167 20.834 -57.5 21.501
c-26 -0.666992 -46.333 -9.83398 -61 -27.501z" />
    <glyph glyph-name="integral" unicode="&#x222b;" 
d="M357 727c10 2 18.9971 3 26.9971 3c42 0 73.667 -8 95 -24c23.333 -18.667 35 -41.167 35 -67.5s-12 -45.833 -36 -58.5c-15.333 -8 -27.666 -12 -36.999 -12s-16.666 2.33301 -21.999 7c2.66699 8.66699 4 19.334 4 32.001s-6.33301 25.334 -19 38.001
c-15.333 -2.66699 -24.666 -17 -27.999 -43c-0.666992 -4.66699 -1.66699 -17.667 -3 -39l-24 -540c-2 -44.667 -15.667 -79.334 -41 -104.001s-58.666 -37 -99.999 -37c-8 0 -16 1 -24 3c-34.667 3.33301 -61.834 13.5 -81.501 30.5s-29.5 37.167 -29.5 60.5
s7.5 41.333 22.5 54s29.5 19 43.5 19c15.333 0 27.333 -2.66699 36 -8c-4.66699 -12 -7 -24.333 -7 -37s5.33301 -25.334 16 -38.001c22.667 6.66699 36 48 40 124c2.66699 80.667 9.66699 246.667 21 498c2 41.333 13.167 73.5 33.5 96.5s45.833 37.167 76.5 42.5h2z" />
    <glyph glyph-name="approxequal" unicode="&#x2248;" 
d="M179 491c6 0 16.332 -1.33203 30.999 -3.99902s49 -16.334 103 -41.001s89.667 -37 107 -37c34.667 0 61.334 23.667 80.001 71h44c-6.66699 -58 -23.334 -100.667 -50.001 -128s-56.667 -41 -90 -41s-76.666 13 -129.999 39c-54.667 26 -90 39 -106 39
s-31.167 -4.16699 -45.5 -12.5s-22.5 -22.833 -24.5 -43.5h-44c2.66699 52.667 17 92.167 43 118.5s53.333 39.5 82 39.5zM178.999 296.001c6 0 16.332 -1.33203 30.999 -3.99902s49 -16.334 103 -41.001s89.667 -37 107 -37c34.667 0 61.334 23.667 80.001 71h44
c-6.66699 -58 -23.334 -100.667 -50.001 -128s-56.667 -41 -90 -41s-76.666 12.667 -129.999 38c-54.667 26.667 -90 40 -106 40s-31.167 -4.16699 -45.5 -12.5s-22.5 -22.833 -24.5 -43.5h-44c2.66699 52.667 17 92.167 43 118.5s53.333 39.5 82 39.5z" />
    <glyph glyph-name="notequal" unicode="&#x2260;" horiz-adv-x="524" 
d="M484 301l-11 -86h-215l-94 -315h-83l94 315h-175l13 86h188l28 94h-207l12 86h221l84 280h83l-84 -280h167l-11 -86h-182l-28 -94h200z" />
    <glyph glyph-name="lessequal" unicode="&#x2264;" horiz-adv-x="698" 
d="M630 217l-12 -96l-579 305l639 226l-13 -99l-417 -143zM41 86h577l-11 -86h-579z" />
    <glyph glyph-name="greaterequal" unicode="&#x2265;" horiz-adv-x="687" 
d="M41 220l417 143l-382 193l12 96l579 -305l-639 -226zM30 86h577l-11 -86h-579z" />
    <glyph glyph-name="lozenge" unicode="&#x25ca;" horiz-adv-x="637" 
d="M52 281l278 261l224 -261l-278 -251zM458 281l-140 155l-170 -155l140 -155z" />
    <glyph glyph-name="fi" unicode="&#xfb01;" horiz-adv-x="634" 
d="M303 -1c36.667 -64.667 55 -118.169 55 -160.502s-12.833 -76.666 -38.5 -102.999s-59.167 -39.5 -100.5 -39.5s-75.166 11.5 -101.499 34.5s-39.5 54.833 -39.5 95.5c0 8 1.33301 24 4 48l31 270l-97 126c22.667 31.333 41.667 47 57 47
c7.33301 0 14.166 -3.66699 20.499 -11s17.166 -21 32.499 -41l38 336c5.33301 44 16 79.667 32 107c21.333 35.333 60.666 53 117.999 53c40.667 0 71.667 -11.167 93 -33.5s32 -53.166 32 -92.499c0 -52.667 -17.167 -104.667 -51.5 -156s-74.166 -96.333 -119.499 -135
l-25 -241c11.333 -12.667 27.333 -19 48 -19c64 0 115.667 47.333 155 142l25 217c6.66699 12 19.334 21.167 38.001 27.5s37.167 9.5 55.5 9.5s34.5 -2.33301 48.5 -7c-26 -200.667 -39 -302 -39 -304c-3.33301 -13.333 -5 -24.5 -5 -33.5s0.333008 -16.833 1 -23.5
c3.33301 -17.333 15.833 -26 37.5 -26s41.667 14.167 60 42.5s32.166 60.5 41.499 96.5c4.66699 -2.66699 12 -10.667 22 -24s16 -23.333 18 -30c-13.333 -53.333 -35.666 -96.333 -66.999 -129c-32.667 -32.667 -74 -49 -124 -49c-30 0 -56 7.33301 -78 22
s-36.333 36 -43 64c-35.333 -42 -80 -68.667 -134 -80zM568 600.998c-22 0 -40.667 7.66699 -56 23s-23 34 -23 56s7.66699 40.833 23 56.5s34 23.5 56 23.5s40.833 -7.83301 56.5 -23.5s23.5 -34.5 23.5 -56.5s-7.83301 -40.667 -23.5 -56s-34.5 -23 -56.5 -23z
M350 673.998c-3.33301 0.666992 -6.66797 1 -10.001 1c-18 0 -30 -11.667 -36 -35s-13.333 -77 -22 -161l-4 -38c28.667 29.333 51.834 60.5 69.501 93.5s26.5 63 26.5 90s-8 43.5 -24 49.5zM215.998 -152.002c-0.666992 -3.33301 -1 -10.499 -1 -21.499
s3.33301 -20.167 10 -27.5s15.5 -11 26.5 -11s20.833 4.5 29.5 13.5s13 22.833 13 41.5c0 35.333 -21 83.666 -63 144.999z" />
    <glyph glyph-name="fl" unicode="&#xfb02;" horiz-adv-x="709" 
d="M303 -1c36.667 -64.667 55.0029 -118.171 55.0029 -160.504s-12.833 -76.666 -38.5 -102.999s-59.167 -39.5 -100.5 -39.5s-75.166 11.5 -101.499 34.5s-39.5 54.833 -39.5 95.5c0 8 1.33301 24 4 48l31 270l-97 126c22.667 31.333 41.667 47 57 47
c7.33301 0 14.166 -3.66699 20.499 -11s17.166 -21 32.499 -41l38 336c5.33301 44 16 79.667 32 107c21.333 35.333 60.666 53 117.999 53c40.667 0 71.667 -11.167 93 -33.5s32 -53.166 32 -92.499c0 -52.667 -17.167 -104.667 -51.5 -156s-74.166 -96.333 -119.499 -135
l-25 -241c11.333 -12.667 27.333 -19 48 -19c66 0 119.333 51.333 160 154l42 359c9.33301 78.667 34.333 128.334 75 149.001c18.667 10 41 15 67 15c88 0 132 -40.667 132 -122c0 -6.66699 -0.333008 -13.667 -1 -21c-6.66699 -89.333 -62.667 -180.333 -168 -273l-10 -95
c-8.66699 -68.667 -13 -106.667 -13 -114c0 -34.667 15 -52 45 -52c32.667 0 63.167 18.833 91.5 56.5s50.166 85.834 65.499 144.501c6 -2 14.333 -7.5 25 -16.5s18 -16.833 22 -23.5c-10.667 -55.333 -34.667 -108.333 -72 -159c-18.667 -26 -42.334 -47.333 -71.001 -64
c-32.667 -19.333 -67 -29 -103 -29c-77.333 0 -122.333 31 -135 93c-38 -47.333 -84.667 -76.333 -140 -87zM350.003 673.996c-3.33301 0.666992 -6.66797 1 -10.001 1c-18 0 -30 -11.667 -36 -35s-13.333 -77 -22 -161l-4 -38c28.667 29.333 51.834 60.5 69.501 93.5
s26.5 63 26.5 90s-8 43.5 -24 49.5zM609.001 444.996c61.333 67.333 92 127.668 92 181.001c0 32 -12 48 -36 48c-15.333 -1.33301 -25.5 -11.333 -30.5 -30s-9.33301 -45.834 -13 -81.501s-5.5 -55.167 -5.5 -58.5l-4 -29zM216.001 -152.002
c-0.666992 -3.33301 -1 -10.499 -1 -21.499s3.33301 -20.167 10 -27.5s15.5 -11 26.5 -11s20.833 4.5 29.5 13.5s13 22.833 13 41.5c0 35.333 -21 83.666 -63 144.999z" />
    <glyph glyph-name=".null" horiz-adv-x="0" 
 />
    <glyph glyph-name="nonmarkingreturn" horiz-adv-x="333" 
 />
    <glyph glyph-name="NULL" horiz-adv-x="0" 
 />
    <glyph glyph-name="CR" horiz-adv-x="220" 
 />
    <glyph glyph-name="two.dnom" horiz-adv-x="428" 
d="M358 434l3 -41c0 -26 -8 -48 -24 -66s-35.333 -27 -58 -27s-48.667 4.66699 -78 14s-51.5 14 -66.5 14s-30.5 -6 -46.5 -18l-20 47c2 9.33301 16 25 42 47c48.667 41.333 80.834 71.666 96.501 90.999s26.167 36 31.5 50c7.33301 18.667 11 36.667 11 54
s-4.5 30.5 -13.5 39.5s-20.167 13.833 -33.5 14.5c-28 -1.33301 -42.667 -17.333 -44 -48c0 -19.333 0.666992 -32.333 2 -39h-80v34c0.666992 33.333 14.834 58.333 42.501 75s59 25 94 25s64.833 -9.16699 89.5 -27.5s37 -46.666 37 -84.999s-23.333 -81.833 -70 -130.5
c-24.667 -24.667 -51.334 -46.667 -80.001 -66c41.333 -8 69.166 -12 83.499 -12s25 4.33301 32 13s13.167 22.667 18.5 42h31z" />
    <glyph glyph-name="four.dnom" horiz-adv-x="363" 
d="M256 664c32 0 48.001 -10.666 48.001 -31.999c0 -10.667 -9.66699 -65.667 -29 -165c47.333 -11.333 71 -40.666 71 -87.999c0 -42 -11.333 -72.333 -34 -91c-17.333 -13.333 -37 -20 -59 -20c-24.667 0 -43.834 6.5 -57.501 19.5s-20.5 29.833 -20.5 50.5
c0 3.33301 0.666992 8.33301 2 15l7 53h-141v2c-3.33301 4.66699 -8 14 -14 28s-9 22.167 -9 24.5s0.333008 3.83301 1 4.5c57.333 75.333 86 134 86 176c0 15.333 -10 27 -30 35c16 16 40 24 72 24c16 0 28.167 -4 36.5 -12s12.5 -16 12.5 -24
s-0.166992 -14.833 -0.5 -20.5s-2.5 -13.834 -6.5 -24.501s-9.83301 -23.334 -17.5 -38.001l-20 -37l-23.5 -40.5c-10 -17 -16 -27.5 -18 -31.5h82l30 188c13.333 2.66699 24 4 32 4zM271.001 325.001c20 0 30 15.668 30 47.001c0 10.667 -2.66699 19.167 -8 25.5
s-15.333 10.166 -30 11.499l-8 -60c0 -16 5.33301 -24 16 -24z" />
    <glyph glyph-name="one.numr" horiz-adv-x="357" 
d="M307 365c-4 -28 -6 -46.333 -6 -55h-251l7 55h82l26 235l-88 -8l7 47c65.333 16.667 104 37 116 61h64l-38 -335h81z" />
    <glyph glyph-name="three.numr" horiz-adv-x="399" 
d="M254 422c0 38.667 -27.334 58 -82.001 58h-25l5 47c16.667 0 32.834 0.833008 48.501 2.5s28.167 7 37.5 16s15.333 24.167 18 45.5c0.666992 16.667 -2.83301 30.834 -10.5 42.501s-18.834 17.5 -33.501 17.5c-30.667 0 -48 -15.667 -52 -47
c-1.33301 -7.33301 -0.333008 -17.333 3 -30h-80c-1.33301 9.33301 -2 18 -2 26c0 22.667 8.66699 42 26 58c30 28 65.833 42 107.5 42s73.167 -9.33301 94.5 -28s32 -42.667 32 -72c0 -37.333 -17.667 -67 -53 -89c20 -7.33301 35.5 -17.833 46.5 -31.5
s16.5 -28.834 16.5 -45.501c0 -42.667 -17 -75 -51 -97c-27.333 -18 -59.666 -27 -96.999 -27c-70 0 -121.667 27 -155 81l81 46c0.666992 -25.333 7.16699 -44.5 19.5 -57.5s27.5 -19.5 45.5 -19.5s32.5 5.83301 43.5 17.5s16.5 26.5 16.5 44.5z" />
    <glyph glyph-name="_0001" horiz-adv-x="375" 
d="M97 482c0 30.667 8.83301 55.334 26.5 74.001s38 28 61 28s34.5 -4.66699 34.5 -14c0 -2.66699 -1.66699 -4.66699 -5 -6c-21.333 -10.667 -32 -26 -32 -46c0 -3.33301 0.333008 -6.33301 1 -9c4.66699 -20 18.334 -36.333 41.001 -49c14 42.667 31.667 74 53 94
s48.666 30 81.999 30h6c28 0 50 -9.16699 66 -27.5s24 -39.833 24 -64.5c0 -37.333 -15 -69.666 -45 -96.999s-71 -41 -123 -41c0 -2.66699 -0.666992 -6 -2 -10c68.667 -19.333 103 -57.666 103 -114.999c0 -32.667 -9 -58.334 -27 -77.001s-38.5 -28 -61.5 -28
s-34.5 5 -34.5 15c0 2 3.66699 5.33301 11 10c18 10.667 27 24 27 40c0 24.667 -14.333 44.667 -43 60c-13.333 -42.667 -30.833 -74.167 -52.5 -94.5s-50.167 -30.5 -85.5 -30.5h-3c-28 0 -49.833 9.16699 -65.5 27.5s-23.5 40.166 -23.5 65.499
c0 37.333 14.833 69.666 44.5 96.999s70.5 41 122.5 41l2 10c-68 20.667 -102 59.667 -102 117zM316 440c23.333 0 41.833 5.16699 55.5 15.5s20.5 21.5 20.5 33.5c0 24 -10.667 36 -32 36c-12 0 -22 -5.66699 -30 -17s-16.333 -34 -25 -68h11zM169 269
c-24 0 -42.667 -5.16699 -56 -15.5s-20 -21.5 -20 -33.5s2.83301 -21 8.5 -27s14 -9 25 -9s20.5 5.5 28.5 16.5s16 33.833 24 68.5h-10z" />
    </font>
</defs>
</svg>
